G75*
%MOIN*%
%OFA0B0*%
%FSLAX25Y25*%
%IPPOS*%
%LPD*%
%AMOC8*
5,1,8,0,0,1.08239X$1,22.5*
%
%ADD10C,0.01000*%
%ADD11C,0.00000*%
D10*
X0020061Y0005000D02*
X0410061Y0005000D01*
X0410061Y0010000D01*
X0420061Y0020000D01*
X0420061Y0155000D01*
X0410061Y0165000D01*
X0410061Y0205000D01*
X0400061Y0215000D01*
X0020061Y0215000D01*
X0020061Y0005000D01*
D11*
X0298132Y0124892D02*
X0298134Y0124971D01*
X0298140Y0125050D01*
X0298150Y0125129D01*
X0298164Y0125207D01*
X0298181Y0125284D01*
X0298203Y0125360D01*
X0298228Y0125435D01*
X0298258Y0125508D01*
X0298290Y0125580D01*
X0298327Y0125651D01*
X0298367Y0125719D01*
X0298410Y0125785D01*
X0298456Y0125849D01*
X0298506Y0125911D01*
X0298559Y0125970D01*
X0298614Y0126026D01*
X0298673Y0126080D01*
X0298734Y0126130D01*
X0298797Y0126178D01*
X0298863Y0126222D01*
X0298931Y0126263D01*
X0299001Y0126300D01*
X0299072Y0126334D01*
X0299146Y0126364D01*
X0299220Y0126390D01*
X0299296Y0126412D01*
X0299373Y0126431D01*
X0299451Y0126446D01*
X0299529Y0126457D01*
X0299608Y0126464D01*
X0299687Y0126467D01*
X0299766Y0126466D01*
X0299845Y0126461D01*
X0299924Y0126452D01*
X0300002Y0126439D01*
X0300079Y0126422D01*
X0300156Y0126402D01*
X0300231Y0126377D01*
X0300305Y0126349D01*
X0300378Y0126317D01*
X0300448Y0126282D01*
X0300517Y0126243D01*
X0300584Y0126200D01*
X0300649Y0126154D01*
X0300711Y0126106D01*
X0300771Y0126054D01*
X0300828Y0125999D01*
X0300882Y0125941D01*
X0300933Y0125881D01*
X0300981Y0125818D01*
X0301026Y0125753D01*
X0301068Y0125685D01*
X0301106Y0125616D01*
X0301140Y0125545D01*
X0301171Y0125472D01*
X0301199Y0125397D01*
X0301222Y0125322D01*
X0301242Y0125245D01*
X0301258Y0125168D01*
X0301270Y0125089D01*
X0301278Y0125011D01*
X0301282Y0124932D01*
X0301282Y0124852D01*
X0301278Y0124773D01*
X0301270Y0124695D01*
X0301258Y0124616D01*
X0301242Y0124539D01*
X0301222Y0124462D01*
X0301199Y0124387D01*
X0301171Y0124312D01*
X0301140Y0124239D01*
X0301106Y0124168D01*
X0301068Y0124099D01*
X0301026Y0124031D01*
X0300981Y0123966D01*
X0300933Y0123903D01*
X0300882Y0123843D01*
X0300828Y0123785D01*
X0300771Y0123730D01*
X0300711Y0123678D01*
X0300649Y0123630D01*
X0300584Y0123584D01*
X0300517Y0123541D01*
X0300448Y0123502D01*
X0300378Y0123467D01*
X0300305Y0123435D01*
X0300231Y0123407D01*
X0300156Y0123382D01*
X0300079Y0123362D01*
X0300002Y0123345D01*
X0299924Y0123332D01*
X0299845Y0123323D01*
X0299766Y0123318D01*
X0299687Y0123317D01*
X0299608Y0123320D01*
X0299529Y0123327D01*
X0299451Y0123338D01*
X0299373Y0123353D01*
X0299296Y0123372D01*
X0299220Y0123394D01*
X0299146Y0123420D01*
X0299072Y0123450D01*
X0299001Y0123484D01*
X0298931Y0123521D01*
X0298863Y0123562D01*
X0298797Y0123606D01*
X0298734Y0123654D01*
X0298673Y0123704D01*
X0298614Y0123758D01*
X0298559Y0123814D01*
X0298506Y0123873D01*
X0298456Y0123935D01*
X0298410Y0123999D01*
X0298367Y0124065D01*
X0298327Y0124133D01*
X0298290Y0124204D01*
X0298258Y0124276D01*
X0298228Y0124349D01*
X0298203Y0124424D01*
X0298181Y0124500D01*
X0298164Y0124577D01*
X0298150Y0124655D01*
X0298140Y0124734D01*
X0298134Y0124813D01*
X0298132Y0124892D01*
X0322345Y0149104D02*
X0322347Y0149183D01*
X0322353Y0149262D01*
X0322363Y0149341D01*
X0322377Y0149419D01*
X0322394Y0149496D01*
X0322416Y0149572D01*
X0322441Y0149647D01*
X0322471Y0149720D01*
X0322503Y0149792D01*
X0322540Y0149863D01*
X0322580Y0149931D01*
X0322623Y0149997D01*
X0322669Y0150061D01*
X0322719Y0150123D01*
X0322772Y0150182D01*
X0322827Y0150238D01*
X0322886Y0150292D01*
X0322947Y0150342D01*
X0323010Y0150390D01*
X0323076Y0150434D01*
X0323144Y0150475D01*
X0323214Y0150512D01*
X0323285Y0150546D01*
X0323359Y0150576D01*
X0323433Y0150602D01*
X0323509Y0150624D01*
X0323586Y0150643D01*
X0323664Y0150658D01*
X0323742Y0150669D01*
X0323821Y0150676D01*
X0323900Y0150679D01*
X0323979Y0150678D01*
X0324058Y0150673D01*
X0324137Y0150664D01*
X0324215Y0150651D01*
X0324292Y0150634D01*
X0324369Y0150614D01*
X0324444Y0150589D01*
X0324518Y0150561D01*
X0324591Y0150529D01*
X0324661Y0150494D01*
X0324730Y0150455D01*
X0324797Y0150412D01*
X0324862Y0150366D01*
X0324924Y0150318D01*
X0324984Y0150266D01*
X0325041Y0150211D01*
X0325095Y0150153D01*
X0325146Y0150093D01*
X0325194Y0150030D01*
X0325239Y0149965D01*
X0325281Y0149897D01*
X0325319Y0149828D01*
X0325353Y0149757D01*
X0325384Y0149684D01*
X0325412Y0149609D01*
X0325435Y0149534D01*
X0325455Y0149457D01*
X0325471Y0149380D01*
X0325483Y0149301D01*
X0325491Y0149223D01*
X0325495Y0149144D01*
X0325495Y0149064D01*
X0325491Y0148985D01*
X0325483Y0148907D01*
X0325471Y0148828D01*
X0325455Y0148751D01*
X0325435Y0148674D01*
X0325412Y0148599D01*
X0325384Y0148524D01*
X0325353Y0148451D01*
X0325319Y0148380D01*
X0325281Y0148311D01*
X0325239Y0148243D01*
X0325194Y0148178D01*
X0325146Y0148115D01*
X0325095Y0148055D01*
X0325041Y0147997D01*
X0324984Y0147942D01*
X0324924Y0147890D01*
X0324862Y0147842D01*
X0324797Y0147796D01*
X0324730Y0147753D01*
X0324661Y0147714D01*
X0324591Y0147679D01*
X0324518Y0147647D01*
X0324444Y0147619D01*
X0324369Y0147594D01*
X0324292Y0147574D01*
X0324215Y0147557D01*
X0324137Y0147544D01*
X0324058Y0147535D01*
X0323979Y0147530D01*
X0323900Y0147529D01*
X0323821Y0147532D01*
X0323742Y0147539D01*
X0323664Y0147550D01*
X0323586Y0147565D01*
X0323509Y0147584D01*
X0323433Y0147606D01*
X0323359Y0147632D01*
X0323285Y0147662D01*
X0323214Y0147696D01*
X0323144Y0147733D01*
X0323076Y0147774D01*
X0323010Y0147818D01*
X0322947Y0147866D01*
X0322886Y0147916D01*
X0322827Y0147970D01*
X0322772Y0148026D01*
X0322719Y0148085D01*
X0322669Y0148147D01*
X0322623Y0148211D01*
X0322580Y0148277D01*
X0322540Y0148345D01*
X0322503Y0148416D01*
X0322471Y0148488D01*
X0322441Y0148561D01*
X0322416Y0148636D01*
X0322394Y0148712D01*
X0322377Y0148789D01*
X0322363Y0148867D01*
X0322353Y0148946D01*
X0322347Y0149025D01*
X0322345Y0149104D01*
M02*
