G75*
%MOIN*%
%OFA0B0*%
%FSLAX25Y25*%
%IPPOS*%
%LPD*%
%AMOC8*
5,1,8,0,0,1.08239X$1,22.5*
%
%ADD10C,0.00800*%
%ADD11C,0.00600*%
%ADD12C,0.00394*%
D10*
X0147050Y0052244D02*
X0147050Y0055394D01*
X0147050Y0052244D02*
X0149412Y0052244D01*
X0155711Y0052244D02*
X0158073Y0052244D01*
X0158073Y0055394D01*
X0157061Y0031750D02*
X0157001Y0031748D01*
X0156940Y0031743D01*
X0156881Y0031734D01*
X0156822Y0031721D01*
X0156763Y0031705D01*
X0156706Y0031685D01*
X0156651Y0031662D01*
X0156596Y0031635D01*
X0156544Y0031606D01*
X0156493Y0031573D01*
X0156444Y0031537D01*
X0156398Y0031499D01*
X0156354Y0031457D01*
X0156312Y0031413D01*
X0156274Y0031367D01*
X0156238Y0031318D01*
X0156205Y0031267D01*
X0156176Y0031215D01*
X0156149Y0031160D01*
X0156126Y0031105D01*
X0156106Y0031048D01*
X0156090Y0030989D01*
X0156077Y0030930D01*
X0156068Y0030871D01*
X0156063Y0030810D01*
X0156061Y0030750D01*
X0156061Y0024250D01*
X0156063Y0024190D01*
X0156068Y0024129D01*
X0156077Y0024070D01*
X0156090Y0024011D01*
X0156106Y0023952D01*
X0156126Y0023895D01*
X0156149Y0023840D01*
X0156176Y0023785D01*
X0156205Y0023733D01*
X0156238Y0023682D01*
X0156274Y0023633D01*
X0156312Y0023587D01*
X0156354Y0023543D01*
X0156398Y0023501D01*
X0156444Y0023463D01*
X0156493Y0023427D01*
X0156544Y0023394D01*
X0156596Y0023365D01*
X0156651Y0023338D01*
X0156706Y0023315D01*
X0156763Y0023295D01*
X0156822Y0023279D01*
X0156881Y0023266D01*
X0156940Y0023257D01*
X0157001Y0023252D01*
X0157061Y0023250D01*
X0163061Y0023250D02*
X0163121Y0023252D01*
X0163182Y0023257D01*
X0163241Y0023266D01*
X0163300Y0023279D01*
X0163359Y0023295D01*
X0163416Y0023315D01*
X0163471Y0023338D01*
X0163526Y0023365D01*
X0163578Y0023394D01*
X0163629Y0023427D01*
X0163678Y0023463D01*
X0163724Y0023501D01*
X0163768Y0023543D01*
X0163810Y0023587D01*
X0163848Y0023633D01*
X0163884Y0023682D01*
X0163917Y0023733D01*
X0163946Y0023785D01*
X0163973Y0023840D01*
X0163996Y0023895D01*
X0164016Y0023952D01*
X0164032Y0024011D01*
X0164045Y0024070D01*
X0164054Y0024129D01*
X0164059Y0024190D01*
X0164061Y0024250D01*
X0164061Y0030750D01*
X0164059Y0030810D01*
X0164054Y0030871D01*
X0164045Y0030930D01*
X0164032Y0030989D01*
X0164016Y0031048D01*
X0163996Y0031105D01*
X0163973Y0031160D01*
X0163946Y0031215D01*
X0163917Y0031267D01*
X0163884Y0031318D01*
X0163848Y0031367D01*
X0163810Y0031413D01*
X0163768Y0031457D01*
X0163724Y0031499D01*
X0163678Y0031537D01*
X0163629Y0031573D01*
X0163578Y0031606D01*
X0163526Y0031635D01*
X0163471Y0031662D01*
X0163416Y0031685D01*
X0163359Y0031705D01*
X0163300Y0031721D01*
X0163241Y0031734D01*
X0163182Y0031743D01*
X0163121Y0031748D01*
X0163061Y0031750D01*
X0203561Y0028250D02*
X0203561Y0021750D01*
X0203563Y0021690D01*
X0203568Y0021629D01*
X0203577Y0021570D01*
X0203590Y0021511D01*
X0203606Y0021452D01*
X0203626Y0021395D01*
X0203649Y0021340D01*
X0203676Y0021285D01*
X0203705Y0021233D01*
X0203738Y0021182D01*
X0203774Y0021133D01*
X0203812Y0021087D01*
X0203854Y0021043D01*
X0203898Y0021001D01*
X0203944Y0020963D01*
X0203993Y0020927D01*
X0204044Y0020894D01*
X0204096Y0020865D01*
X0204151Y0020838D01*
X0204206Y0020815D01*
X0204263Y0020795D01*
X0204322Y0020779D01*
X0204381Y0020766D01*
X0204440Y0020757D01*
X0204501Y0020752D01*
X0204561Y0020750D01*
X0210561Y0020750D02*
X0210621Y0020752D01*
X0210682Y0020757D01*
X0210741Y0020766D01*
X0210800Y0020779D01*
X0210859Y0020795D01*
X0210916Y0020815D01*
X0210971Y0020838D01*
X0211026Y0020865D01*
X0211078Y0020894D01*
X0211129Y0020927D01*
X0211178Y0020963D01*
X0211224Y0021001D01*
X0211268Y0021043D01*
X0211310Y0021087D01*
X0211348Y0021133D01*
X0211384Y0021182D01*
X0211417Y0021233D01*
X0211446Y0021285D01*
X0211473Y0021340D01*
X0211496Y0021395D01*
X0211516Y0021452D01*
X0211532Y0021511D01*
X0211545Y0021570D01*
X0211554Y0021629D01*
X0211559Y0021690D01*
X0211561Y0021750D01*
X0211561Y0028250D01*
X0211559Y0028310D01*
X0211554Y0028371D01*
X0211545Y0028430D01*
X0211532Y0028489D01*
X0211516Y0028548D01*
X0211496Y0028605D01*
X0211473Y0028660D01*
X0211446Y0028715D01*
X0211417Y0028767D01*
X0211384Y0028818D01*
X0211348Y0028867D01*
X0211310Y0028913D01*
X0211268Y0028957D01*
X0211224Y0028999D01*
X0211178Y0029037D01*
X0211129Y0029073D01*
X0211078Y0029106D01*
X0211026Y0029135D01*
X0210971Y0029162D01*
X0210916Y0029185D01*
X0210859Y0029205D01*
X0210800Y0029221D01*
X0210741Y0029234D01*
X0210682Y0029243D01*
X0210621Y0029248D01*
X0210561Y0029250D01*
X0204561Y0029250D02*
X0204501Y0029248D01*
X0204440Y0029243D01*
X0204381Y0029234D01*
X0204322Y0029221D01*
X0204263Y0029205D01*
X0204206Y0029185D01*
X0204151Y0029162D01*
X0204096Y0029135D01*
X0204044Y0029106D01*
X0203993Y0029073D01*
X0203944Y0029037D01*
X0203898Y0028999D01*
X0203854Y0028957D01*
X0203812Y0028913D01*
X0203774Y0028867D01*
X0203738Y0028818D01*
X0203705Y0028767D01*
X0203676Y0028715D01*
X0203649Y0028660D01*
X0203626Y0028605D01*
X0203606Y0028548D01*
X0203590Y0028489D01*
X0203577Y0028430D01*
X0203568Y0028371D01*
X0203563Y0028310D01*
X0203561Y0028250D01*
X0253561Y0041750D02*
X0253561Y0048250D01*
X0253563Y0048310D01*
X0253568Y0048371D01*
X0253577Y0048430D01*
X0253590Y0048489D01*
X0253606Y0048548D01*
X0253626Y0048605D01*
X0253649Y0048660D01*
X0253676Y0048715D01*
X0253705Y0048767D01*
X0253738Y0048818D01*
X0253774Y0048867D01*
X0253812Y0048913D01*
X0253854Y0048957D01*
X0253898Y0048999D01*
X0253944Y0049037D01*
X0253993Y0049073D01*
X0254044Y0049106D01*
X0254096Y0049135D01*
X0254151Y0049162D01*
X0254206Y0049185D01*
X0254263Y0049205D01*
X0254322Y0049221D01*
X0254381Y0049234D01*
X0254440Y0049243D01*
X0254501Y0049248D01*
X0254561Y0049250D01*
X0260561Y0049250D02*
X0260621Y0049248D01*
X0260682Y0049243D01*
X0260741Y0049234D01*
X0260800Y0049221D01*
X0260859Y0049205D01*
X0260916Y0049185D01*
X0260971Y0049162D01*
X0261026Y0049135D01*
X0261078Y0049106D01*
X0261129Y0049073D01*
X0261178Y0049037D01*
X0261224Y0048999D01*
X0261268Y0048957D01*
X0261310Y0048913D01*
X0261348Y0048867D01*
X0261384Y0048818D01*
X0261417Y0048767D01*
X0261446Y0048715D01*
X0261473Y0048660D01*
X0261496Y0048605D01*
X0261516Y0048548D01*
X0261532Y0048489D01*
X0261545Y0048430D01*
X0261554Y0048371D01*
X0261559Y0048310D01*
X0261561Y0048250D01*
X0261561Y0041750D01*
X0261559Y0041690D01*
X0261554Y0041629D01*
X0261545Y0041570D01*
X0261532Y0041511D01*
X0261516Y0041452D01*
X0261496Y0041395D01*
X0261473Y0041340D01*
X0261446Y0041285D01*
X0261417Y0041233D01*
X0261384Y0041182D01*
X0261348Y0041133D01*
X0261310Y0041087D01*
X0261268Y0041043D01*
X0261224Y0041001D01*
X0261178Y0040963D01*
X0261129Y0040927D01*
X0261078Y0040894D01*
X0261026Y0040865D01*
X0260971Y0040838D01*
X0260916Y0040815D01*
X0260859Y0040795D01*
X0260800Y0040779D01*
X0260741Y0040766D01*
X0260682Y0040757D01*
X0260621Y0040752D01*
X0260561Y0040750D01*
X0254561Y0040750D02*
X0254501Y0040752D01*
X0254440Y0040757D01*
X0254381Y0040766D01*
X0254322Y0040779D01*
X0254263Y0040795D01*
X0254206Y0040815D01*
X0254151Y0040838D01*
X0254096Y0040865D01*
X0254044Y0040894D01*
X0253993Y0040927D01*
X0253944Y0040963D01*
X0253898Y0041001D01*
X0253854Y0041043D01*
X0253812Y0041087D01*
X0253774Y0041133D01*
X0253738Y0041182D01*
X0253705Y0041233D01*
X0253676Y0041285D01*
X0253649Y0041340D01*
X0253626Y0041395D01*
X0253606Y0041452D01*
X0253590Y0041511D01*
X0253577Y0041570D01*
X0253568Y0041629D01*
X0253563Y0041690D01*
X0253561Y0041750D01*
X0351056Y0115738D02*
X0354205Y0115738D01*
X0351056Y0115738D02*
X0351056Y0118100D01*
X0351056Y0124400D02*
X0351056Y0126762D01*
X0354205Y0126762D01*
X0354205Y0128238D02*
X0351056Y0128238D01*
X0351056Y0130600D01*
X0351056Y0136900D02*
X0351056Y0139262D01*
X0354205Y0139262D01*
X0354205Y0140738D02*
X0351056Y0140738D01*
X0351056Y0143100D01*
X0351056Y0149400D02*
X0351056Y0151762D01*
X0354205Y0151762D01*
X0354205Y0155738D02*
X0351056Y0155738D01*
X0351056Y0158100D01*
X0351056Y0164400D02*
X0351056Y0166762D01*
X0354205Y0166762D01*
X0338683Y0143986D02*
X0329235Y0143986D01*
X0338683Y0143986D02*
X0338683Y0123514D01*
X0329628Y0123514D01*
X0308562Y0117250D02*
X0308174Y0117411D01*
X0307790Y0117580D01*
X0307411Y0117759D01*
X0307035Y0117947D01*
X0306665Y0118143D01*
X0306299Y0118349D01*
X0305938Y0118563D01*
X0305582Y0118785D01*
X0305231Y0119015D01*
X0304886Y0119254D01*
X0304547Y0119501D01*
X0304214Y0119756D01*
X0303887Y0120019D01*
X0303566Y0120289D01*
X0303251Y0120567D01*
X0302943Y0120852D01*
X0302642Y0121144D01*
X0302348Y0121444D01*
X0302061Y0121750D01*
X0298061Y0128750D02*
X0297944Y0129160D01*
X0297836Y0129573D01*
X0297739Y0129989D01*
X0297652Y0130407D01*
X0297575Y0130827D01*
X0297508Y0131249D01*
X0297451Y0131672D01*
X0297405Y0132096D01*
X0297369Y0132522D01*
X0297343Y0132948D01*
X0297328Y0133375D01*
X0297323Y0133801D01*
X0297328Y0134228D01*
X0297344Y0134655D01*
X0297370Y0135081D01*
X0297406Y0135507D01*
X0297453Y0135931D01*
X0297510Y0136354D01*
X0297577Y0136776D01*
X0297655Y0137196D01*
X0297742Y0137613D01*
X0297840Y0138029D01*
X0297948Y0138442D01*
X0298065Y0138853D01*
X0298193Y0139260D01*
X0298330Y0139664D01*
X0298478Y0140065D01*
X0298635Y0140462D01*
X0298801Y0140855D01*
X0298977Y0141244D01*
X0299162Y0141629D01*
X0299357Y0142009D01*
X0299561Y0142384D01*
X0299773Y0142754D01*
X0299995Y0143119D01*
X0300226Y0143478D01*
X0300465Y0143832D01*
X0300712Y0144180D01*
X0300968Y0144522D01*
X0301233Y0144857D01*
X0301505Y0145186D01*
X0301785Y0145508D01*
X0302073Y0145823D01*
X0302368Y0146131D01*
X0302671Y0146432D01*
X0302981Y0146726D01*
X0303298Y0147012D01*
X0303622Y0147290D01*
X0303953Y0147560D01*
X0304290Y0147822D01*
X0304633Y0148076D01*
X0304982Y0148322D01*
X0305338Y0148559D01*
X0305698Y0148787D01*
X0306065Y0149006D01*
X0306436Y0149217D01*
X0306813Y0149418D01*
X0307194Y0149610D01*
X0307580Y0149793D01*
X0307970Y0149967D01*
X0308364Y0150131D01*
X0308762Y0150285D01*
X0327061Y0146751D02*
X0327306Y0146497D01*
X0327545Y0146238D01*
X0327778Y0145974D01*
X0328005Y0145704D01*
X0328226Y0145430D01*
X0328441Y0145151D01*
X0328649Y0144866D01*
X0328851Y0144578D01*
X0329046Y0144284D01*
X0329235Y0143987D01*
X0329628Y0123513D02*
X0329349Y0123151D01*
X0329062Y0122795D01*
X0328765Y0122446D01*
X0328461Y0122104D01*
X0328148Y0121770D01*
X0327828Y0121443D01*
X0327500Y0121124D01*
X0327164Y0120813D01*
X0326821Y0120510D01*
X0326470Y0120216D01*
X0326113Y0119930D01*
X0325749Y0119652D01*
X0325378Y0119384D01*
X0325001Y0119124D01*
X0324618Y0118874D01*
X0324229Y0118633D01*
X0323835Y0118401D01*
X0323435Y0118178D01*
X0323029Y0117966D01*
X0322619Y0117763D01*
X0322204Y0117570D01*
X0321785Y0117387D01*
X0321361Y0117214D01*
X0233073Y0173494D02*
X0230711Y0173494D01*
X0233073Y0173494D02*
X0233073Y0176644D01*
X0224412Y0173494D02*
X0222050Y0173494D01*
X0222050Y0176644D01*
X0218073Y0176644D02*
X0218073Y0173494D01*
X0215711Y0173494D01*
X0209412Y0173494D02*
X0207050Y0173494D01*
X0207050Y0176644D01*
X0187748Y0175600D02*
X0187748Y0181900D01*
X0187749Y0181900D02*
X0187735Y0181959D01*
X0187718Y0182017D01*
X0187697Y0182074D01*
X0187673Y0182130D01*
X0187645Y0182184D01*
X0187615Y0182236D01*
X0187581Y0182287D01*
X0187544Y0182335D01*
X0187505Y0182381D01*
X0187462Y0182424D01*
X0187418Y0182465D01*
X0187370Y0182503D01*
X0187321Y0182538D01*
X0187269Y0182570D01*
X0187216Y0182599D01*
X0187161Y0182625D01*
X0187105Y0182647D01*
X0187047Y0182666D01*
X0186988Y0182682D01*
X0186929Y0182693D01*
X0186869Y0182702D01*
X0186808Y0182706D01*
X0186748Y0182707D01*
X0186687Y0182704D01*
X0186627Y0182698D01*
X0186567Y0182688D01*
X0181056Y0182688D02*
X0180994Y0182698D01*
X0180931Y0182704D01*
X0180868Y0182707D01*
X0180805Y0182706D01*
X0180742Y0182700D01*
X0180680Y0182691D01*
X0180618Y0182678D01*
X0180557Y0182661D01*
X0180498Y0182640D01*
X0180440Y0182615D01*
X0180383Y0182587D01*
X0180329Y0182555D01*
X0180276Y0182520D01*
X0180226Y0182482D01*
X0180178Y0182441D01*
X0180133Y0182397D01*
X0180091Y0182350D01*
X0180052Y0182300D01*
X0180016Y0182248D01*
X0179984Y0182194D01*
X0179954Y0182139D01*
X0179929Y0182081D01*
X0179907Y0182022D01*
X0179889Y0181961D01*
X0179874Y0181900D01*
X0179874Y0175600D01*
X0179889Y0175539D01*
X0179907Y0175478D01*
X0179929Y0175419D01*
X0179954Y0175361D01*
X0179984Y0175306D01*
X0180016Y0175252D01*
X0180052Y0175200D01*
X0180091Y0175150D01*
X0180133Y0175103D01*
X0180178Y0175059D01*
X0180226Y0175018D01*
X0180276Y0174980D01*
X0180329Y0174945D01*
X0180383Y0174913D01*
X0180440Y0174885D01*
X0180498Y0174860D01*
X0180557Y0174839D01*
X0180618Y0174822D01*
X0180680Y0174809D01*
X0180742Y0174800D01*
X0180805Y0174794D01*
X0180868Y0174793D01*
X0180931Y0174796D01*
X0180994Y0174802D01*
X0181056Y0174812D01*
X0186567Y0174812D02*
X0186627Y0174802D01*
X0186687Y0174796D01*
X0186748Y0174793D01*
X0186808Y0174794D01*
X0186869Y0174798D01*
X0186929Y0174807D01*
X0186988Y0174818D01*
X0187047Y0174834D01*
X0187105Y0174853D01*
X0187161Y0174875D01*
X0187216Y0174901D01*
X0187269Y0174930D01*
X0187321Y0174962D01*
X0187370Y0174997D01*
X0187418Y0175035D01*
X0187462Y0175076D01*
X0187505Y0175119D01*
X0187544Y0175165D01*
X0187581Y0175213D01*
X0187615Y0175264D01*
X0187645Y0175316D01*
X0187673Y0175370D01*
X0187697Y0175426D01*
X0187718Y0175483D01*
X0187735Y0175541D01*
X0187749Y0175600D01*
D11*
X0130199Y0066181D02*
X0130199Y0063819D01*
X0134924Y0063819D02*
X0134924Y0066181D01*
X0140199Y0068819D02*
X0140199Y0071181D01*
X0144924Y0071181D02*
X0144924Y0068819D01*
X0142561Y0056500D02*
X0132561Y0056500D01*
X0132501Y0056498D01*
X0132440Y0056493D01*
X0132381Y0056484D01*
X0132322Y0056471D01*
X0132263Y0056455D01*
X0132206Y0056435D01*
X0132151Y0056412D01*
X0132096Y0056385D01*
X0132044Y0056356D01*
X0131993Y0056323D01*
X0131944Y0056287D01*
X0131898Y0056249D01*
X0131854Y0056207D01*
X0131812Y0056163D01*
X0131774Y0056117D01*
X0131738Y0056068D01*
X0131705Y0056017D01*
X0131676Y0055965D01*
X0131649Y0055910D01*
X0131626Y0055855D01*
X0131606Y0055798D01*
X0131590Y0055739D01*
X0131577Y0055680D01*
X0131568Y0055621D01*
X0131563Y0055560D01*
X0131561Y0055500D01*
X0131561Y0049500D01*
X0131563Y0049440D01*
X0131568Y0049379D01*
X0131577Y0049320D01*
X0131590Y0049261D01*
X0131606Y0049202D01*
X0131626Y0049145D01*
X0131649Y0049090D01*
X0131676Y0049035D01*
X0131705Y0048983D01*
X0131738Y0048932D01*
X0131774Y0048883D01*
X0131812Y0048837D01*
X0131854Y0048793D01*
X0131898Y0048751D01*
X0131944Y0048713D01*
X0131993Y0048677D01*
X0132044Y0048644D01*
X0132096Y0048615D01*
X0132151Y0048588D01*
X0132206Y0048565D01*
X0132263Y0048545D01*
X0132322Y0048529D01*
X0132381Y0048516D01*
X0132440Y0048507D01*
X0132501Y0048502D01*
X0132561Y0048500D01*
X0142561Y0048500D01*
X0142621Y0048502D01*
X0142682Y0048507D01*
X0142741Y0048516D01*
X0142800Y0048529D01*
X0142859Y0048545D01*
X0142916Y0048565D01*
X0142971Y0048588D01*
X0143026Y0048615D01*
X0143078Y0048644D01*
X0143129Y0048677D01*
X0143178Y0048713D01*
X0143224Y0048751D01*
X0143268Y0048793D01*
X0143310Y0048837D01*
X0143348Y0048883D01*
X0143384Y0048932D01*
X0143417Y0048983D01*
X0143446Y0049035D01*
X0143473Y0049090D01*
X0143496Y0049145D01*
X0143516Y0049202D01*
X0143532Y0049261D01*
X0143545Y0049320D01*
X0143554Y0049379D01*
X0143559Y0049440D01*
X0143561Y0049500D01*
X0143561Y0055500D01*
X0143559Y0055560D01*
X0143554Y0055621D01*
X0143545Y0055680D01*
X0143532Y0055739D01*
X0143516Y0055798D01*
X0143496Y0055855D01*
X0143473Y0055910D01*
X0143446Y0055965D01*
X0143417Y0056017D01*
X0143384Y0056068D01*
X0143348Y0056117D01*
X0143310Y0056163D01*
X0143268Y0056207D01*
X0143224Y0056249D01*
X0143178Y0056287D01*
X0143129Y0056323D01*
X0143078Y0056356D01*
X0143026Y0056385D01*
X0142971Y0056412D01*
X0142916Y0056435D01*
X0142859Y0056455D01*
X0142800Y0056471D01*
X0142741Y0056484D01*
X0142682Y0056493D01*
X0142621Y0056498D01*
X0142561Y0056500D01*
X0230311Y0132000D02*
X0230311Y0138000D01*
X0230313Y0138060D01*
X0230318Y0138121D01*
X0230327Y0138180D01*
X0230340Y0138239D01*
X0230356Y0138298D01*
X0230376Y0138355D01*
X0230399Y0138410D01*
X0230426Y0138465D01*
X0230455Y0138517D01*
X0230488Y0138568D01*
X0230524Y0138617D01*
X0230562Y0138663D01*
X0230604Y0138707D01*
X0230648Y0138749D01*
X0230694Y0138787D01*
X0230743Y0138823D01*
X0230794Y0138856D01*
X0230846Y0138885D01*
X0230901Y0138912D01*
X0230956Y0138935D01*
X0231013Y0138955D01*
X0231072Y0138971D01*
X0231131Y0138984D01*
X0231190Y0138993D01*
X0231251Y0138998D01*
X0231311Y0139000D01*
X0241311Y0139000D01*
X0241371Y0138998D01*
X0241432Y0138993D01*
X0241491Y0138984D01*
X0241550Y0138971D01*
X0241609Y0138955D01*
X0241666Y0138935D01*
X0241721Y0138912D01*
X0241776Y0138885D01*
X0241828Y0138856D01*
X0241879Y0138823D01*
X0241928Y0138787D01*
X0241974Y0138749D01*
X0242018Y0138707D01*
X0242060Y0138663D01*
X0242098Y0138617D01*
X0242134Y0138568D01*
X0242167Y0138517D01*
X0242196Y0138465D01*
X0242223Y0138410D01*
X0242246Y0138355D01*
X0242266Y0138298D01*
X0242282Y0138239D01*
X0242295Y0138180D01*
X0242304Y0138121D01*
X0242309Y0138060D01*
X0242311Y0138000D01*
X0242311Y0132000D01*
X0242309Y0131940D01*
X0242304Y0131879D01*
X0242295Y0131820D01*
X0242282Y0131761D01*
X0242266Y0131702D01*
X0242246Y0131645D01*
X0242223Y0131590D01*
X0242196Y0131535D01*
X0242167Y0131483D01*
X0242134Y0131432D01*
X0242098Y0131383D01*
X0242060Y0131337D01*
X0242018Y0131293D01*
X0241974Y0131251D01*
X0241928Y0131213D01*
X0241879Y0131177D01*
X0241828Y0131144D01*
X0241776Y0131115D01*
X0241721Y0131088D01*
X0241666Y0131065D01*
X0241609Y0131045D01*
X0241550Y0131029D01*
X0241491Y0131016D01*
X0241432Y0131007D01*
X0241371Y0131002D01*
X0241311Y0131000D01*
X0231311Y0131000D01*
X0231251Y0131002D01*
X0231190Y0131007D01*
X0231131Y0131016D01*
X0231072Y0131029D01*
X0231013Y0131045D01*
X0230956Y0131065D01*
X0230901Y0131088D01*
X0230846Y0131115D01*
X0230794Y0131144D01*
X0230743Y0131177D01*
X0230694Y0131213D01*
X0230648Y0131251D01*
X0230604Y0131293D01*
X0230562Y0131337D01*
X0230524Y0131383D01*
X0230488Y0131432D01*
X0230455Y0131483D01*
X0230426Y0131535D01*
X0230399Y0131590D01*
X0230376Y0131645D01*
X0230356Y0131702D01*
X0230340Y0131761D01*
X0230327Y0131820D01*
X0230318Y0131879D01*
X0230313Y0131940D01*
X0230311Y0132000D01*
X0240130Y0145138D02*
X0242493Y0145138D01*
X0242493Y0149862D02*
X0240130Y0149862D01*
X0240130Y0155138D02*
X0242493Y0155138D01*
X0242493Y0159862D02*
X0240130Y0159862D01*
X0224924Y0161319D02*
X0224924Y0163681D01*
X0220199Y0163681D02*
X0220199Y0161319D01*
X0217424Y0161319D02*
X0217424Y0163681D01*
X0212699Y0163681D02*
X0212699Y0161319D01*
X0213743Y0183888D02*
X0211380Y0183888D01*
X0211380Y0188612D02*
X0213743Y0188612D01*
X0226380Y0188612D02*
X0228743Y0188612D01*
X0228743Y0183888D02*
X0226380Y0183888D01*
X0340199Y0169931D02*
X0340199Y0167569D01*
X0344924Y0167569D02*
X0344924Y0169931D01*
X0362699Y0162431D02*
X0362699Y0160069D01*
X0367424Y0160069D02*
X0367424Y0162431D01*
X0344924Y0154931D02*
X0344924Y0152569D01*
X0340199Y0152569D02*
X0340199Y0154931D01*
X0340199Y0142431D02*
X0340199Y0140069D01*
X0344924Y0140069D02*
X0344924Y0142431D01*
X0362699Y0145069D02*
X0362699Y0147431D01*
X0367424Y0147431D02*
X0367424Y0145069D01*
X0367424Y0134931D02*
X0367424Y0132569D01*
X0362699Y0132569D02*
X0362699Y0134931D01*
X0362699Y0122431D02*
X0362699Y0120069D01*
X0367424Y0120069D02*
X0367424Y0122431D01*
D12*
X0352969Y0089454D02*
X0352928Y0089422D01*
X0352888Y0089389D01*
X0352847Y0089357D01*
X0352806Y0089324D01*
X0352765Y0089292D01*
X0352725Y0089259D01*
X0352684Y0089227D01*
X0352643Y0089194D01*
X0352603Y0089162D01*
X0352562Y0089129D01*
X0352522Y0089097D01*
X0352482Y0089064D01*
X0352441Y0089031D01*
X0352401Y0088999D01*
X0352361Y0088966D01*
X0352321Y0088933D01*
X0352281Y0088901D01*
X0352201Y0088835D01*
X0352161Y0088803D01*
X0352121Y0088770D01*
X0352081Y0088737D01*
X0352041Y0088704D01*
X0352001Y0088671D01*
X0351962Y0088638D01*
X0351922Y0088605D01*
X0351882Y0088572D01*
X0351843Y0088539D01*
X0351803Y0088506D01*
X0351764Y0088473D01*
X0351724Y0088440D01*
X0351685Y0088407D01*
X0351606Y0088341D01*
X0351567Y0088308D01*
X0351528Y0088275D01*
X0351489Y0088242D01*
X0351450Y0088209D01*
X0351411Y0088176D01*
X0351372Y0088142D01*
X0351333Y0088109D01*
X0351255Y0088043D01*
X0351216Y0088010D01*
X0351177Y0087976D01*
X0351139Y0087943D01*
X0351100Y0087910D01*
X0351062Y0087876D01*
X0351023Y0087843D01*
X0350984Y0087810D01*
X0350946Y0087776D01*
X0350908Y0087743D01*
X0350869Y0087709D01*
X0350831Y0087676D01*
X0350792Y0087642D01*
X0350754Y0087609D01*
X0350716Y0087575D01*
X0350678Y0087541D01*
X0350640Y0087508D01*
X0350602Y0087474D01*
X0350564Y0087441D01*
X0350526Y0087407D01*
X0350450Y0087340D01*
X0350412Y0087306D01*
X0350374Y0087272D01*
X0350336Y0087239D01*
X0350299Y0087205D01*
X0350261Y0087171D01*
X0350223Y0087137D01*
X0350186Y0087103D01*
X0350111Y0087036D01*
X0350073Y0087002D01*
X0350036Y0086968D01*
X0349998Y0086934D01*
X0349961Y0086900D01*
X0349924Y0086866D01*
X0349887Y0086832D01*
X0349849Y0086798D01*
X0349812Y0086764D01*
X0349775Y0086730D01*
X0349738Y0086696D01*
X0349701Y0086662D01*
X0349664Y0086628D01*
X0349627Y0086593D01*
X0349590Y0086559D01*
X0349553Y0086525D01*
X0349517Y0086491D01*
X0349480Y0086457D01*
X0349443Y0086423D01*
X0349406Y0086388D01*
X0349370Y0086354D01*
X0349333Y0086320D01*
X0349297Y0086285D01*
X0349260Y0086251D01*
X0349061Y0086064D01*
X0348863Y0085875D01*
X0348667Y0085686D01*
X0348472Y0085496D01*
X0348278Y0085306D01*
X0348085Y0085115D01*
X0347893Y0084924D01*
X0347703Y0084731D01*
X0347514Y0084538D01*
X0347324Y0084345D01*
X0347137Y0084151D01*
X0346951Y0083957D01*
X0346765Y0083762D01*
X0346581Y0083566D01*
X0346398Y0083369D01*
X0346215Y0083173D01*
X0346033Y0082975D01*
X0345853Y0082777D01*
X0345673Y0082579D01*
X0345494Y0082379D01*
X0345317Y0082179D01*
X0345139Y0081979D01*
X0344963Y0081778D01*
X0344788Y0081576D01*
X0344613Y0081374D01*
X0344439Y0081172D01*
X0344266Y0080968D01*
X0344094Y0080764D01*
X0343922Y0080560D01*
X0343751Y0080354D01*
X0343581Y0080149D01*
X0343411Y0079943D01*
X0343074Y0079529D01*
X0342907Y0079320D01*
X0342740Y0079112D01*
X0342573Y0078903D01*
X0342407Y0078693D01*
X0342242Y0078482D01*
X0342077Y0078272D01*
X0341913Y0078060D01*
X0341750Y0077848D01*
X0341586Y0077635D01*
X0341423Y0077422D01*
X0341261Y0077208D01*
X0341099Y0076994D01*
X0340937Y0076779D01*
X0340777Y0076564D01*
X0340616Y0076348D01*
X0340455Y0076131D01*
X0340295Y0075914D01*
X0340135Y0075696D01*
X0339976Y0075478D01*
X0339817Y0075259D01*
X0339658Y0075040D01*
X0339499Y0074819D01*
X0339183Y0074378D01*
X0339025Y0074156D01*
X0338867Y0073933D01*
X0338709Y0073711D01*
X0338552Y0073487D01*
X0338395Y0073264D01*
X0338237Y0073039D01*
X0338080Y0072814D01*
X0337923Y0072588D01*
X0337766Y0072362D01*
X0337609Y0072136D01*
X0337452Y0071908D01*
X0337295Y0071680D01*
X0337138Y0071452D01*
X0336981Y0071223D01*
X0336824Y0070994D01*
X0336667Y0070763D01*
X0336510Y0070533D01*
X0336352Y0070302D01*
X0336195Y0070070D01*
X0336037Y0069838D01*
X0335880Y0069605D01*
X0335722Y0069372D01*
X0335564Y0069138D01*
X0335405Y0068904D01*
X0335247Y0068669D01*
X0335088Y0068433D01*
X0334929Y0068197D01*
X0334770Y0067960D01*
X0334610Y0067723D01*
X0334450Y0067486D01*
X0334290Y0067247D01*
X0334129Y0067009D01*
X0333968Y0066770D01*
X0333807Y0066530D01*
X0333645Y0066289D01*
X0333483Y0066048D01*
X0333320Y0065807D01*
X0333157Y0065565D01*
X0332832Y0065091D01*
X0332506Y0064617D01*
X0332181Y0064143D01*
X0331856Y0063669D01*
X0331531Y0063196D01*
X0331205Y0062722D01*
X0330880Y0062248D01*
X0330555Y0061775D01*
X0330230Y0061301D01*
X0329904Y0060827D01*
X0329579Y0060353D01*
X0329254Y0059879D01*
X0328929Y0059406D01*
X0328603Y0058932D01*
X0328278Y0058458D01*
X0327953Y0057984D01*
X0327942Y0057961D01*
X0327931Y0057937D01*
X0327909Y0057890D01*
X0327898Y0057867D01*
X0327887Y0057843D01*
X0327866Y0057795D01*
X0327855Y0057770D01*
X0327844Y0057746D01*
X0327833Y0057722D01*
X0327823Y0057697D01*
X0327812Y0057673D01*
X0327802Y0057648D01*
X0327791Y0057623D01*
X0327781Y0057598D01*
X0327770Y0057574D01*
X0327750Y0057523D01*
X0327740Y0057498D01*
X0327730Y0057473D01*
X0327720Y0057448D01*
X0327710Y0057422D01*
X0327700Y0057397D01*
X0327690Y0057371D01*
X0327680Y0057346D01*
X0327671Y0057320D01*
X0327661Y0057294D01*
X0327652Y0057269D01*
X0327642Y0057243D01*
X0327633Y0057217D01*
X0327624Y0057191D01*
X0327615Y0057165D01*
X0327606Y0057139D01*
X0327597Y0057113D01*
X0327588Y0057087D01*
X0327580Y0057061D01*
X0327571Y0057035D01*
X0327563Y0057009D01*
X0327555Y0056983D01*
X0327546Y0056957D01*
X0327538Y0056931D01*
X0327531Y0056904D01*
X0327523Y0056878D01*
X0327515Y0056852D01*
X0327508Y0056826D01*
X0327500Y0056800D01*
X0327486Y0056748D01*
X0327479Y0056722D01*
X0327472Y0056695D01*
X0327466Y0056669D01*
X0327459Y0056643D01*
X0327453Y0056617D01*
X0327447Y0056591D01*
X0327441Y0056565D01*
X0327435Y0056539D01*
X0327429Y0056513D01*
X0327424Y0056487D01*
X0327419Y0056461D01*
X0327414Y0056435D01*
X0327409Y0056409D01*
X0327404Y0056383D01*
X0327399Y0056357D01*
X0327395Y0056332D01*
X0327387Y0056280D01*
X0327383Y0056255D01*
X0327376Y0056204D01*
X0327372Y0056178D01*
X0327370Y0056153D01*
X0327367Y0056128D01*
X0327364Y0056103D01*
X0327362Y0056078D01*
X0327359Y0056053D01*
X0327358Y0056028D01*
X0327356Y0056003D01*
X0327354Y0055978D01*
X0327353Y0055954D01*
X0327351Y0055905D01*
X0327350Y0055880D01*
X0327350Y0055856D01*
X0327350Y0055832D01*
X0327350Y0055808D01*
X0327350Y0055784D01*
X0327351Y0055760D01*
X0327352Y0055736D01*
X0327353Y0055713D01*
X0327354Y0055689D01*
X0327356Y0055666D01*
X0327358Y0055643D01*
X0327360Y0055620D01*
X0327362Y0055597D01*
X0327365Y0055574D01*
X0327366Y0055570D01*
X0327369Y0055564D01*
X0327375Y0055556D01*
X0327381Y0055548D01*
X0327389Y0055539D01*
X0327411Y0055517D01*
X0327424Y0055505D01*
X0327439Y0055491D01*
X0327455Y0055477D01*
X0327473Y0055462D01*
X0327512Y0055429D01*
X0327534Y0055411D01*
X0327558Y0055392D01*
X0327582Y0055373D01*
X0327607Y0055353D01*
X0327635Y0055332D01*
X0327662Y0055311D01*
X0327691Y0055289D01*
X0327722Y0055266D01*
X0327753Y0055243D01*
X0327785Y0055218D01*
X0327819Y0055194D01*
X0327853Y0055169D01*
X0327888Y0055143D01*
X0327924Y0055116D01*
X0327960Y0055090D01*
X0327998Y0055063D01*
X0328037Y0055035D01*
X0328075Y0055007D01*
X0328115Y0054979D01*
X0328156Y0054950D01*
X0328196Y0054921D01*
X0328238Y0054891D01*
X0328280Y0054862D01*
X0328322Y0054832D01*
X0328365Y0054802D01*
X0328409Y0054772D01*
X0328452Y0054742D01*
X0328497Y0054711D01*
X0328586Y0054649D01*
X0328631Y0054618D01*
X0328676Y0054587D01*
X0328721Y0054556D01*
X0328766Y0054525D01*
X0328857Y0054464D01*
X0328903Y0054433D01*
X0328948Y0054402D01*
X0328993Y0054372D01*
X0329039Y0054341D01*
X0329084Y0054311D01*
X0329129Y0054281D01*
X0329173Y0054252D01*
X0329218Y0054222D01*
X0329262Y0054193D01*
X0329306Y0054164D01*
X0329349Y0054136D01*
X0329392Y0054108D01*
X0329435Y0054080D01*
X0329477Y0054053D01*
X0329519Y0054026D01*
X0329560Y0053999D01*
X0329640Y0053948D01*
X0329679Y0053923D01*
X0329717Y0053900D01*
X0329756Y0053876D01*
X0329793Y0053852D01*
X0329828Y0053830D01*
X0329864Y0053808D01*
X0329898Y0053787D01*
X0329931Y0053767D01*
X0329964Y0053747D01*
X0329996Y0053729D01*
X0330026Y0053711D01*
X0330056Y0053694D01*
X0330084Y0053677D01*
X0330110Y0053662D01*
X0330137Y0053647D01*
X0330162Y0053634D01*
X0330185Y0053622D01*
X0330207Y0053610D01*
X0330228Y0053599D01*
X0330247Y0053590D01*
X0330265Y0053581D01*
X0330282Y0053574D01*
X0330296Y0053568D01*
X0330311Y0053562D01*
X0330323Y0053558D01*
X0330332Y0053556D01*
X0330342Y0053554D01*
X0330349Y0053553D01*
X0330353Y0053555D01*
X0330377Y0053563D01*
X0330400Y0053571D01*
X0330423Y0053579D01*
X0330447Y0053588D01*
X0330470Y0053597D01*
X0330493Y0053606D01*
X0330516Y0053615D01*
X0330540Y0053625D01*
X0330563Y0053635D01*
X0330587Y0053645D01*
X0330610Y0053655D01*
X0330633Y0053665D01*
X0330657Y0053676D01*
X0330680Y0053687D01*
X0330703Y0053698D01*
X0330727Y0053709D01*
X0330750Y0053720D01*
X0330773Y0053732D01*
X0330797Y0053744D01*
X0330820Y0053756D01*
X0330843Y0053768D01*
X0330867Y0053780D01*
X0330890Y0053793D01*
X0330913Y0053805D01*
X0330936Y0053818D01*
X0330959Y0053831D01*
X0330983Y0053844D01*
X0331006Y0053857D01*
X0331029Y0053871D01*
X0331052Y0053885D01*
X0331075Y0053898D01*
X0331098Y0053912D01*
X0331120Y0053926D01*
X0331143Y0053940D01*
X0331189Y0053969D01*
X0331212Y0053984D01*
X0331234Y0053998D01*
X0331257Y0054013D01*
X0331279Y0054028D01*
X0331302Y0054043D01*
X0331324Y0054058D01*
X0331346Y0054073D01*
X0331368Y0054089D01*
X0331391Y0054104D01*
X0331413Y0054120D01*
X0331435Y0054135D01*
X0331457Y0054151D01*
X0331478Y0054167D01*
X0331500Y0054183D01*
X0331522Y0054199D01*
X0331543Y0054215D01*
X0331565Y0054231D01*
X0331586Y0054247D01*
X0331607Y0054264D01*
X0331629Y0054280D01*
X0331649Y0054297D01*
X0331670Y0054313D01*
X0331691Y0054330D01*
X0331712Y0054346D01*
X0331733Y0054363D01*
X0331753Y0054380D01*
X0331774Y0054396D01*
X0331794Y0054413D01*
X0331814Y0054430D01*
X0331854Y0054464D01*
X0331874Y0054481D01*
X0331913Y0054515D01*
X0331932Y0054532D01*
X0331952Y0054549D01*
X0331971Y0054566D01*
X0331990Y0054583D01*
X0332027Y0054617D01*
X0332046Y0054634D01*
X0332064Y0054651D01*
X0332082Y0054668D01*
X0332100Y0054685D01*
X0332118Y0054702D01*
X0332136Y0054719D01*
X0332154Y0054736D01*
X0332171Y0054753D01*
X0332188Y0054770D01*
X0332205Y0054787D01*
X0332222Y0054804D01*
X0332239Y0054821D01*
X0332255Y0054838D01*
X0332272Y0054855D01*
X0332288Y0054871D01*
X0332304Y0054888D01*
X0332320Y0054905D01*
X0332336Y0054921D01*
X0332351Y0054938D01*
X0332366Y0054954D01*
X0332454Y0054920D01*
X0332542Y0054886D01*
X0332630Y0054853D01*
X0332717Y0054818D01*
X0332805Y0054784D01*
X0332981Y0054717D01*
X0333069Y0054682D01*
X0333157Y0054648D01*
X0333244Y0054614D01*
X0333332Y0054581D01*
X0333420Y0054546D01*
X0333508Y0054512D01*
X0333596Y0054478D01*
X0333684Y0054445D01*
X0333771Y0054410D01*
X0333859Y0054376D01*
X0334035Y0054309D01*
X0334123Y0054274D01*
X0334211Y0054240D01*
X0334298Y0054206D01*
X0334386Y0054173D01*
X0334474Y0054138D01*
X0334562Y0054104D01*
X0334650Y0054070D01*
X0334738Y0054037D01*
X0334825Y0054002D01*
X0334913Y0053968D01*
X0335001Y0053934D01*
X0335089Y0053900D01*
X0335177Y0053866D01*
X0335180Y0053865D01*
X0335183Y0053863D01*
X0335186Y0053863D01*
X0335189Y0053861D01*
X0335193Y0053860D01*
X0335196Y0053859D01*
X0335199Y0053858D01*
X0335202Y0053857D01*
X0335205Y0053857D01*
X0335208Y0053856D01*
X0335212Y0053855D01*
X0335215Y0053855D01*
X0335218Y0053854D01*
X0335221Y0053853D01*
X0335225Y0053853D01*
X0335228Y0053852D01*
X0335231Y0053851D01*
X0335234Y0053851D01*
X0335237Y0053851D01*
X0335241Y0053850D01*
X0335244Y0053850D01*
X0335247Y0053850D01*
X0335250Y0053849D01*
X0335253Y0053849D01*
X0335257Y0053849D01*
X0335260Y0053849D01*
X0335276Y0053849D01*
X0335279Y0053849D01*
X0335282Y0053849D01*
X0335285Y0053849D01*
X0335288Y0053850D01*
X0335291Y0053850D01*
X0335294Y0053850D01*
X0335297Y0053851D01*
X0335300Y0053851D01*
X0335303Y0053851D01*
X0335306Y0053852D01*
X0335315Y0053853D01*
X0335318Y0053854D01*
X0335324Y0053856D01*
X0335327Y0053856D01*
X0335330Y0053857D01*
X0335333Y0053858D01*
X0335336Y0053859D01*
X0335339Y0053860D01*
X0335342Y0053861D01*
X0335345Y0053862D01*
X0335347Y0053863D01*
X0335350Y0053864D01*
X0335353Y0053865D01*
X0335356Y0053866D01*
X0335359Y0053867D01*
X0335361Y0053868D01*
X0335364Y0053869D01*
X0335367Y0053871D01*
X0335369Y0053872D01*
X0335372Y0053874D01*
X0335375Y0053875D01*
X0335377Y0053876D01*
X0335380Y0053878D01*
X0335382Y0053879D01*
X0335385Y0053881D01*
X0335388Y0053882D01*
X0335390Y0053884D01*
X0335393Y0053886D01*
X0335395Y0053888D01*
X0335397Y0053889D01*
X0335400Y0053891D01*
X0335402Y0053893D01*
X0335405Y0053894D01*
X0335407Y0053896D01*
X0335411Y0053900D01*
X0335414Y0053902D01*
X0335416Y0053904D01*
X0335418Y0053906D01*
X0335422Y0053911D01*
X0335424Y0053912D01*
X0335426Y0053915D01*
X0335428Y0053917D01*
X0335430Y0053919D01*
X0335432Y0053922D01*
X0335436Y0053926D01*
X0335438Y0053929D01*
X0335440Y0053931D01*
X0335442Y0053934D01*
X0335443Y0053936D01*
X0335498Y0054015D01*
X0335552Y0054094D01*
X0335606Y0054172D01*
X0335660Y0054251D01*
X0335714Y0054329D01*
X0335768Y0054408D01*
X0335823Y0054487D01*
X0335985Y0054722D01*
X0336039Y0054801D01*
X0336094Y0054880D01*
X0336148Y0054958D01*
X0336202Y0055037D01*
X0336256Y0055116D01*
X0336310Y0055194D01*
X0336364Y0055273D01*
X0336418Y0055351D01*
X0336473Y0055430D01*
X0336581Y0055587D01*
X0336635Y0055666D01*
X0336689Y0055745D01*
X0336744Y0055823D01*
X0336798Y0055902D01*
X0336852Y0055980D01*
X0336960Y0056138D01*
X0337014Y0056216D01*
X0337069Y0056295D01*
X0337123Y0056373D01*
X0337177Y0056452D01*
X0337178Y0056453D01*
X0337179Y0056454D01*
X0337179Y0056456D01*
X0337181Y0056458D01*
X0337182Y0056460D01*
X0337183Y0056461D01*
X0337183Y0056462D01*
X0337184Y0056463D01*
X0337186Y0056466D01*
X0337187Y0056469D01*
X0337188Y0056470D01*
X0337189Y0056471D01*
X0337189Y0056473D01*
X0337190Y0056474D01*
X0337191Y0056475D01*
X0337191Y0056476D01*
X0337192Y0056478D01*
X0337193Y0056481D01*
X0337194Y0056482D01*
X0337195Y0056483D01*
X0337195Y0056485D01*
X0337196Y0056488D01*
X0337197Y0056489D01*
X0337197Y0056490D01*
X0337199Y0056493D01*
X0337200Y0056496D01*
X0337200Y0056498D01*
X0337201Y0056499D01*
X0337201Y0056500D01*
X0337202Y0056502D01*
X0337202Y0056503D01*
X0337202Y0056505D01*
X0337203Y0056506D01*
X0337203Y0056508D01*
X0337204Y0056511D01*
X0337205Y0056512D01*
X0337205Y0056513D01*
X0337206Y0056516D01*
X0337206Y0056518D01*
X0337206Y0056519D01*
X0337207Y0056521D01*
X0337207Y0056522D01*
X0337208Y0056525D01*
X0337208Y0056527D01*
X0337208Y0056528D01*
X0337208Y0056530D01*
X0337209Y0056531D01*
X0337209Y0056534D01*
X0337209Y0056536D01*
X0337210Y0056537D01*
X0337210Y0056539D01*
X0337210Y0056542D01*
X0337210Y0056543D01*
X0337211Y0056547D01*
X0337211Y0056548D01*
X0337211Y0056550D01*
X0337211Y0056551D01*
X0337211Y0056552D01*
X0337211Y0056554D01*
X0337211Y0056556D01*
X0337211Y0056557D01*
X0337211Y0056562D01*
X0337211Y0056565D01*
X0337211Y0056567D01*
X0337211Y0056568D01*
X0337211Y0056570D01*
X0337211Y0056571D01*
X0337211Y0056573D01*
X0337211Y0056575D01*
X0337211Y0056576D01*
X0337211Y0056577D01*
X0337211Y0056579D01*
X0337211Y0056580D01*
X0337211Y0056582D01*
X0337211Y0056584D01*
X0337211Y0056585D01*
X0337210Y0056587D01*
X0337210Y0056588D01*
X0337210Y0056590D01*
X0337210Y0056592D01*
X0337221Y0056777D01*
X0337232Y0056963D01*
X0337243Y0057149D01*
X0337254Y0057335D01*
X0337265Y0057521D01*
X0337276Y0057707D01*
X0337287Y0057893D01*
X0337298Y0058079D01*
X0337309Y0058265D01*
X0337331Y0058636D01*
X0337342Y0058822D01*
X0337353Y0059008D01*
X0337364Y0059194D01*
X0337375Y0059380D01*
X0337387Y0059566D01*
X0337398Y0059752D01*
X0337409Y0059937D01*
X0337420Y0060123D01*
X0337431Y0060309D01*
X0337442Y0060495D01*
X0337453Y0060681D01*
X0337464Y0060867D01*
X0337475Y0061053D01*
X0337486Y0061239D01*
X0337508Y0061610D01*
X0337519Y0061796D01*
X0337530Y0061982D01*
X0337541Y0062168D01*
X0337552Y0062354D01*
X0337563Y0062540D01*
X0337235Y0062061D01*
X0336578Y0061104D01*
X0336249Y0060625D01*
X0335921Y0060147D01*
X0335592Y0059668D01*
X0335264Y0059190D01*
X0334935Y0058711D01*
X0334607Y0058233D01*
X0334278Y0057754D01*
X0333949Y0057276D01*
X0333621Y0056797D01*
X0332635Y0055361D01*
X0332307Y0054883D01*
X0332307Y0054873D02*
X0332635Y0055352D01*
X0332964Y0055830D01*
X0333292Y0056309D01*
X0333621Y0056787D01*
X0333949Y0057266D01*
X0334278Y0057745D01*
X0334607Y0058223D01*
X0334935Y0058702D01*
X0335264Y0059180D01*
X0335921Y0060137D01*
X0336249Y0060616D01*
X0336578Y0061094D01*
X0336906Y0061573D01*
X0337235Y0062052D01*
X0337563Y0062530D01*
X0337563Y0062530D01*
X0337552Y0062344D01*
X0337541Y0062159D01*
X0337530Y0061973D01*
X0337519Y0061787D01*
X0337508Y0061601D01*
X0337497Y0061415D01*
X0337486Y0061229D01*
X0337475Y0061043D01*
X0337464Y0060857D01*
X0337453Y0060671D01*
X0337442Y0060486D01*
X0337431Y0060300D01*
X0337420Y0060114D01*
X0337409Y0059928D01*
X0337398Y0059742D01*
X0337387Y0059556D01*
X0337375Y0059370D01*
X0337364Y0059184D01*
X0337353Y0058999D01*
X0337342Y0058813D01*
X0337331Y0058627D01*
X0337320Y0058441D01*
X0337309Y0058255D01*
X0337298Y0058069D01*
X0337287Y0057883D01*
X0337276Y0057697D01*
X0337265Y0057512D01*
X0337254Y0057326D01*
X0337243Y0057140D01*
X0337232Y0056954D01*
X0337221Y0056768D01*
X0337210Y0056582D01*
X0337210Y0056581D01*
X0337210Y0056579D01*
X0337210Y0056577D01*
X0337211Y0056576D01*
X0337211Y0056574D01*
X0337211Y0056571D01*
X0337211Y0056569D01*
X0337211Y0056563D01*
X0337211Y0056562D01*
X0337211Y0056560D01*
X0337211Y0056554D01*
X0337211Y0056552D01*
X0337211Y0056548D01*
X0337211Y0056546D01*
X0337211Y0056545D01*
X0337211Y0056543D01*
X0337211Y0056542D01*
X0337211Y0056540D01*
X0337211Y0056538D01*
X0337211Y0056537D01*
X0337210Y0056535D01*
X0337210Y0056534D01*
X0337210Y0056532D01*
X0337210Y0056531D01*
X0337210Y0056529D01*
X0337209Y0056528D01*
X0337209Y0056526D01*
X0337209Y0056525D01*
X0337209Y0056523D01*
X0337209Y0056522D01*
X0337208Y0056520D01*
X0337208Y0056519D01*
X0337208Y0056517D01*
X0337208Y0056516D01*
X0337207Y0056514D01*
X0337207Y0056512D01*
X0337206Y0056510D01*
X0337206Y0056508D01*
X0337206Y0056507D01*
X0337205Y0056505D01*
X0337205Y0056504D01*
X0337205Y0056502D01*
X0337204Y0056501D01*
X0337204Y0056500D01*
X0337203Y0056498D01*
X0337203Y0056497D01*
X0337201Y0056491D01*
X0337201Y0056489D01*
X0337199Y0056485D01*
X0337198Y0056484D01*
X0337198Y0056482D01*
X0337197Y0056481D01*
X0337197Y0056480D01*
X0337196Y0056478D01*
X0337196Y0056477D01*
X0337195Y0056476D01*
X0337194Y0056474D01*
X0337194Y0056473D01*
X0337193Y0056471D01*
X0337192Y0056470D01*
X0337192Y0056469D01*
X0337191Y0056467D01*
X0337191Y0056466D01*
X0337190Y0056464D01*
X0337189Y0056463D01*
X0337189Y0056462D01*
X0337188Y0056460D01*
X0337187Y0056459D01*
X0337186Y0056458D01*
X0337186Y0056456D01*
X0337185Y0056455D01*
X0337184Y0056454D01*
X0337183Y0056452D01*
X0337183Y0056451D01*
X0337182Y0056450D01*
X0337181Y0056449D01*
X0337180Y0056447D01*
X0337179Y0056446D01*
X0337179Y0056445D01*
X0337178Y0056444D01*
X0337177Y0056442D01*
X0337123Y0056364D01*
X0337069Y0056285D01*
X0337014Y0056207D01*
X0336960Y0056128D01*
X0336852Y0055971D01*
X0336798Y0055892D01*
X0336689Y0055735D01*
X0336635Y0055656D01*
X0336581Y0055578D01*
X0336527Y0055499D01*
X0336473Y0055420D01*
X0336418Y0055342D01*
X0336364Y0055263D01*
X0336310Y0055185D01*
X0336256Y0055106D01*
X0336202Y0055027D01*
X0336148Y0054949D01*
X0336094Y0054870D01*
X0336039Y0054792D01*
X0335985Y0054713D01*
X0335931Y0054634D01*
X0335823Y0054477D01*
X0335768Y0054398D01*
X0335714Y0054320D01*
X0335660Y0054241D01*
X0335606Y0054163D01*
X0335552Y0054084D01*
X0335498Y0054005D01*
X0335443Y0053927D01*
X0335442Y0053924D01*
X0335440Y0053922D01*
X0335438Y0053919D01*
X0335436Y0053917D01*
X0335434Y0053914D01*
X0335432Y0053912D01*
X0335430Y0053910D01*
X0335428Y0053907D01*
X0335426Y0053905D01*
X0335424Y0053903D01*
X0335422Y0053901D01*
X0335418Y0053897D01*
X0335416Y0053895D01*
X0335414Y0053893D01*
X0335411Y0053891D01*
X0335407Y0053887D01*
X0335405Y0053885D01*
X0335402Y0053883D01*
X0335400Y0053881D01*
X0335397Y0053879D01*
X0335395Y0053878D01*
X0335393Y0053876D01*
X0335390Y0053875D01*
X0335388Y0053873D01*
X0335385Y0053871D01*
X0335382Y0053870D01*
X0335380Y0053868D01*
X0335377Y0053867D01*
X0335375Y0053865D01*
X0335369Y0053863D01*
X0335367Y0053861D01*
X0335361Y0053859D01*
X0335359Y0053857D01*
X0335356Y0053856D01*
X0335353Y0053855D01*
X0335350Y0053854D01*
X0335347Y0053853D01*
X0335345Y0053852D01*
X0335342Y0053851D01*
X0335336Y0053849D01*
X0335333Y0053848D01*
X0335330Y0053847D01*
X0335327Y0053847D01*
X0335324Y0053846D01*
X0335321Y0053845D01*
X0335315Y0053844D01*
X0335303Y0053842D01*
X0335300Y0053841D01*
X0335297Y0053841D01*
X0335294Y0053840D01*
X0335291Y0053840D01*
X0335288Y0053840D01*
X0335285Y0053839D01*
X0335282Y0053839D01*
X0335279Y0053839D01*
X0335266Y0053839D01*
X0335263Y0053839D01*
X0335257Y0053839D01*
X0335253Y0053840D01*
X0335250Y0053840D01*
X0335247Y0053840D01*
X0335244Y0053840D01*
X0335241Y0053841D01*
X0335234Y0053842D01*
X0335231Y0053842D01*
X0335228Y0053843D01*
X0335225Y0053843D01*
X0335221Y0053844D01*
X0335218Y0053845D01*
X0335215Y0053845D01*
X0335212Y0053846D01*
X0335208Y0053847D01*
X0335205Y0053848D01*
X0335202Y0053848D01*
X0335199Y0053849D01*
X0335196Y0053850D01*
X0335193Y0053851D01*
X0335189Y0053852D01*
X0335186Y0053853D01*
X0335183Y0053854D01*
X0335180Y0053856D01*
X0335177Y0053857D01*
X0335089Y0053891D01*
X0335001Y0053925D01*
X0334913Y0053959D01*
X0334825Y0053993D01*
X0334738Y0054027D01*
X0334650Y0054061D01*
X0334562Y0054095D01*
X0334474Y0054129D01*
X0334386Y0054163D01*
X0334298Y0054197D01*
X0334211Y0054231D01*
X0334123Y0054265D01*
X0334035Y0054299D01*
X0333859Y0054367D01*
X0333771Y0054401D01*
X0333684Y0054435D01*
X0333596Y0054469D01*
X0333508Y0054503D01*
X0333420Y0054537D01*
X0333332Y0054571D01*
X0333244Y0054605D01*
X0333157Y0054639D01*
X0333069Y0054673D01*
X0332981Y0054707D01*
X0332805Y0054775D01*
X0332717Y0054809D01*
X0332630Y0054843D01*
X0332542Y0054877D01*
X0332454Y0054911D01*
X0332366Y0054945D01*
X0332366Y0054945D01*
X0332366Y0054945D01*
X0332366Y0054945D01*
X0332366Y0054944D01*
X0332366Y0054944D01*
X0332366Y0054944D01*
X0332365Y0054944D01*
X0332365Y0054944D01*
X0332365Y0054944D01*
X0332365Y0054944D01*
X0332365Y0054944D01*
X0332365Y0054943D01*
X0332365Y0054943D01*
X0332365Y0054943D01*
X0332364Y0054943D01*
X0332364Y0054943D01*
X0332364Y0054943D01*
X0332364Y0054943D01*
X0332364Y0054942D01*
X0332364Y0054942D01*
X0332364Y0054942D01*
X0332364Y0054942D01*
X0332363Y0054942D01*
X0332363Y0054942D01*
X0332363Y0054941D01*
X0332363Y0054941D01*
X0332363Y0054941D01*
X0332363Y0054941D01*
X0332362Y0054941D01*
X0332362Y0054941D01*
X0332362Y0054940D01*
X0332362Y0054940D01*
X0332362Y0054940D01*
X0332362Y0054940D01*
X0332361Y0054940D01*
X0332361Y0054940D01*
X0332361Y0054940D01*
X0332361Y0054939D01*
X0332361Y0054939D01*
X0332361Y0054939D01*
X0332361Y0054939D01*
X0332360Y0054939D01*
X0332360Y0054938D01*
X0332360Y0054938D01*
X0332360Y0054938D01*
X0332360Y0054938D01*
X0332360Y0054938D01*
X0332360Y0054938D01*
X0332359Y0054937D01*
X0332359Y0054937D01*
X0332359Y0054937D01*
X0332359Y0054937D01*
X0332362Y0054940D02*
X0332362Y0054940D01*
X0332362Y0054941D02*
X0332362Y0054941D01*
X0332363Y0054941D02*
X0332363Y0054941D01*
X0332349Y0054853D02*
X0332437Y0054818D01*
X0332525Y0054784D01*
X0332612Y0054750D01*
X0332700Y0054717D01*
X0332788Y0054682D01*
X0332876Y0054648D01*
X0332964Y0054614D01*
X0333051Y0054581D01*
X0333139Y0054546D01*
X0333227Y0054512D01*
X0333315Y0054478D01*
X0333403Y0054445D01*
X0333491Y0054410D01*
X0333578Y0054376D01*
X0333666Y0054342D01*
X0333754Y0054309D01*
X0333842Y0054274D01*
X0333930Y0054240D01*
X0334018Y0054206D01*
X0334105Y0054173D01*
X0334193Y0054138D01*
X0334281Y0054104D01*
X0334369Y0054070D01*
X0334457Y0054037D01*
X0334545Y0054002D01*
X0334632Y0053968D01*
X0334720Y0053934D01*
X0334808Y0053900D01*
X0334896Y0053866D01*
X0334899Y0053865D01*
X0334902Y0053863D01*
X0334905Y0053863D01*
X0334908Y0053861D01*
X0334912Y0053860D01*
X0334918Y0053858D01*
X0334921Y0053857D01*
X0334925Y0053857D01*
X0334928Y0053856D01*
X0334931Y0053855D01*
X0334934Y0053855D01*
X0334937Y0053854D01*
X0334941Y0053853D01*
X0334944Y0053853D01*
X0334947Y0053852D01*
X0334950Y0053851D01*
X0334957Y0053851D01*
X0334960Y0053850D01*
X0334963Y0053850D01*
X0334966Y0053850D01*
X0334969Y0053849D01*
X0334973Y0053849D01*
X0334976Y0053849D01*
X0334979Y0053849D01*
X0334995Y0053849D01*
X0334998Y0053849D01*
X0335001Y0053849D01*
X0335004Y0053849D01*
X0335007Y0053850D01*
X0335010Y0053850D01*
X0335013Y0053850D01*
X0335016Y0053851D01*
X0335023Y0053851D01*
X0335026Y0053852D01*
X0335029Y0053852D01*
X0335032Y0053853D01*
X0335035Y0053853D01*
X0335038Y0053854D01*
X0335044Y0053856D01*
X0335047Y0053856D01*
X0335049Y0053857D01*
X0335052Y0053858D01*
X0335055Y0053859D01*
X0335058Y0053860D01*
X0335064Y0053862D01*
X0335067Y0053863D01*
X0335070Y0053864D01*
X0335072Y0053865D01*
X0335075Y0053866D01*
X0335078Y0053867D01*
X0335081Y0053868D01*
X0335083Y0053869D01*
X0335086Y0053871D01*
X0335091Y0053874D01*
X0335094Y0053875D01*
X0335097Y0053876D01*
X0335099Y0053878D01*
X0335102Y0053879D01*
X0335104Y0053881D01*
X0335107Y0053882D01*
X0335109Y0053884D01*
X0335112Y0053886D01*
X0335114Y0053888D01*
X0335117Y0053889D01*
X0335119Y0053891D01*
X0335122Y0053893D01*
X0335124Y0053894D01*
X0335128Y0053898D01*
X0335131Y0053900D01*
X0335133Y0053902D01*
X0335135Y0053904D01*
X0335137Y0053906D01*
X0335141Y0053911D01*
X0335144Y0053912D01*
X0335146Y0053915D01*
X0335148Y0053917D01*
X0335150Y0053919D01*
X0335152Y0053922D01*
X0335154Y0053924D01*
X0335156Y0053926D01*
X0335157Y0053929D01*
X0335159Y0053931D01*
X0335161Y0053934D01*
X0335163Y0053936D01*
X0335217Y0054015D01*
X0335271Y0054094D01*
X0335325Y0054172D01*
X0335379Y0054251D01*
X0335434Y0054329D01*
X0335488Y0054408D01*
X0335542Y0054487D01*
X0335596Y0054565D01*
X0335650Y0054644D01*
X0335704Y0054722D01*
X0335759Y0054801D01*
X0335813Y0054880D01*
X0335867Y0054958D01*
X0335921Y0055037D01*
X0335975Y0055116D01*
X0336084Y0055273D01*
X0336138Y0055351D01*
X0336192Y0055430D01*
X0336246Y0055509D01*
X0336300Y0055587D01*
X0336354Y0055666D01*
X0336408Y0055745D01*
X0336463Y0055823D01*
X0336517Y0055902D01*
X0336571Y0055980D01*
X0336679Y0056138D01*
X0336734Y0056216D01*
X0336788Y0056295D01*
X0336842Y0056373D01*
X0336896Y0056452D01*
X0336897Y0056453D01*
X0336898Y0056454D01*
X0336898Y0056456D01*
X0336900Y0056458D01*
X0336901Y0056460D01*
X0336902Y0056461D01*
X0336903Y0056462D01*
X0336903Y0056463D01*
X0336905Y0056466D01*
X0336906Y0056469D01*
X0336907Y0056470D01*
X0336908Y0056471D01*
X0336908Y0056473D01*
X0336909Y0056474D01*
X0336910Y0056475D01*
X0336911Y0056476D01*
X0336911Y0056478D01*
X0336912Y0056481D01*
X0336913Y0056482D01*
X0336914Y0056483D01*
X0336914Y0056485D01*
X0336915Y0056488D01*
X0336916Y0056489D01*
X0336917Y0056490D01*
X0336918Y0056493D01*
X0336919Y0056496D01*
X0336919Y0056498D01*
X0336920Y0056499D01*
X0336920Y0056500D01*
X0336921Y0056502D01*
X0336921Y0056503D01*
X0336922Y0056505D01*
X0336922Y0056506D01*
X0336923Y0056508D01*
X0336923Y0056511D01*
X0336924Y0056512D01*
X0336924Y0056513D01*
X0336925Y0056515D01*
X0336925Y0056516D01*
X0336925Y0056518D01*
X0336926Y0056519D01*
X0336926Y0056521D01*
X0336926Y0056522D01*
X0336927Y0056524D01*
X0336927Y0056525D01*
X0336927Y0056527D01*
X0336927Y0056528D01*
X0336928Y0056530D01*
X0336928Y0056531D01*
X0336928Y0056533D01*
X0336929Y0056534D01*
X0336929Y0056537D01*
X0336929Y0056539D01*
X0336929Y0056540D01*
X0336929Y0056542D01*
X0336930Y0056543D01*
X0336930Y0056545D01*
X0336930Y0056547D01*
X0336930Y0056551D01*
X0336930Y0056552D01*
X0336930Y0056554D01*
X0336931Y0056556D01*
X0336931Y0056557D01*
X0336931Y0056562D01*
X0336931Y0056563D01*
X0336931Y0056569D01*
X0336931Y0056571D01*
X0336931Y0056574D01*
X0336931Y0056576D01*
X0336930Y0056577D01*
X0336930Y0056579D01*
X0336930Y0056580D01*
X0336930Y0056584D01*
X0336930Y0056585D01*
X0336930Y0056587D01*
X0336929Y0056588D01*
X0336929Y0056590D01*
X0336929Y0056592D01*
X0336940Y0056777D01*
X0336962Y0057149D01*
X0336973Y0057335D01*
X0336984Y0057521D01*
X0336995Y0057707D01*
X0337006Y0057893D01*
X0337017Y0058079D01*
X0337028Y0058265D01*
X0337040Y0058450D01*
X0337051Y0058636D01*
X0337062Y0058822D01*
X0337073Y0059008D01*
X0337084Y0059194D01*
X0337095Y0059380D01*
X0337106Y0059566D01*
X0337117Y0059752D01*
X0337128Y0059937D01*
X0337139Y0060123D01*
X0337150Y0060309D01*
X0337161Y0060495D01*
X0337172Y0060681D01*
X0337183Y0060867D01*
X0337194Y0061053D01*
X0337205Y0061239D01*
X0337216Y0061424D01*
X0337227Y0061610D01*
X0337239Y0061796D01*
X0337250Y0061982D01*
X0337261Y0062168D01*
X0337272Y0062354D01*
X0337283Y0062540D01*
X0337487Y0062826D01*
X0337690Y0063111D01*
X0337892Y0063395D01*
X0338095Y0063678D01*
X0338296Y0063961D01*
X0338496Y0064242D01*
X0338697Y0064523D01*
X0338896Y0064803D01*
X0339094Y0065083D01*
X0339293Y0065362D01*
X0339490Y0065640D01*
X0339882Y0066195D01*
X0340077Y0066471D01*
X0340271Y0066746D01*
X0340465Y0067022D01*
X0340658Y0067297D01*
X0340849Y0067571D01*
X0341041Y0067845D01*
X0341232Y0068118D01*
X0341421Y0068391D01*
X0341610Y0068664D01*
X0341798Y0068936D01*
X0341985Y0069208D01*
X0342172Y0069480D01*
X0342357Y0069751D01*
X0342541Y0070022D01*
X0342725Y0070293D01*
X0342908Y0070563D01*
X0343090Y0070834D01*
X0343272Y0071104D01*
X0343452Y0071374D01*
X0343631Y0071644D01*
X0343809Y0071914D01*
X0343987Y0072183D01*
X0344163Y0072453D01*
X0344339Y0072723D01*
X0344514Y0072992D01*
X0344687Y0073262D01*
X0344860Y0073532D01*
X0345032Y0073802D01*
X0345202Y0074072D01*
X0345372Y0074341D01*
X0345541Y0074612D01*
X0345708Y0074882D01*
X0345875Y0075153D01*
X0346041Y0075423D01*
X0346205Y0075695D01*
X0346369Y0075966D01*
X0346531Y0076237D01*
X0346692Y0076509D01*
X0346853Y0076781D01*
X0347012Y0077054D01*
X0347170Y0077327D01*
X0347327Y0077600D01*
X0347483Y0077874D01*
X0347637Y0078148D01*
X0347791Y0078423D01*
X0347943Y0078698D01*
X0348094Y0078974D01*
X0348245Y0079250D01*
X0348394Y0079527D01*
X0348541Y0079805D01*
X0348688Y0080082D01*
X0348833Y0080361D01*
X0348977Y0080641D01*
X0349120Y0080921D01*
X0349262Y0081201D01*
X0349402Y0081483D01*
X0349541Y0081765D01*
X0349679Y0082048D01*
X0349815Y0082333D01*
X0349951Y0082617D01*
X0350085Y0082903D01*
X0350217Y0083190D01*
X0350349Y0083477D01*
X0350480Y0083765D01*
X0350608Y0084055D01*
X0350736Y0084345D01*
X0350862Y0084636D01*
X0350986Y0084929D01*
X0351110Y0085222D01*
X0351232Y0085516D01*
X0351472Y0086108D01*
X0351590Y0086406D01*
X0351706Y0086706D01*
X0351821Y0087006D01*
X0351935Y0087307D01*
X0352046Y0087610D01*
X0352158Y0087913D01*
X0352267Y0088219D01*
X0352374Y0088526D01*
X0352481Y0088833D01*
X0352586Y0089143D01*
X0352689Y0089454D01*
X0352424Y0089245D01*
X0352163Y0089034D01*
X0351904Y0088822D01*
X0351646Y0088611D01*
X0351391Y0088398D01*
X0351139Y0088183D01*
X0350887Y0087969D01*
X0350637Y0087753D01*
X0350391Y0087536D01*
X0350145Y0087319D01*
X0349901Y0087101D01*
X0349660Y0086882D01*
X0349419Y0086662D01*
X0349181Y0086441D01*
X0348946Y0086219D01*
X0348710Y0085997D01*
X0348477Y0085774D01*
X0348246Y0085549D01*
X0348016Y0085325D01*
X0347787Y0085099D01*
X0347562Y0084872D01*
X0347336Y0084645D01*
X0347112Y0084416D01*
X0346891Y0084187D01*
X0346670Y0083957D01*
X0346450Y0083726D01*
X0346233Y0083494D01*
X0346016Y0083262D01*
X0345801Y0083029D01*
X0345588Y0082794D01*
X0345374Y0082559D01*
X0345163Y0082323D01*
X0344953Y0082086D01*
X0344744Y0081849D01*
X0344536Y0081611D01*
X0344124Y0081132D01*
X0343919Y0080891D01*
X0343513Y0080407D01*
X0343312Y0080164D01*
X0343112Y0079919D01*
X0342911Y0079675D01*
X0342713Y0079429D01*
X0342515Y0079182D01*
X0342318Y0078935D01*
X0342122Y0078687D01*
X0341926Y0078438D01*
X0341731Y0078189D01*
X0341537Y0077938D01*
X0341344Y0077686D01*
X0341151Y0077434D01*
X0340959Y0077181D01*
X0340768Y0076927D01*
X0340577Y0076673D01*
X0340387Y0076418D01*
X0340197Y0076162D01*
X0340007Y0075905D01*
X0339818Y0075647D01*
X0339442Y0075129D01*
X0339254Y0074869D01*
X0339067Y0074608D01*
X0338879Y0074347D01*
X0338693Y0074084D01*
X0338506Y0073821D01*
X0338320Y0073557D01*
X0338134Y0073292D01*
X0337948Y0073026D01*
X0337762Y0072760D01*
X0337576Y0072493D01*
X0337390Y0072225D01*
X0337204Y0071956D01*
X0337019Y0071687D01*
X0336833Y0071416D01*
X0336647Y0071146D01*
X0336461Y0070874D01*
X0336275Y0070601D01*
X0336089Y0070328D01*
X0335903Y0070054D01*
X0335716Y0069779D01*
X0335530Y0069503D01*
X0335343Y0069227D01*
X0335156Y0068949D01*
X0334968Y0068672D01*
X0334780Y0068393D01*
X0334592Y0068114D01*
X0334404Y0067834D01*
X0334214Y0067553D01*
X0334025Y0067271D01*
X0333835Y0066989D01*
X0333644Y0066705D01*
X0333453Y0066421D01*
X0333262Y0066137D01*
X0333069Y0065851D01*
X0332876Y0065565D01*
X0332707Y0065489D01*
X0332538Y0065412D01*
X0332369Y0065336D01*
X0332200Y0065260D01*
X0332030Y0065183D01*
X0331861Y0065107D01*
X0331692Y0065031D01*
X0331523Y0064955D01*
X0331354Y0064878D01*
X0331185Y0064802D01*
X0331016Y0064726D01*
X0330847Y0064649D01*
X0330677Y0064573D01*
X0330508Y0064497D01*
X0330339Y0064421D01*
X0330170Y0064344D01*
X0330001Y0064268D01*
X0329832Y0064192D01*
X0329663Y0064116D01*
X0329494Y0064040D01*
X0329325Y0063963D01*
X0329156Y0063887D01*
X0328987Y0063811D01*
X0328648Y0063658D01*
X0328479Y0063582D01*
X0328310Y0063506D01*
X0328141Y0063429D01*
X0327972Y0063353D01*
X0327803Y0063277D01*
X0327633Y0063200D01*
X0327464Y0063124D01*
X0327463Y0063124D01*
X0327461Y0063124D01*
X0327458Y0063123D01*
X0327455Y0063122D01*
X0327454Y0063121D01*
X0327452Y0063121D01*
X0327447Y0063119D01*
X0327445Y0063118D01*
X0327444Y0063118D01*
X0327442Y0063117D01*
X0327441Y0063117D01*
X0327439Y0063116D01*
X0327438Y0063116D01*
X0327437Y0063115D01*
X0327435Y0063114D01*
X0327434Y0063114D01*
X0327432Y0063113D01*
X0327431Y0063112D01*
X0327428Y0063112D01*
X0327427Y0063111D01*
X0327426Y0063110D01*
X0327424Y0063110D01*
X0327423Y0063109D01*
X0327421Y0063108D01*
X0327420Y0063107D01*
X0327419Y0063107D01*
X0327417Y0063106D01*
X0327416Y0063105D01*
X0327415Y0063105D01*
X0327413Y0063104D01*
X0327412Y0063103D01*
X0327411Y0063102D01*
X0327410Y0063101D01*
X0327408Y0063101D01*
X0327407Y0063100D01*
X0327406Y0063099D01*
X0327404Y0063098D01*
X0327403Y0063098D01*
X0327402Y0063097D01*
X0327401Y0063096D01*
X0327400Y0063095D01*
X0327397Y0063093D01*
X0327396Y0063093D01*
X0327395Y0063092D01*
X0327393Y0063091D01*
X0327392Y0063090D01*
X0327391Y0063089D01*
X0327390Y0063088D01*
X0327389Y0063087D01*
X0327388Y0063086D01*
X0327386Y0063085D01*
X0327385Y0063084D01*
X0327384Y0063083D01*
X0327383Y0063083D01*
X0327382Y0063082D01*
X0327381Y0063081D01*
X0327380Y0063080D01*
X0327378Y0063079D01*
X0327377Y0063078D01*
X0327376Y0063077D01*
X0327375Y0063076D01*
X0327374Y0063075D01*
X0327373Y0063074D01*
X0327372Y0063073D01*
X0327371Y0063072D01*
X0327370Y0063071D01*
X0327369Y0063069D01*
X0327368Y0063068D01*
X0327367Y0063067D01*
X0327366Y0063066D01*
X0327364Y0063064D01*
X0327363Y0063063D01*
X0327362Y0063062D01*
X0327361Y0063061D01*
X0327360Y0063060D01*
X0327359Y0063058D01*
X0327358Y0063057D01*
X0327357Y0063056D01*
X0327355Y0063054D01*
X0327354Y0063053D01*
X0327353Y0063051D01*
X0327352Y0063050D01*
X0327352Y0063049D01*
X0327351Y0063048D01*
X0327350Y0063047D01*
X0327349Y0063045D01*
X0327348Y0063044D01*
X0327294Y0062966D01*
X0327133Y0062733D01*
X0327079Y0062655D01*
X0327025Y0062577D01*
X0326972Y0062499D01*
X0326918Y0062422D01*
X0326864Y0062344D01*
X0326757Y0062188D01*
X0326703Y0062110D01*
X0326649Y0062033D01*
X0326541Y0061877D01*
X0326488Y0061799D01*
X0326434Y0061721D01*
X0326326Y0061565D01*
X0326219Y0061410D01*
X0326111Y0061255D01*
X0326003Y0061099D01*
X0325950Y0061021D01*
X0325896Y0060943D01*
X0325842Y0060865D01*
X0325788Y0060787D01*
X0325681Y0060632D01*
X0325627Y0060554D01*
X0325625Y0060551D01*
X0325624Y0060549D01*
X0325622Y0060547D01*
X0325620Y0060544D01*
X0325619Y0060541D01*
X0325618Y0060539D01*
X0325616Y0060536D01*
X0325615Y0060534D01*
X0325613Y0060531D01*
X0325612Y0060528D01*
X0325611Y0060525D01*
X0325610Y0060523D01*
X0325608Y0060520D01*
X0325607Y0060517D01*
X0325606Y0060515D01*
X0325605Y0060512D01*
X0325604Y0060509D01*
X0325603Y0060506D01*
X0325602Y0060504D01*
X0325601Y0060501D01*
X0325601Y0060498D01*
X0325600Y0060495D01*
X0325599Y0060492D01*
X0325598Y0060489D01*
X0325598Y0060487D01*
X0325597Y0060484D01*
X0325596Y0060481D01*
X0325596Y0060478D01*
X0325595Y0060475D01*
X0325595Y0060472D01*
X0325594Y0060469D01*
X0325594Y0060466D01*
X0325594Y0060463D01*
X0325593Y0060461D01*
X0325593Y0060458D01*
X0325593Y0060451D01*
X0325593Y0060449D01*
X0325593Y0060446D01*
X0325592Y0060443D01*
X0325592Y0060440D01*
X0325592Y0060437D01*
X0325593Y0060434D01*
X0325593Y0060431D01*
X0325593Y0060428D01*
X0325593Y0060425D01*
X0325593Y0060422D01*
X0325594Y0060419D01*
X0325594Y0060416D01*
X0325594Y0060413D01*
X0325595Y0060410D01*
X0325595Y0060407D01*
X0325595Y0060404D01*
X0325596Y0060401D01*
X0325597Y0060398D01*
X0325597Y0060395D01*
X0325598Y0060392D01*
X0325599Y0060389D01*
X0325599Y0060386D01*
X0325600Y0060383D01*
X0325601Y0060380D01*
X0325602Y0060377D01*
X0325603Y0060374D01*
X0325604Y0060371D01*
X0325605Y0060368D01*
X0325606Y0060365D01*
X0325607Y0060363D01*
X0325608Y0060359D01*
X0325609Y0060357D01*
X0325610Y0060354D01*
X0325611Y0060351D01*
X0325613Y0060348D01*
X0325614Y0060345D01*
X0325615Y0060342D01*
X0325616Y0060339D01*
X0325618Y0060336D01*
X0325619Y0060334D01*
X0325621Y0060331D01*
X0325622Y0060328D01*
X0325624Y0060325D01*
X0325625Y0060322D01*
X0325627Y0060320D01*
X0325629Y0060317D01*
X0325631Y0060314D01*
X0325632Y0060311D01*
X0325634Y0060308D01*
X0325636Y0060306D01*
X0325638Y0060303D01*
X0325640Y0060300D01*
X0325644Y0060295D01*
X0325646Y0060292D01*
X0325648Y0060290D01*
X0325650Y0060287D01*
X0325652Y0060285D01*
X0325654Y0060282D01*
X0325718Y0060210D01*
X0325780Y0060139D01*
X0325907Y0059995D01*
X0325970Y0059923D01*
X0326033Y0059851D01*
X0326096Y0059780D01*
X0326222Y0059636D01*
X0326285Y0059564D01*
X0326348Y0059492D01*
X0326537Y0059277D01*
X0326600Y0059205D01*
X0326663Y0059133D01*
X0326726Y0059061D01*
X0326789Y0058989D01*
X0327042Y0058702D01*
X0327105Y0058630D01*
X0327231Y0058487D01*
X0327294Y0058415D01*
X0327420Y0058271D01*
X0327483Y0058200D01*
X0327546Y0058128D01*
X0327609Y0058056D01*
X0327672Y0057984D01*
X0327661Y0057961D01*
X0327650Y0057937D01*
X0327628Y0057890D01*
X0327617Y0057867D01*
X0327606Y0057843D01*
X0327595Y0057819D01*
X0327585Y0057795D01*
X0327574Y0057770D01*
X0327563Y0057746D01*
X0327552Y0057722D01*
X0327542Y0057697D01*
X0327531Y0057673D01*
X0327521Y0057648D01*
X0327510Y0057623D01*
X0327500Y0057598D01*
X0327489Y0057574D01*
X0327469Y0057523D01*
X0327459Y0057498D01*
X0327449Y0057473D01*
X0327439Y0057448D01*
X0327429Y0057422D01*
X0327419Y0057397D01*
X0327409Y0057371D01*
X0327399Y0057346D01*
X0327380Y0057294D01*
X0327371Y0057269D01*
X0327362Y0057243D01*
X0327352Y0057217D01*
X0327343Y0057191D01*
X0327334Y0057165D01*
X0327325Y0057139D01*
X0327316Y0057113D01*
X0327308Y0057087D01*
X0327299Y0057061D01*
X0327291Y0057035D01*
X0327282Y0057009D01*
X0327274Y0056983D01*
X0327266Y0056957D01*
X0327258Y0056931D01*
X0327250Y0056904D01*
X0327242Y0056878D01*
X0327235Y0056852D01*
X0327227Y0056826D01*
X0327220Y0056800D01*
X0327213Y0056774D01*
X0327205Y0056748D01*
X0327198Y0056722D01*
X0327192Y0056695D01*
X0327185Y0056669D01*
X0327179Y0056643D01*
X0327173Y0056617D01*
X0327166Y0056591D01*
X0327160Y0056565D01*
X0327154Y0056539D01*
X0327149Y0056513D01*
X0327143Y0056487D01*
X0327138Y0056461D01*
X0327133Y0056435D01*
X0327128Y0056409D01*
X0327123Y0056383D01*
X0327119Y0056357D01*
X0327114Y0056332D01*
X0327106Y0056280D01*
X0327102Y0056255D01*
X0327099Y0056229D01*
X0327095Y0056204D01*
X0327092Y0056178D01*
X0327089Y0056153D01*
X0327086Y0056128D01*
X0327083Y0056103D01*
X0327081Y0056078D01*
X0327079Y0056053D01*
X0327077Y0056028D01*
X0327075Y0056003D01*
X0327074Y0055978D01*
X0327072Y0055954D01*
X0327070Y0055905D01*
X0327070Y0055880D01*
X0327070Y0055856D01*
X0327069Y0055832D01*
X0327069Y0055808D01*
X0327070Y0055784D01*
X0327070Y0055760D01*
X0327071Y0055736D01*
X0327072Y0055713D01*
X0327074Y0055689D01*
X0327075Y0055666D01*
X0327077Y0055643D01*
X0327079Y0055620D01*
X0327082Y0055597D01*
X0327084Y0055574D01*
X0327085Y0055570D01*
X0327088Y0055564D01*
X0327094Y0055556D01*
X0327100Y0055548D01*
X0327108Y0055539D01*
X0327130Y0055517D01*
X0327143Y0055505D01*
X0327174Y0055477D01*
X0327192Y0055462D01*
X0327232Y0055429D01*
X0327253Y0055411D01*
X0327277Y0055392D01*
X0327301Y0055373D01*
X0327327Y0055353D01*
X0327354Y0055332D01*
X0327381Y0055311D01*
X0327411Y0055289D01*
X0327441Y0055266D01*
X0327472Y0055243D01*
X0327504Y0055218D01*
X0327538Y0055194D01*
X0327572Y0055169D01*
X0327607Y0055143D01*
X0327643Y0055116D01*
X0327680Y0055090D01*
X0327717Y0055063D01*
X0327756Y0055035D01*
X0327794Y0055007D01*
X0327834Y0054979D01*
X0327875Y0054950D01*
X0327916Y0054921D01*
X0327957Y0054891D01*
X0327999Y0054862D01*
X0328041Y0054832D01*
X0328084Y0054802D01*
X0328128Y0054772D01*
X0328172Y0054742D01*
X0328216Y0054711D01*
X0328305Y0054649D01*
X0328350Y0054618D01*
X0328395Y0054587D01*
X0328440Y0054556D01*
X0328485Y0054525D01*
X0328576Y0054464D01*
X0328622Y0054433D01*
X0328667Y0054402D01*
X0328713Y0054372D01*
X0328758Y0054341D01*
X0328803Y0054311D01*
X0328848Y0054281D01*
X0328893Y0054252D01*
X0328937Y0054222D01*
X0328981Y0054193D01*
X0329025Y0054164D01*
X0329068Y0054136D01*
X0329111Y0054108D01*
X0329154Y0054080D01*
X0329196Y0054053D01*
X0329238Y0054026D01*
X0329279Y0053999D01*
X0329359Y0053948D01*
X0329398Y0053923D01*
X0329437Y0053900D01*
X0329475Y0053876D01*
X0329512Y0053852D01*
X0329547Y0053830D01*
X0329583Y0053808D01*
X0329618Y0053787D01*
X0329650Y0053767D01*
X0329683Y0053747D01*
X0329715Y0053729D01*
X0329745Y0053711D01*
X0329775Y0053694D01*
X0329803Y0053677D01*
X0329830Y0053662D01*
X0329856Y0053647D01*
X0329881Y0053634D01*
X0329904Y0053622D01*
X0329926Y0053610D01*
X0329947Y0053599D01*
X0329966Y0053590D01*
X0329985Y0053581D01*
X0330001Y0053574D01*
X0330015Y0053568D01*
X0330030Y0053562D01*
X0330042Y0053558D01*
X0330051Y0053556D01*
X0330061Y0053554D01*
X0330068Y0053553D01*
X0330073Y0053555D01*
X0330096Y0053563D01*
X0330119Y0053571D01*
X0330142Y0053579D01*
X0330166Y0053588D01*
X0330189Y0053597D01*
X0330212Y0053606D01*
X0330236Y0053615D01*
X0330259Y0053625D01*
X0330282Y0053635D01*
X0330306Y0053645D01*
X0330329Y0053655D01*
X0330352Y0053665D01*
X0330376Y0053676D01*
X0330399Y0053687D01*
X0330423Y0053698D01*
X0330446Y0053709D01*
X0330469Y0053720D01*
X0330493Y0053732D01*
X0330516Y0053744D01*
X0330539Y0053756D01*
X0330563Y0053768D01*
X0330586Y0053780D01*
X0330609Y0053793D01*
X0330632Y0053805D01*
X0330655Y0053818D01*
X0330679Y0053831D01*
X0330702Y0053844D01*
X0330725Y0053857D01*
X0330748Y0053871D01*
X0330771Y0053885D01*
X0330794Y0053898D01*
X0330817Y0053912D01*
X0330840Y0053926D01*
X0330863Y0053940D01*
X0330885Y0053955D01*
X0330908Y0053969D01*
X0330931Y0053984D01*
X0330953Y0053998D01*
X0330976Y0054013D01*
X0330998Y0054028D01*
X0331021Y0054043D01*
X0331043Y0054058D01*
X0331066Y0054073D01*
X0331088Y0054089D01*
X0331110Y0054104D01*
X0331132Y0054120D01*
X0331154Y0054135D01*
X0331176Y0054151D01*
X0331197Y0054167D01*
X0331219Y0054183D01*
X0331241Y0054199D01*
X0331262Y0054215D01*
X0331284Y0054231D01*
X0331305Y0054247D01*
X0331327Y0054264D01*
X0331348Y0054280D01*
X0331369Y0054297D01*
X0331390Y0054313D01*
X0331411Y0054330D01*
X0331431Y0054346D01*
X0331452Y0054363D01*
X0331472Y0054380D01*
X0331493Y0054396D01*
X0331513Y0054413D01*
X0331533Y0054430D01*
X0331573Y0054464D01*
X0331593Y0054481D01*
X0331632Y0054515D01*
X0331652Y0054532D01*
X0331671Y0054549D01*
X0331690Y0054566D01*
X0331709Y0054583D01*
X0331728Y0054600D01*
X0331746Y0054617D01*
X0331765Y0054634D01*
X0331783Y0054651D01*
X0331802Y0054668D01*
X0331820Y0054685D01*
X0331838Y0054702D01*
X0331855Y0054719D01*
X0331873Y0054736D01*
X0331890Y0054753D01*
X0331908Y0054770D01*
X0331925Y0054787D01*
X0331941Y0054804D01*
X0331958Y0054821D01*
X0331975Y0054838D01*
X0331991Y0054855D01*
X0332007Y0054871D01*
X0332023Y0054888D01*
X0332055Y0054921D01*
X0332070Y0054938D01*
X0332085Y0054954D01*
X0332173Y0054920D01*
X0332261Y0054886D01*
X0332349Y0054853D01*
X0330554Y0056461D02*
X0330548Y0056455D01*
X0330537Y0056443D01*
X0330531Y0056438D01*
X0330518Y0056427D01*
X0330512Y0056422D01*
X0330505Y0056418D01*
X0330499Y0056414D01*
X0330492Y0056409D01*
X0330478Y0056402D01*
X0330470Y0056399D01*
X0330463Y0056395D01*
X0330455Y0056392D01*
X0330448Y0056390D01*
X0330440Y0056388D01*
X0330432Y0056385D01*
X0330425Y0056384D01*
X0330417Y0056382D01*
X0330409Y0056380D01*
X0330401Y0056379D01*
X0330393Y0056379D01*
X0330385Y0056378D01*
X0330377Y0056377D01*
X0330369Y0056378D01*
X0330361Y0056378D01*
X0330352Y0056378D01*
X0330344Y0056379D01*
X0330336Y0056380D01*
X0330328Y0056381D01*
X0330320Y0056383D01*
X0330312Y0056385D01*
X0330304Y0056387D01*
X0330296Y0056389D01*
X0330288Y0056392D01*
X0330280Y0056395D01*
X0330272Y0056398D01*
X0330264Y0056401D01*
X0330256Y0056405D01*
X0330249Y0056409D01*
X0330241Y0056414D01*
X0330234Y0056418D01*
X0330227Y0056423D01*
X0330217Y0056430D01*
X0330207Y0056437D01*
X0330197Y0056444D01*
X0330187Y0056451D01*
X0330177Y0056457D01*
X0330167Y0056464D01*
X0330157Y0056471D01*
X0330147Y0056478D01*
X0330137Y0056485D01*
X0330127Y0056491D01*
X0330107Y0056505D01*
X0330097Y0056512D01*
X0330087Y0056519D01*
X0330077Y0056525D01*
X0330067Y0056532D01*
X0330060Y0056537D01*
X0330054Y0056542D01*
X0330047Y0056548D01*
X0330041Y0056553D01*
X0330035Y0056559D01*
X0330029Y0056565D01*
X0330024Y0056571D01*
X0330018Y0056577D01*
X0330013Y0056583D01*
X0330008Y0056589D01*
X0330003Y0056596D01*
X0329999Y0056603D01*
X0329995Y0056609D01*
X0329991Y0056616D01*
X0329987Y0056623D01*
X0329984Y0056630D01*
X0329980Y0056637D01*
X0329978Y0056645D01*
X0329975Y0056652D01*
X0329972Y0056660D01*
X0329968Y0056674D01*
X0329966Y0056682D01*
X0329965Y0056690D01*
X0329963Y0056697D01*
X0329962Y0056705D01*
X0329962Y0056713D01*
X0329961Y0056720D01*
X0329961Y0056728D01*
X0329961Y0056743D01*
X0329962Y0056751D01*
X0329962Y0056759D01*
X0329963Y0056767D01*
X0329965Y0056774D01*
X0329968Y0056789D01*
X0329970Y0056797D01*
X0329973Y0056804D01*
X0329975Y0056812D01*
X0329978Y0056819D01*
X0329981Y0056826D01*
X0329985Y0056834D01*
X0329988Y0056841D01*
X0329993Y0056847D01*
X0329997Y0056854D01*
X0330001Y0056861D01*
X0330006Y0056868D01*
X0330328Y0057299D01*
X0330650Y0057731D01*
X0330972Y0058162D01*
X0331294Y0058593D01*
X0331617Y0059025D01*
X0331939Y0059457D01*
X0332261Y0059888D01*
X0332583Y0060320D01*
X0332905Y0060751D01*
X0333549Y0061614D01*
X0333871Y0062046D01*
X0334193Y0062477D01*
X0334837Y0063340D01*
X0335159Y0063771D01*
X0334873Y0063316D01*
X0334586Y0062861D01*
X0334299Y0062406D01*
X0334013Y0061951D01*
X0333726Y0061495D01*
X0333440Y0061040D01*
X0333153Y0060585D01*
X0332866Y0060130D01*
X0332580Y0059675D01*
X0332293Y0059219D01*
X0332007Y0058764D01*
X0331720Y0058309D01*
X0331147Y0057399D01*
X0330860Y0056944D01*
X0330574Y0056488D01*
X0330569Y0056481D01*
X0330564Y0056474D01*
X0330559Y0056467D01*
X0330554Y0056461D01*
X0327943Y0057953D02*
X0327943Y0057953D01*
X0327943Y0057953D01*
X0327943Y0057954D01*
X0327944Y0057955D01*
X0327944Y0057955D01*
X0327944Y0057956D01*
X0327944Y0057956D01*
X0327944Y0057957D01*
X0327945Y0057957D01*
X0327945Y0057958D01*
X0327945Y0057958D01*
X0327945Y0057959D01*
X0327946Y0057959D01*
X0327946Y0057960D01*
X0327946Y0057960D01*
X0327946Y0057961D01*
X0327946Y0057961D01*
X0327947Y0057961D01*
X0327947Y0057962D01*
X0327947Y0057962D01*
X0327947Y0057962D01*
X0327947Y0057963D01*
X0327948Y0057963D01*
X0327948Y0057964D01*
X0327948Y0057964D01*
X0327948Y0057965D01*
X0327949Y0057965D01*
X0327949Y0057966D01*
X0327949Y0057966D01*
X0327949Y0057967D01*
X0327949Y0057967D01*
X0327950Y0057968D01*
X0327950Y0057968D01*
X0327950Y0057969D01*
X0327950Y0057969D01*
X0327951Y0057969D01*
X0327951Y0057970D01*
X0327951Y0057970D01*
X0327951Y0057971D01*
X0327951Y0057971D01*
X0327952Y0057972D01*
X0327952Y0057972D01*
X0327952Y0057973D01*
X0327952Y0057973D01*
X0327953Y0057974D01*
X0327953Y0057974D01*
X0327953Y0057974D01*
X0328278Y0058448D01*
X0328603Y0058922D01*
X0328929Y0059396D01*
X0329254Y0059870D01*
X0329579Y0060343D01*
X0329904Y0060817D01*
X0330230Y0061291D01*
X0330555Y0061765D01*
X0330880Y0062239D01*
X0331205Y0062713D01*
X0331531Y0063186D01*
X0331856Y0063660D01*
X0332181Y0064134D01*
X0332506Y0064608D01*
X0332832Y0065081D01*
X0333157Y0065555D01*
X0332819Y0065403D01*
X0332480Y0065250D01*
X0332142Y0065098D01*
X0331804Y0064945D01*
X0331466Y0064793D01*
X0331128Y0064640D01*
X0330789Y0064488D01*
X0330451Y0064335D01*
X0330113Y0064183D01*
X0329775Y0064030D01*
X0329436Y0063878D01*
X0329098Y0063725D01*
X0328760Y0063572D01*
X0328422Y0063420D01*
X0328083Y0063267D01*
X0327745Y0063115D01*
X0327742Y0063114D01*
X0327739Y0063113D01*
X0327736Y0063112D01*
X0327733Y0063112D01*
X0327727Y0063110D01*
X0327725Y0063109D01*
X0327722Y0063107D01*
X0327719Y0063106D01*
X0327716Y0063105D01*
X0327713Y0063104D01*
X0327711Y0063103D01*
X0327708Y0063101D01*
X0327705Y0063100D01*
X0327702Y0063099D01*
X0327700Y0063097D01*
X0327697Y0063096D01*
X0327694Y0063094D01*
X0327692Y0063093D01*
X0327689Y0063091D01*
X0327687Y0063090D01*
X0327684Y0063088D01*
X0327681Y0063087D01*
X0327677Y0063083D01*
X0327674Y0063081D01*
X0327672Y0063080D01*
X0327669Y0063078D01*
X0327667Y0063076D01*
X0327665Y0063074D01*
X0327662Y0063072D01*
X0327660Y0063070D01*
X0327658Y0063068D01*
X0327656Y0063066D01*
X0327654Y0063064D01*
X0327652Y0063062D01*
X0327650Y0063060D01*
X0327647Y0063058D01*
X0327645Y0063056D01*
X0327643Y0063053D01*
X0327641Y0063051D01*
X0327640Y0063049D01*
X0327638Y0063047D01*
X0327636Y0063044D01*
X0327634Y0063042D01*
X0327632Y0063040D01*
X0327631Y0063037D01*
X0327629Y0063035D01*
X0327521Y0062879D01*
X0327414Y0062724D01*
X0327198Y0062412D01*
X0327091Y0062257D01*
X0326983Y0062101D01*
X0326876Y0061945D01*
X0326768Y0061790D01*
X0326661Y0061634D01*
X0326553Y0061478D01*
X0326338Y0061167D01*
X0326231Y0061011D01*
X0326123Y0060856D01*
X0326015Y0060700D01*
X0325908Y0060544D01*
X0325904Y0060539D01*
X0325901Y0060534D01*
X0325898Y0060529D01*
X0325895Y0060524D01*
X0325893Y0060519D01*
X0325890Y0060513D01*
X0325888Y0060508D01*
X0325886Y0060502D01*
X0325884Y0060497D01*
X0325882Y0060491D01*
X0325880Y0060486D01*
X0325879Y0060480D01*
X0325878Y0060474D01*
X0325876Y0060468D01*
X0325876Y0060462D01*
X0325875Y0060456D01*
X0325874Y0060450D01*
X0325874Y0060445D01*
X0325873Y0060439D01*
X0325873Y0060433D01*
X0325873Y0060427D01*
X0325873Y0060421D01*
X0325874Y0060415D01*
X0325874Y0060409D01*
X0325875Y0060403D01*
X0325876Y0060397D01*
X0325877Y0060391D01*
X0325878Y0060385D01*
X0325879Y0060379D01*
X0325881Y0060373D01*
X0325882Y0060367D01*
X0325884Y0060361D01*
X0325886Y0060356D01*
X0325888Y0060350D01*
X0325891Y0060344D01*
X0325896Y0060332D01*
X0325898Y0060326D01*
X0325901Y0060321D01*
X0325904Y0060315D01*
X0325908Y0060310D01*
X0325911Y0060304D01*
X0325915Y0060299D01*
X0325919Y0060294D01*
X0325923Y0060288D01*
X0325926Y0060283D01*
X0325931Y0060278D01*
X0325935Y0060273D01*
X0326061Y0060129D01*
X0326187Y0059986D01*
X0326313Y0059842D01*
X0326566Y0059555D01*
X0326692Y0059411D01*
X0326818Y0059267D01*
X0326944Y0059124D01*
X0327070Y0058980D01*
X0327322Y0058692D01*
X0327575Y0058406D01*
X0327827Y0058118D01*
X0327953Y0057974D01*
X0327953Y0057984D02*
X0327890Y0058056D01*
X0327827Y0058128D01*
X0327764Y0058200D01*
X0327701Y0058271D01*
X0327575Y0058415D01*
X0327511Y0058487D01*
X0327385Y0058630D01*
X0327322Y0058702D01*
X0327259Y0058774D01*
X0327133Y0058918D01*
X0327070Y0058989D01*
X0327007Y0059061D01*
X0326944Y0059133D01*
X0326818Y0059277D01*
X0326755Y0059349D01*
X0326629Y0059492D01*
X0326566Y0059564D01*
X0326503Y0059636D01*
X0326377Y0059780D01*
X0326313Y0059851D01*
X0326250Y0059923D01*
X0326187Y0059995D01*
X0326061Y0060139D01*
X0325998Y0060210D01*
X0325935Y0060282D01*
X0325933Y0060285D01*
X0325931Y0060287D01*
X0325929Y0060290D01*
X0325927Y0060292D01*
X0325924Y0060295D01*
X0325921Y0060300D01*
X0325919Y0060303D01*
X0325917Y0060306D01*
X0325915Y0060308D01*
X0325913Y0060311D01*
X0325911Y0060314D01*
X0325910Y0060317D01*
X0325908Y0060320D01*
X0325906Y0060322D01*
X0325904Y0060325D01*
X0325903Y0060328D01*
X0325901Y0060331D01*
X0325900Y0060334D01*
X0325898Y0060336D01*
X0325897Y0060339D01*
X0325896Y0060342D01*
X0325894Y0060345D01*
X0325893Y0060348D01*
X0325892Y0060351D01*
X0325891Y0060354D01*
X0325888Y0060359D01*
X0325887Y0060363D01*
X0325886Y0060365D01*
X0325885Y0060368D01*
X0325884Y0060371D01*
X0325883Y0060374D01*
X0325882Y0060377D01*
X0325882Y0060380D01*
X0325881Y0060383D01*
X0325880Y0060386D01*
X0325879Y0060389D01*
X0325879Y0060392D01*
X0325878Y0060395D01*
X0325877Y0060398D01*
X0325876Y0060404D01*
X0325876Y0060407D01*
X0325875Y0060410D01*
X0325875Y0060413D01*
X0325874Y0060416D01*
X0325874Y0060419D01*
X0325874Y0060422D01*
X0325873Y0060428D01*
X0325873Y0060431D01*
X0325873Y0060434D01*
X0325873Y0060440D01*
X0325873Y0060443D01*
X0325873Y0060446D01*
X0325873Y0060449D01*
X0325873Y0060451D01*
X0325874Y0060458D01*
X0325874Y0060461D01*
X0325874Y0060463D01*
X0325875Y0060466D01*
X0325875Y0060469D01*
X0325876Y0060472D01*
X0325876Y0060475D01*
X0325876Y0060478D01*
X0325877Y0060481D01*
X0325878Y0060484D01*
X0325878Y0060487D01*
X0325879Y0060489D01*
X0325880Y0060495D01*
X0325881Y0060498D01*
X0325882Y0060501D01*
X0325883Y0060504D01*
X0325884Y0060506D01*
X0325885Y0060509D01*
X0325886Y0060512D01*
X0325887Y0060515D01*
X0325888Y0060517D01*
X0325889Y0060520D01*
X0325890Y0060523D01*
X0325892Y0060525D01*
X0325893Y0060528D01*
X0325894Y0060531D01*
X0325896Y0060534D01*
X0325897Y0060536D01*
X0325898Y0060539D01*
X0325900Y0060541D01*
X0325901Y0060544D01*
X0325903Y0060547D01*
X0325905Y0060549D01*
X0325906Y0060551D01*
X0325908Y0060554D01*
X0325962Y0060632D01*
X0326069Y0060787D01*
X0326123Y0060865D01*
X0326177Y0060943D01*
X0326231Y0061021D01*
X0326284Y0061099D01*
X0326392Y0061255D01*
X0326499Y0061410D01*
X0326607Y0061565D01*
X0326661Y0061643D01*
X0326715Y0061721D01*
X0326822Y0061877D01*
X0326930Y0062033D01*
X0326983Y0062110D01*
X0327037Y0062188D01*
X0327091Y0062266D01*
X0327145Y0062344D01*
X0327198Y0062422D01*
X0327252Y0062499D01*
X0327360Y0062655D01*
X0327414Y0062733D01*
X0327575Y0062966D01*
X0327629Y0063044D01*
X0327630Y0063045D01*
X0327631Y0063047D01*
X0327631Y0063048D01*
X0327632Y0063049D01*
X0327633Y0063050D01*
X0327635Y0063053D01*
X0327636Y0063054D01*
X0327638Y0063056D01*
X0327639Y0063057D01*
X0327640Y0063058D01*
X0327641Y0063060D01*
X0327641Y0063061D01*
X0327642Y0063062D01*
X0327643Y0063063D01*
X0327644Y0063064D01*
X0327646Y0063066D01*
X0327647Y0063067D01*
X0327648Y0063068D01*
X0327650Y0063069D01*
X0327650Y0063071D01*
X0327652Y0063072D01*
X0327653Y0063073D01*
X0327654Y0063074D01*
X0327655Y0063075D01*
X0327656Y0063076D01*
X0327657Y0063077D01*
X0327658Y0063078D01*
X0327659Y0063079D01*
X0327660Y0063080D01*
X0327661Y0063081D01*
X0327662Y0063082D01*
X0327664Y0063083D01*
X0327665Y0063083D01*
X0327666Y0063084D01*
X0327667Y0063085D01*
X0327668Y0063086D01*
X0327669Y0063087D01*
X0327671Y0063088D01*
X0327672Y0063089D01*
X0327674Y0063091D01*
X0327675Y0063092D01*
X0327677Y0063093D01*
X0327678Y0063093D01*
X0327679Y0063094D01*
X0327680Y0063095D01*
X0327681Y0063096D01*
X0327683Y0063097D01*
X0327684Y0063098D01*
X0327685Y0063098D01*
X0327687Y0063099D01*
X0327688Y0063100D01*
X0327689Y0063101D01*
X0327690Y0063101D01*
X0327692Y0063102D01*
X0327693Y0063103D01*
X0327694Y0063104D01*
X0327696Y0063105D01*
X0327697Y0063105D01*
X0327698Y0063106D01*
X0327700Y0063107D01*
X0327701Y0063107D01*
X0327702Y0063108D01*
X0327704Y0063109D01*
X0327705Y0063110D01*
X0327706Y0063110D01*
X0327708Y0063111D01*
X0327709Y0063112D01*
X0327712Y0063112D01*
X0327713Y0063113D01*
X0327715Y0063114D01*
X0327716Y0063114D01*
X0327718Y0063115D01*
X0327719Y0063116D01*
X0327720Y0063116D01*
X0327722Y0063117D01*
X0327723Y0063117D01*
X0327725Y0063118D01*
X0327726Y0063118D01*
X0327727Y0063119D01*
X0327733Y0063121D01*
X0327735Y0063121D01*
X0327736Y0063122D01*
X0327739Y0063123D01*
X0327742Y0063124D01*
X0327744Y0063124D01*
X0327745Y0063124D01*
X0327914Y0063200D01*
X0328083Y0063277D01*
X0328253Y0063353D01*
X0328422Y0063429D01*
X0328591Y0063506D01*
X0328760Y0063582D01*
X0328929Y0063658D01*
X0329267Y0063811D01*
X0329436Y0063887D01*
X0329606Y0063963D01*
X0329775Y0064040D01*
X0329944Y0064116D01*
X0330113Y0064192D01*
X0330282Y0064268D01*
X0330451Y0064344D01*
X0330620Y0064421D01*
X0330789Y0064497D01*
X0330958Y0064573D01*
X0331128Y0064649D01*
X0331297Y0064726D01*
X0331466Y0064802D01*
X0331635Y0064878D01*
X0331804Y0064955D01*
X0331973Y0065031D01*
X0332142Y0065107D01*
X0332311Y0065183D01*
X0332480Y0065260D01*
X0332650Y0065336D01*
X0332819Y0065412D01*
X0332988Y0065489D01*
X0333157Y0065565D01*
X0333161Y0065562D02*
X0333161Y0065562D01*
X0333161Y0065562D01*
X0333162Y0065562D01*
X0333162Y0065562D01*
X0333162Y0065563D01*
X0333162Y0065563D01*
X0333162Y0065563D01*
X0333162Y0065563D01*
X0333162Y0065563D01*
X0333162Y0065563D01*
X0333163Y0065564D01*
X0333163Y0065564D01*
X0333163Y0065564D01*
X0333163Y0065564D01*
X0333163Y0065564D01*
X0333163Y0065565D01*
X0333161Y0065562D02*
X0333161Y0065561D01*
X0333161Y0065561D01*
X0333161Y0065561D01*
X0333160Y0065561D01*
X0333160Y0065560D01*
X0333160Y0065560D01*
X0333160Y0065560D01*
X0333160Y0065559D01*
X0333159Y0065559D02*
X0333159Y0065559D01*
X0333159Y0065559D01*
X0333159Y0065559D01*
X0333159Y0065558D01*
X0333159Y0065558D01*
X0333159Y0065558D01*
X0333159Y0065558D01*
X0333159Y0065558D01*
X0333158Y0065557D01*
X0333158Y0065557D01*
X0333158Y0065557D01*
X0333158Y0065557D01*
X0333158Y0065557D01*
X0333158Y0065557D01*
X0333158Y0065556D01*
X0333157Y0065556D01*
X0333157Y0065556D01*
X0333157Y0065556D01*
X0333157Y0065556D01*
X0333157Y0065555D01*
X0333159Y0065559D02*
X0333160Y0065559D01*
X0333160Y0065561D02*
X0333160Y0065561D01*
X0333160Y0065561D01*
X0334511Y0068903D02*
X0334686Y0068831D01*
X0334860Y0068759D01*
X0335033Y0068684D01*
X0335205Y0068606D01*
X0334511Y0068903D02*
X0334335Y0068971D01*
X0334158Y0069036D01*
X0333980Y0069101D01*
X0333801Y0069162D01*
X0333621Y0069220D01*
X0333441Y0069278D01*
X0333260Y0069332D01*
X0333077Y0069383D01*
X0332894Y0069434D01*
X0332710Y0069482D01*
X0332525Y0069525D01*
X0332340Y0069569D01*
X0332154Y0069609D01*
X0331966Y0069646D01*
X0331779Y0069682D01*
X0331591Y0069715D01*
X0331401Y0069744D01*
X0331212Y0069773D01*
X0331022Y0069798D01*
X0330640Y0069841D01*
X0330448Y0069858D01*
X0330255Y0069872D01*
X0330063Y0069885D01*
X0329869Y0069896D01*
X0329675Y0069901D01*
X0329481Y0069907D01*
X0329287Y0069909D01*
X0329092Y0069907D01*
X0328896Y0069905D01*
X0328701Y0069899D01*
X0328308Y0069879D01*
X0328112Y0069865D01*
X0327915Y0069847D01*
X0327718Y0069829D01*
X0327520Y0069807D01*
X0327323Y0069780D01*
X0327125Y0069753D01*
X0326927Y0069723D01*
X0326729Y0069688D01*
X0326531Y0069653D01*
X0326333Y0069613D01*
X0326135Y0069570D01*
X0325899Y0069518D01*
X0325666Y0069461D01*
X0325436Y0069398D01*
X0325206Y0069336D01*
X0324978Y0069268D01*
X0324753Y0069195D01*
X0324528Y0069122D01*
X0324307Y0069043D01*
X0324087Y0068960D01*
X0323868Y0068877D01*
X0323652Y0068789D01*
X0323439Y0068696D01*
X0323226Y0068603D01*
X0323016Y0068505D01*
X0322810Y0068402D01*
X0322603Y0068299D01*
X0322399Y0068192D01*
X0322199Y0068080D01*
X0321998Y0067968D01*
X0321801Y0067852D01*
X0321608Y0067731D01*
X0321414Y0067611D01*
X0321223Y0067486D01*
X0321036Y0067357D01*
X0320849Y0067227D01*
X0320666Y0067094D01*
X0320486Y0066957D01*
X0320306Y0066819D01*
X0320130Y0066678D01*
X0319957Y0066533D01*
X0319784Y0066387D01*
X0319615Y0066238D01*
X0319450Y0066085D01*
X0319285Y0065933D01*
X0319124Y0065776D01*
X0318966Y0065616D01*
X0318809Y0065456D01*
X0318655Y0065292D01*
X0318505Y0065126D01*
X0318356Y0064959D01*
X0318210Y0064788D01*
X0318068Y0064615D01*
X0317927Y0064441D01*
X0317789Y0064265D01*
X0317656Y0064085D01*
X0317523Y0063905D01*
X0317394Y0063722D01*
X0317269Y0063537D01*
X0317130Y0064249D01*
X0317029Y0064961D01*
X0316963Y0065669D01*
X0316897Y0066377D01*
X0316867Y0067083D01*
X0316871Y0067783D01*
X0316876Y0068484D01*
X0316914Y0069179D01*
X0316986Y0069867D01*
X0317058Y0070555D01*
X0317164Y0071236D01*
X0317301Y0071908D01*
X0317438Y0072579D01*
X0317607Y0073242D01*
X0317806Y0073893D01*
X0318005Y0074545D01*
X0318235Y0075185D01*
X0318495Y0075812D01*
X0318754Y0076438D01*
X0319042Y0077052D01*
X0319359Y0077650D01*
X0319675Y0078249D01*
X0320019Y0078832D01*
X0320390Y0079397D01*
X0320761Y0079963D01*
X0321159Y0080511D01*
X0321581Y0081040D01*
X0322004Y0081568D01*
X0322452Y0082078D01*
X0323397Y0083054D01*
X0323893Y0083520D01*
X0324411Y0083963D01*
X0324930Y0084406D01*
X0325472Y0084825D01*
X0326034Y0085219D01*
X0326597Y0085613D01*
X0327181Y0085981D01*
X0327786Y0086321D01*
X0328390Y0086662D01*
X0329014Y0086975D01*
X0329657Y0087258D01*
X0330300Y0087542D01*
X0330962Y0087795D01*
X0331641Y0088017D01*
X0332321Y0088239D01*
X0333017Y0088430D01*
X0333730Y0088586D01*
X0334073Y0088661D01*
X0334415Y0088728D01*
X0334758Y0088786D01*
X0335100Y0088844D01*
X0335442Y0088894D01*
X0335783Y0088935D01*
X0336124Y0088976D01*
X0336465Y0089009D01*
X0336805Y0089034D01*
X0337145Y0089058D01*
X0337484Y0089075D01*
X0337822Y0089083D01*
X0338160Y0089092D01*
X0338497Y0089092D01*
X0338833Y0089084D01*
X0339169Y0089077D01*
X0339503Y0089061D01*
X0340170Y0089014D01*
X0340501Y0088983D01*
X0340831Y0088945D01*
X0341161Y0088906D01*
X0341489Y0088860D01*
X0341815Y0088806D01*
X0342142Y0088752D01*
X0342466Y0088691D01*
X0342788Y0088622D01*
X0343110Y0088554D01*
X0343430Y0088478D01*
X0343748Y0088395D01*
X0344065Y0088312D01*
X0344381Y0088221D01*
X0344693Y0088124D01*
X0345006Y0088027D01*
X0345316Y0087922D01*
X0345623Y0087811D01*
X0345930Y0087700D01*
X0346234Y0087581D01*
X0346535Y0087456D01*
X0346837Y0087331D01*
X0347135Y0087200D01*
X0347430Y0087061D01*
X0347724Y0086923D01*
X0348016Y0086778D01*
X0348592Y0086475D01*
X0348876Y0086317D01*
X0349157Y0086153D01*
X0349158Y0086153D01*
X0349159Y0086153D01*
X0349159Y0086152D01*
X0349160Y0086152D01*
X0349161Y0086151D01*
X0349162Y0086151D01*
X0349163Y0086150D01*
X0349164Y0086149D01*
X0349165Y0086149D01*
X0349166Y0086148D01*
X0349167Y0086148D01*
X0349168Y0086147D01*
X0349168Y0086147D01*
X0349169Y0086146D01*
X0349170Y0086146D01*
X0349171Y0086145D01*
X0349172Y0086145D01*
X0349172Y0086144D01*
X0349174Y0086143D01*
X0349175Y0086143D01*
X0349176Y0086142D01*
X0349177Y0086142D01*
X0349177Y0086141D01*
X0349178Y0086141D01*
X0349179Y0086141D01*
X0349180Y0086140D01*
X0349180Y0086140D01*
X0349181Y0086139D01*
X0349182Y0086139D01*
X0349183Y0086138D01*
X0349184Y0086138D01*
X0349185Y0086137D01*
X0349185Y0086137D01*
X0349186Y0086136D01*
X0349187Y0086136D01*
X0349188Y0086135D01*
X0349189Y0086135D01*
X0349189Y0086134D01*
X0349190Y0086134D01*
X0349191Y0086133D01*
X0349192Y0086133D01*
X0349193Y0086132D01*
X0349193Y0086132D01*
X0349194Y0086131D01*
X0349195Y0086131D01*
X0349196Y0086131D01*
X0351391Y0085222D02*
X0351513Y0085516D01*
X0351753Y0086108D01*
X0351870Y0086406D01*
X0351986Y0086706D01*
X0352102Y0087006D01*
X0352216Y0087307D01*
X0352327Y0087610D01*
X0352438Y0087913D01*
X0352548Y0088219D01*
X0352655Y0088526D01*
X0352762Y0088833D01*
X0352867Y0089143D01*
X0352969Y0089454D01*
X0351391Y0085222D02*
X0351267Y0084929D01*
X0351143Y0084636D01*
X0351016Y0084345D01*
X0350888Y0084055D01*
X0350760Y0083765D01*
X0350630Y0083477D01*
X0350498Y0083190D01*
X0350366Y0082903D01*
X0350232Y0082617D01*
X0350096Y0082333D01*
X0349960Y0082048D01*
X0349822Y0081765D01*
X0349682Y0081483D01*
X0349543Y0081201D01*
X0349401Y0080921D01*
X0349257Y0080641D01*
X0349114Y0080361D01*
X0348969Y0080082D01*
X0348674Y0079527D01*
X0348525Y0079250D01*
X0348375Y0078974D01*
X0348224Y0078698D01*
X0348072Y0078423D01*
X0347918Y0078148D01*
X0347764Y0077874D01*
X0347608Y0077600D01*
X0347450Y0077327D01*
X0347293Y0077054D01*
X0347134Y0076781D01*
X0346973Y0076509D01*
X0346812Y0076237D01*
X0346650Y0075966D01*
X0346486Y0075695D01*
X0346322Y0075423D01*
X0346156Y0075153D01*
X0345989Y0074882D01*
X0345822Y0074612D01*
X0345653Y0074341D01*
X0345483Y0074072D01*
X0345313Y0073802D01*
X0345141Y0073532D01*
X0344968Y0073262D01*
X0344795Y0072992D01*
X0344620Y0072723D01*
X0344444Y0072453D01*
X0344268Y0072183D01*
X0344090Y0071914D01*
X0343911Y0071644D01*
X0343733Y0071374D01*
X0343552Y0071104D01*
X0343371Y0070834D01*
X0343189Y0070563D01*
X0343006Y0070293D01*
X0342822Y0070022D01*
X0342638Y0069751D01*
X0342452Y0069480D01*
X0342266Y0069208D01*
X0342079Y0068936D01*
X0341891Y0068664D01*
X0341702Y0068391D01*
X0341512Y0068118D01*
X0341322Y0067845D01*
X0340939Y0067297D01*
X0340746Y0067022D01*
X0340552Y0066746D01*
X0340358Y0066471D01*
X0340163Y0066195D01*
X0339967Y0065917D01*
X0339771Y0065640D01*
X0339573Y0065362D01*
X0339375Y0065083D01*
X0339177Y0064803D01*
X0338978Y0064523D01*
X0338577Y0063961D01*
X0338375Y0063678D01*
X0338173Y0063395D01*
X0337971Y0063111D01*
X0337767Y0062826D01*
X0337563Y0062540D01*
X0337568Y0062537D02*
X0337568Y0062537D01*
X0337568Y0062537D01*
X0337568Y0062537D01*
X0337568Y0062537D01*
X0337568Y0062537D01*
X0337568Y0062536D01*
X0337567Y0062536D01*
X0337567Y0062536D01*
X0337567Y0062536D01*
X0337567Y0062536D01*
X0337567Y0062536D01*
X0337567Y0062536D01*
X0337567Y0062535D01*
X0337567Y0062535D01*
X0337567Y0062535D01*
X0337567Y0062535D01*
X0337566Y0062535D01*
X0337566Y0062535D01*
X0337566Y0062534D01*
X0337566Y0062534D01*
X0337566Y0062534D01*
X0337566Y0062534D01*
X0337566Y0062534D01*
X0337566Y0062534D01*
X0337566Y0062533D01*
X0337565Y0062533D01*
X0337565Y0062533D01*
X0337565Y0062533D01*
X0337565Y0062533D01*
X0337565Y0062533D01*
X0337565Y0062532D01*
X0337565Y0062532D01*
X0337565Y0062532D01*
X0337565Y0062532D01*
X0337564Y0062532D01*
X0337564Y0062532D01*
X0337564Y0062531D01*
X0337564Y0062531D01*
X0337564Y0062531D01*
X0337564Y0062531D01*
X0337564Y0062531D01*
X0337564Y0062530D01*
X0337563Y0062530D01*
X0337564Y0062531D02*
X0337564Y0062531D01*
X0337568Y0062537D02*
X0337568Y0062537D01*
X0337569Y0062538D01*
X0337569Y0062538D01*
X0337569Y0062538D01*
X0337569Y0062538D01*
X0337569Y0062538D01*
X0337569Y0062539D01*
X0337570Y0062539D01*
X0337570Y0062539D01*
X0337570Y0062539D01*
X0337570Y0062540D01*
X0337571Y0062540D01*
X0337571Y0062540D01*
X0337571Y0062541D01*
X0337571Y0062541D01*
X0337571Y0062541D01*
X0337571Y0062541D01*
X0337571Y0062541D01*
X0337570Y0062540D02*
X0337570Y0062540D01*
X0337570Y0062540D01*
X0337570Y0062540D01*
X0337570Y0062539D02*
X0337570Y0062539D01*
X0337570Y0062539D01*
X0337569Y0062538D02*
X0337569Y0062538D01*
X0340280Y0064739D02*
X0340383Y0064616D01*
X0340484Y0064492D01*
X0340583Y0064365D01*
X0340682Y0064238D01*
X0340779Y0064110D01*
X0340873Y0063980D01*
X0340968Y0063849D01*
X0341061Y0063718D01*
X0341152Y0063584D01*
X0341243Y0063450D01*
X0341331Y0063314D01*
X0341417Y0063177D01*
X0341504Y0063040D01*
X0341588Y0062901D01*
X0341670Y0062760D01*
X0341752Y0062620D01*
X0341832Y0062478D01*
X0341909Y0062334D01*
X0341987Y0062190D01*
X0342062Y0062045D01*
X0342134Y0061898D01*
X0342207Y0061750D01*
X0342278Y0061602D01*
X0342345Y0061452D01*
X0342413Y0061301D01*
X0342479Y0061150D01*
X0342605Y0060843D01*
X0342666Y0060688D01*
X0342724Y0060532D01*
X0342782Y0060376D01*
X0342837Y0060218D01*
X0342890Y0060059D01*
X0342943Y0059899D01*
X0342993Y0059739D01*
X0343041Y0059577D01*
X0343089Y0059415D01*
X0343133Y0059251D01*
X0343176Y0059087D01*
X0343218Y0058922D01*
X0343258Y0058756D01*
X0343294Y0058588D01*
X0343356Y0058305D01*
X0343410Y0058023D01*
X0343454Y0057740D01*
X0343499Y0057458D01*
X0343535Y0057175D01*
X0343563Y0056894D01*
X0343591Y0056613D01*
X0343610Y0056332D01*
X0343621Y0056052D01*
X0343632Y0055773D01*
X0343635Y0055494D01*
X0343630Y0055216D01*
X0343625Y0054939D01*
X0343611Y0054663D01*
X0343590Y0054388D01*
X0343569Y0054113D01*
X0343540Y0053840D01*
X0343466Y0053298D01*
X0343422Y0053028D01*
X0343370Y0052761D01*
X0343318Y0052493D01*
X0343259Y0052228D01*
X0343192Y0051965D01*
X0343125Y0051702D01*
X0343051Y0051442D01*
X0342970Y0051184D01*
X0342888Y0050926D01*
X0342800Y0050671D01*
X0342609Y0050166D01*
X0342507Y0049917D01*
X0342398Y0049671D01*
X0342289Y0049425D01*
X0342173Y0049183D01*
X0341928Y0048704D01*
X0341799Y0048468D01*
X0341664Y0048236D01*
X0341528Y0048005D01*
X0341386Y0047777D01*
X0341238Y0047553D01*
X0341090Y0047329D01*
X0340936Y0047109D01*
X0340775Y0046893D01*
X0340615Y0046678D01*
X0340448Y0046467D01*
X0340276Y0046260D01*
X0340331Y0046265D01*
X0340386Y0046271D01*
X0340441Y0046276D01*
X0340496Y0046282D01*
X0340552Y0046287D01*
X0340607Y0046293D01*
X0340662Y0046299D01*
X0340717Y0046306D01*
X0340772Y0046312D01*
X0340828Y0046318D01*
X0340883Y0046325D01*
X0340938Y0046332D01*
X0340993Y0046339D01*
X0341048Y0046346D01*
X0341104Y0046353D01*
X0341159Y0046360D01*
X0341214Y0046368D01*
X0341325Y0046383D01*
X0341380Y0046391D01*
X0341436Y0046399D01*
X0341491Y0046407D01*
X0341546Y0046416D01*
X0341601Y0046424D01*
X0341657Y0046433D01*
X0341712Y0046441D01*
X0341767Y0046451D01*
X0341823Y0046459D01*
X0341934Y0046478D01*
X0341989Y0046488D01*
X0342044Y0046497D01*
X0342155Y0046517D01*
X0342210Y0046527D01*
X0342266Y0046538D01*
X0342321Y0046548D01*
X0342377Y0046558D01*
X0342488Y0046580D01*
X0342543Y0046591D01*
X0342598Y0046602D01*
X0342654Y0046614D01*
X0342709Y0046625D01*
X0342765Y0046637D01*
X0342820Y0046649D01*
X0342876Y0046660D01*
X0342931Y0046673D01*
X0343654Y0046831D01*
X0344361Y0047025D01*
X0345050Y0047251D01*
X0345739Y0047477D01*
X0346410Y0047736D01*
X0347061Y0048025D01*
X0347713Y0048315D01*
X0348345Y0048635D01*
X0348956Y0048983D01*
X0349567Y0049331D01*
X0350158Y0049708D01*
X0350727Y0050110D01*
X0351295Y0050513D01*
X0351842Y0050942D01*
X0352365Y0051395D01*
X0352888Y0051848D01*
X0353388Y0052325D01*
X0353862Y0052824D01*
X0354337Y0053323D01*
X0354787Y0053844D01*
X0355211Y0054384D01*
X0355634Y0054925D01*
X0356032Y0055485D01*
X0356402Y0056064D01*
X0356772Y0056642D01*
X0357114Y0057238D01*
X0357428Y0057849D01*
X0357741Y0058460D01*
X0358026Y0059087D01*
X0358280Y0059727D01*
X0358534Y0060367D01*
X0358758Y0061020D01*
X0358950Y0061685D01*
X0359143Y0062350D01*
X0359303Y0063026D01*
X0359431Y0063711D01*
X0359558Y0064396D01*
X0359653Y0065090D01*
X0359713Y0065791D01*
X0359773Y0066492D01*
X0359799Y0067200D01*
X0359788Y0067913D01*
X0359778Y0068625D01*
X0359732Y0069343D01*
X0359649Y0070063D01*
X0359566Y0070783D01*
X0359446Y0071506D01*
X0359287Y0072230D01*
X0359215Y0072556D01*
X0359137Y0072879D01*
X0359051Y0073199D01*
X0358965Y0073518D01*
X0358873Y0073834D01*
X0358774Y0074146D01*
X0358675Y0074459D01*
X0358569Y0074768D01*
X0358456Y0075072D01*
X0358344Y0075378D01*
X0358225Y0075679D01*
X0357975Y0076273D01*
X0357844Y0076567D01*
X0357706Y0076856D01*
X0357569Y0077146D01*
X0357425Y0077431D01*
X0357275Y0077712D01*
X0357126Y0077994D01*
X0356971Y0078271D01*
X0356810Y0078544D01*
X0356648Y0078817D01*
X0356482Y0079085D01*
X0356309Y0079349D01*
X0356137Y0079614D01*
X0355959Y0079873D01*
X0355776Y0080129D01*
X0355593Y0080384D01*
X0355405Y0080635D01*
X0355018Y0081127D01*
X0354819Y0081369D01*
X0354615Y0081605D01*
X0354412Y0081842D01*
X0354203Y0082074D01*
X0353777Y0082528D01*
X0353559Y0082751D01*
X0353336Y0082968D01*
X0353114Y0083185D01*
X0352887Y0083397D01*
X0352656Y0083604D01*
X0352424Y0083812D01*
X0352189Y0084013D01*
X0351949Y0084210D01*
X0351709Y0084407D01*
X0351466Y0084598D01*
X0351218Y0084784D01*
X0339639Y0065455D02*
X0339750Y0065339D01*
X0339858Y0065222D01*
X0339965Y0065103D01*
X0340072Y0064983D01*
X0340177Y0064862D01*
X0340280Y0064739D01*
X0328455Y0054036D02*
X0328227Y0054191D01*
X0328008Y0054301D01*
X0327796Y0054371D01*
X0327585Y0054440D01*
X0327382Y0054469D01*
X0326991Y0054453D01*
X0326803Y0054409D01*
X0326623Y0054334D01*
X0326443Y0054259D01*
X0326270Y0054152D01*
X0325939Y0053885D01*
X0325781Y0053725D01*
X0325629Y0053542D01*
X0325477Y0053359D01*
X0325333Y0053154D01*
X0325194Y0052931D01*
X0325056Y0052708D01*
X0324924Y0052468D01*
X0324799Y0052215D01*
X0324673Y0051962D01*
X0324554Y0051695D01*
X0324440Y0051420D01*
X0324327Y0051146D01*
X0324219Y0050863D01*
X0324117Y0050576D01*
X0324015Y0050289D01*
X0323919Y0049999D01*
X0323736Y0049419D01*
X0323650Y0049130D01*
X0323569Y0048847D01*
X0323488Y0048564D01*
X0323412Y0048286D01*
X0323341Y0048019D01*
X0323269Y0047751D01*
X0323203Y0047493D01*
X0323140Y0047251D01*
X0323078Y0047008D01*
X0323020Y0046780D01*
X0322966Y0046571D01*
X0322912Y0046363D01*
X0322861Y0046174D01*
X0322815Y0046009D01*
X0322769Y0045844D01*
X0322726Y0045703D01*
X0322687Y0045590D01*
X0322777Y0045668D01*
X0322893Y0045759D01*
X0323030Y0045862D01*
X0323167Y0045965D01*
X0323325Y0046081D01*
X0323499Y0046207D01*
X0323674Y0046333D01*
X0323865Y0046470D01*
X0324068Y0046617D01*
X0324272Y0046763D01*
X0324487Y0046919D01*
X0324710Y0047083D01*
X0324934Y0047247D01*
X0325165Y0047419D01*
X0325399Y0047597D01*
X0325634Y0047776D01*
X0325871Y0047961D01*
X0326108Y0048151D01*
X0326345Y0048341D01*
X0326580Y0048537D01*
X0326810Y0048737D01*
X0327040Y0048936D01*
X0327265Y0049139D01*
X0327479Y0049345D01*
X0327694Y0049550D01*
X0327899Y0049758D01*
X0328089Y0049968D01*
X0328279Y0050177D01*
X0328455Y0050387D01*
X0328612Y0050597D01*
X0328769Y0050806D01*
X0328908Y0051016D01*
X0329023Y0051224D01*
X0329138Y0051431D01*
X0329230Y0051637D01*
X0329294Y0051840D01*
X0329358Y0052043D01*
X0329395Y0052243D01*
X0329399Y0052438D01*
X0329404Y0052634D01*
X0329376Y0052824D01*
X0329312Y0053009D01*
X0329248Y0053194D01*
X0329148Y0053373D01*
X0329006Y0053544D01*
X0328865Y0053716D01*
X0328682Y0053880D01*
X0328455Y0054036D01*
X0327950Y0053383D02*
X0328042Y0053320D01*
X0328115Y0053254D01*
X0328172Y0053186D01*
X0328229Y0053117D01*
X0328269Y0053045D01*
X0328295Y0052971D01*
X0328320Y0052897D01*
X0328331Y0052820D01*
X0328330Y0052742D01*
X0328328Y0052663D01*
X0328313Y0052583D01*
X0328287Y0052502D01*
X0328262Y0052420D01*
X0328225Y0052338D01*
X0328178Y0052254D01*
X0328132Y0052171D01*
X0328077Y0052087D01*
X0328014Y0052003D01*
X0327951Y0051919D01*
X0327880Y0051834D01*
X0327804Y0051750D01*
X0327727Y0051666D01*
X0327645Y0051583D01*
X0327473Y0051418D01*
X0327383Y0051336D01*
X0327291Y0051256D01*
X0327198Y0051176D01*
X0327104Y0051098D01*
X0327009Y0051021D01*
X0326914Y0050945D01*
X0326818Y0050871D01*
X0326724Y0050799D01*
X0326630Y0050727D01*
X0326537Y0050658D01*
X0326448Y0050593D01*
X0326358Y0050527D01*
X0326272Y0050464D01*
X0326190Y0050405D01*
X0326108Y0050347D01*
X0326032Y0050292D01*
X0325962Y0050241D01*
X0325891Y0050190D01*
X0325828Y0050144D01*
X0325773Y0050102D01*
X0325718Y0050061D01*
X0325672Y0050025D01*
X0325635Y0049993D01*
X0325651Y0050038D01*
X0325668Y0050095D01*
X0325687Y0050161D01*
X0325706Y0050228D01*
X0325726Y0050303D01*
X0325747Y0050387D01*
X0325769Y0050471D01*
X0325792Y0050562D01*
X0325818Y0050660D01*
X0325843Y0050757D01*
X0325869Y0050861D01*
X0325898Y0050968D01*
X0325927Y0051075D01*
X0325957Y0051187D01*
X0325990Y0051300D01*
X0326022Y0051414D01*
X0326057Y0051530D01*
X0326093Y0051646D01*
X0326130Y0051762D01*
X0326169Y0051879D01*
X0326210Y0051994D01*
X0326251Y0052109D01*
X0326294Y0052223D01*
X0326339Y0052333D01*
X0326385Y0052444D01*
X0326433Y0052551D01*
X0326483Y0052652D01*
X0326534Y0052754D01*
X0326587Y0052850D01*
X0326642Y0052940D01*
X0326697Y0053029D01*
X0326756Y0053111D01*
X0326877Y0053258D01*
X0326941Y0053322D01*
X0327007Y0053376D01*
X0327074Y0053430D01*
X0327143Y0053473D01*
X0327216Y0053503D01*
X0327288Y0053533D01*
X0327363Y0053550D01*
X0327442Y0053554D01*
X0327520Y0053556D01*
X0327601Y0053545D01*
X0327771Y0053489D01*
X0327859Y0053445D01*
X0327950Y0053383D01*
M02*
