G75*
%MOIN*%
%OFA0B0*%
%FSLAX25Y25*%
%IPPOS*%
%LPD*%
%AMOC8*
5,1,8,0,0,1.08239X$1,22.5*
%
%ADD10C,0.00400*%
%ADD11C,0.01200*%
%ADD12C,0.00300*%
%ADD13C,0.01000*%
%ADD14C,0.00200*%
%ADD15C,0.00600*%
%ADD16C,0.00800*%
%ADD17C,0.00500*%
%ADD18R,0.03000X0.03400*%
%ADD19C,0.01600*%
D10*
X0026654Y0043950D02*
X0025886Y0044717D01*
X0026654Y0043950D02*
X0028188Y0043950D01*
X0028956Y0044717D01*
X0028956Y0045485D01*
X0028188Y0046252D01*
X0027421Y0046252D01*
X0028188Y0046252D02*
X0028956Y0047019D01*
X0028956Y0047787D01*
X0028188Y0048554D01*
X0026654Y0048554D01*
X0025886Y0047787D01*
X0026167Y0052075D02*
X0026934Y0052842D01*
X0026934Y0054377D01*
X0027702Y0055144D01*
X0028469Y0055144D01*
X0029236Y0054377D01*
X0029236Y0052842D01*
X0028469Y0052075D01*
X0026167Y0052075D02*
X0025400Y0052075D01*
X0024632Y0052842D01*
X0024632Y0054377D01*
X0025400Y0055144D01*
X0024632Y0056679D02*
X0029236Y0056679D01*
X0029236Y0059748D01*
X0029236Y0061283D02*
X0024632Y0061283D01*
X0024632Y0063585D01*
X0025400Y0064352D01*
X0026934Y0064352D01*
X0027702Y0063585D01*
X0027702Y0061283D01*
X0027702Y0062817D02*
X0029236Y0064352D01*
X0027702Y0065887D02*
X0024632Y0065887D01*
X0024632Y0068956D02*
X0027702Y0068956D01*
X0029236Y0067421D01*
X0027702Y0065887D01*
X0028469Y0070491D02*
X0029236Y0071258D01*
X0029236Y0072793D01*
X0028469Y0073560D01*
X0025400Y0073560D01*
X0024632Y0072793D01*
X0024632Y0071258D01*
X0025400Y0070491D01*
X0028469Y0070491D01*
X0028469Y0075095D02*
X0029236Y0075862D01*
X0029236Y0077397D01*
X0028469Y0078164D01*
X0027702Y0078164D01*
X0026934Y0077397D01*
X0026934Y0075862D01*
X0026167Y0075095D01*
X0025400Y0075095D01*
X0024632Y0075862D01*
X0024632Y0077397D01*
X0025400Y0078164D01*
X0047761Y0067304D02*
X0050063Y0067304D01*
X0050831Y0066537D01*
X0050831Y0065002D01*
X0050063Y0064235D01*
X0047761Y0064235D01*
X0047761Y0062700D02*
X0047761Y0067304D01*
X0052365Y0066537D02*
X0052365Y0065769D01*
X0053133Y0065002D01*
X0054667Y0065002D01*
X0055435Y0064235D01*
X0055435Y0063467D01*
X0054667Y0062700D01*
X0053133Y0062700D01*
X0052365Y0063467D01*
X0050831Y0062700D02*
X0049296Y0064235D01*
X0052365Y0066537D02*
X0053133Y0067304D01*
X0054667Y0067304D01*
X0055435Y0066537D01*
X0056969Y0066537D02*
X0056969Y0065769D01*
X0057737Y0065002D01*
X0059271Y0065002D01*
X0060039Y0064235D01*
X0060039Y0063467D01*
X0059271Y0062700D01*
X0057737Y0062700D01*
X0056969Y0063467D01*
X0056969Y0066537D02*
X0057737Y0067304D01*
X0059271Y0067304D01*
X0060039Y0066537D01*
X0061573Y0067304D02*
X0063108Y0067304D01*
X0062341Y0067304D02*
X0062341Y0062700D01*
X0063108Y0062700D02*
X0061573Y0062700D01*
X0048046Y0048554D02*
X0048046Y0043950D01*
X0046511Y0043950D02*
X0049581Y0043950D01*
X0046511Y0047019D02*
X0048046Y0048554D01*
X0039581Y0047787D02*
X0039581Y0047019D01*
X0036511Y0043950D01*
X0039581Y0043950D01*
X0039581Y0047787D02*
X0038813Y0048554D01*
X0037279Y0048554D01*
X0036511Y0047787D01*
X0026934Y0056679D02*
X0026934Y0058214D01*
X0024632Y0059748D02*
X0024632Y0056679D01*
X0180418Y0125200D02*
X0180418Y0130404D01*
X0183020Y0130404D01*
X0183887Y0129537D01*
X0183887Y0127802D01*
X0183020Y0126935D01*
X0180418Y0126935D01*
X0182153Y0126935D02*
X0183887Y0125200D01*
X0185574Y0126067D02*
X0186442Y0125200D01*
X0188176Y0125200D01*
X0189044Y0126067D01*
X0189044Y0127802D01*
X0188176Y0128670D01*
X0186442Y0128670D01*
X0185574Y0127802D01*
X0185574Y0126067D01*
X0190731Y0126067D02*
X0191598Y0125200D01*
X0194200Y0125200D01*
X0194200Y0124333D02*
X0193333Y0123465D01*
X0192465Y0123465D01*
X0194200Y0124333D02*
X0194200Y0128670D01*
X0190731Y0128670D02*
X0190731Y0126067D01*
X0201043Y0126067D02*
X0201911Y0125200D01*
X0203646Y0125200D01*
X0204513Y0126067D01*
X0206200Y0126067D02*
X0207067Y0125200D01*
X0208802Y0125200D01*
X0209669Y0126067D01*
X0209669Y0127802D01*
X0208802Y0128670D01*
X0207067Y0128670D01*
X0206200Y0127802D01*
X0206200Y0126067D01*
X0204513Y0129537D02*
X0203646Y0130404D01*
X0201911Y0130404D01*
X0201043Y0129537D01*
X0201043Y0126067D01*
X0211356Y0125200D02*
X0211356Y0130404D01*
X0212224Y0128670D02*
X0213958Y0128670D01*
X0214826Y0127802D01*
X0214826Y0125200D01*
X0216513Y0126067D02*
X0216513Y0127802D01*
X0217380Y0128670D01*
X0219115Y0128670D01*
X0219982Y0127802D01*
X0219982Y0126935D01*
X0216513Y0126935D01*
X0216513Y0126067D02*
X0217380Y0125200D01*
X0219115Y0125200D01*
X0221669Y0125200D02*
X0221669Y0128670D01*
X0224271Y0128670D01*
X0225139Y0127802D01*
X0225139Y0125200D01*
X0212224Y0128670D02*
X0211356Y0127802D01*
X0305257Y0125893D02*
X0309861Y0125893D01*
X0308327Y0125893D02*
X0306792Y0128195D01*
X0307559Y0129729D02*
X0306792Y0130497D01*
X0306792Y0132031D01*
X0307559Y0132799D01*
X0308327Y0132799D01*
X0308327Y0129729D01*
X0309094Y0129729D02*
X0307559Y0129729D01*
X0309094Y0129729D02*
X0309861Y0130497D01*
X0309861Y0132031D01*
X0309861Y0128195D02*
X0308327Y0125893D01*
X0309861Y0124358D02*
X0309861Y0122056D01*
X0309094Y0121289D01*
X0307559Y0121289D01*
X0306792Y0122056D01*
X0306792Y0124358D01*
X0307559Y0119754D02*
X0306792Y0118987D01*
X0306792Y0117452D01*
X0307559Y0116685D01*
X0309094Y0116685D01*
X0309861Y0117452D01*
X0309861Y0118987D01*
X0309094Y0119754D01*
X0307559Y0119754D01*
X0307559Y0115150D02*
X0308327Y0114383D01*
X0308327Y0112081D01*
X0309861Y0112081D02*
X0305257Y0112081D01*
X0305257Y0114383D01*
X0306025Y0115150D01*
X0307559Y0115150D01*
X0308327Y0113616D02*
X0309861Y0115150D01*
X0305257Y0105942D02*
X0305257Y0102873D01*
X0305257Y0101339D02*
X0305257Y0099804D01*
X0305257Y0100571D02*
X0309861Y0100571D01*
X0309861Y0099804D02*
X0309861Y0101339D01*
X0309861Y0098269D02*
X0305257Y0098269D01*
X0306792Y0096735D01*
X0305257Y0095200D01*
X0309861Y0095200D01*
X0309861Y0104408D02*
X0305257Y0104408D01*
X0306792Y0134333D02*
X0306792Y0135868D01*
X0306025Y0135101D02*
X0309094Y0135101D01*
X0309861Y0135868D01*
X0305257Y0142007D02*
X0305257Y0145076D01*
X0305257Y0143541D02*
X0309861Y0143541D01*
X0309094Y0146610D02*
X0307559Y0146610D01*
X0306792Y0147378D01*
X0306792Y0148912D01*
X0307559Y0149680D01*
X0308327Y0149680D01*
X0308327Y0146610D01*
X0309094Y0146610D02*
X0309861Y0147378D01*
X0309861Y0148912D01*
X0309094Y0151214D02*
X0308327Y0151982D01*
X0308327Y0154284D01*
X0307559Y0154284D02*
X0309861Y0154284D01*
X0309861Y0151982D01*
X0309094Y0151214D01*
X0306792Y0151982D02*
X0306792Y0153516D01*
X0307559Y0154284D01*
X0306792Y0155818D02*
X0306792Y0156586D01*
X0307559Y0157353D01*
X0306792Y0158120D01*
X0307559Y0158888D01*
X0309861Y0158888D01*
X0309861Y0157353D02*
X0307559Y0157353D01*
X0306792Y0155818D02*
X0309861Y0155818D01*
X0199861Y0073591D02*
X0199094Y0074358D01*
X0196025Y0074358D01*
X0195257Y0073591D01*
X0195257Y0072056D01*
X0196025Y0071289D01*
X0199094Y0071289D01*
X0199861Y0072056D01*
X0199861Y0073591D01*
X0197559Y0069754D02*
X0198327Y0068987D01*
X0198327Y0066685D01*
X0199861Y0066685D02*
X0195257Y0066685D01*
X0195257Y0068987D01*
X0196025Y0069754D01*
X0197559Y0069754D01*
X0195257Y0065150D02*
X0195257Y0063616D01*
X0195257Y0064383D02*
X0199861Y0064383D01*
X0199861Y0063616D02*
X0199861Y0065150D01*
X0199861Y0062081D02*
X0199861Y0059012D01*
X0195257Y0059012D01*
X0196025Y0052873D02*
X0195257Y0052106D01*
X0195257Y0050571D01*
X0196025Y0049804D01*
X0196792Y0049804D01*
X0197559Y0050571D01*
X0197559Y0052106D01*
X0198327Y0052873D01*
X0199094Y0052873D01*
X0199861Y0052106D01*
X0199861Y0050571D01*
X0199094Y0049804D01*
X0199861Y0048269D02*
X0199861Y0045200D01*
X0196792Y0048269D01*
X0196025Y0048269D01*
X0195257Y0047502D01*
X0195257Y0045967D01*
X0196025Y0045200D01*
D11*
X0193186Y0040000D02*
X0198186Y0035000D01*
X0227561Y0035000D01*
X0232561Y0040000D01*
X0232561Y0071875D01*
X0269436Y0066250D02*
X0270061Y0066875D01*
X0270061Y0072500D01*
X0271936Y0074375D01*
X0283186Y0074375D01*
X0294436Y0074375D01*
X0297561Y0071250D01*
X0303186Y0071250D01*
X0306936Y0067500D01*
X0306936Y0039375D01*
X0325061Y0032500D02*
X0337561Y0045000D01*
X0355061Y0045000D01*
X0362161Y0040000D02*
X0362161Y0058200D01*
X0370161Y0066200D01*
X0370161Y0199000D01*
X0390061Y0210300D02*
X0390061Y0212800D01*
X0387061Y0212800D01*
X0390061Y0212800D02*
X0400061Y0212800D01*
X0400061Y0210200D01*
X0335061Y0165000D02*
X0325061Y0175000D01*
X0280061Y0175000D01*
X0275061Y0180000D01*
X0255061Y0180000D01*
X0250061Y0180000D02*
X0232561Y0180000D01*
X0222561Y0190000D01*
X0190061Y0190000D01*
X0185061Y0185000D01*
X0130061Y0185000D01*
X0137561Y0143750D02*
X0136311Y0142500D01*
X0136311Y0116250D01*
X0137561Y0115000D01*
X0157561Y0115000D01*
X0162561Y0120000D01*
X0197561Y0120000D01*
X0202561Y0115000D01*
X0226311Y0115000D01*
X0227561Y0116250D01*
X0227561Y0131250D01*
X0225061Y0133750D01*
X0210061Y0133750D01*
X0200061Y0143750D01*
X0137561Y0143750D01*
X0137561Y0133750D02*
X0200061Y0133750D01*
X0201311Y0135000D01*
X0301311Y0167500D02*
X0301311Y0093750D01*
X0303811Y0091250D01*
X0308811Y0091250D02*
X0311311Y0093750D01*
X0311311Y0167500D01*
X0308811Y0170000D01*
X0303811Y0170000D02*
X0301311Y0167500D01*
X0335061Y0165000D02*
X0360061Y0165000D01*
X0195061Y0073750D02*
X0193186Y0071875D01*
X0193186Y0040000D01*
X0195061Y0035000D02*
X0147561Y0035000D01*
X0150686Y0043125D02*
X0181311Y0043125D01*
X0156311Y0047500D02*
X0156311Y0071250D01*
X0150686Y0075000D02*
X0148186Y0072500D01*
X0148186Y0045625D01*
X0150686Y0043125D01*
X0126936Y0042500D02*
X0125061Y0044375D01*
X0095061Y0044375D01*
X0093186Y0042500D01*
X0093186Y0008750D01*
X0093811Y0008125D01*
X0125686Y0020625D02*
X0126936Y0021875D01*
X0126936Y0042500D01*
X0068186Y0061250D02*
X0068186Y0078750D01*
X0067561Y0079375D01*
X0065686Y0079375D01*
X0046936Y0079375D02*
X0045061Y0079375D01*
X0044436Y0078750D01*
X0044436Y0060625D01*
X0045061Y0060000D01*
X0066936Y0060000D01*
X0068186Y0061250D01*
X0054436Y0046875D02*
X0049436Y0051875D01*
X0035061Y0051875D01*
X0033186Y0053750D01*
X0033186Y0081875D01*
X0031936Y0083125D01*
X0020061Y0083125D01*
X0054436Y0046875D02*
X0054436Y0011250D01*
X0052561Y0009375D01*
X0150686Y0075000D02*
X0180061Y0075000D01*
X0220061Y0032500D02*
X0325061Y0032500D01*
X0390061Y0029700D02*
X0390061Y0026800D01*
X0400061Y0026800D01*
X0400061Y0029800D01*
X0405061Y0030000D02*
X0416861Y0030000D01*
D12*
X0304536Y0038185D02*
X0302068Y0038185D01*
X0300833Y0039419D01*
X0302068Y0040654D01*
X0304536Y0040654D01*
X0304536Y0041868D02*
X0300833Y0041868D01*
X0302685Y0040654D02*
X0302685Y0038185D01*
X0304536Y0041868D02*
X0304536Y0044337D01*
X0304536Y0046785D02*
X0300833Y0046785D01*
X0300833Y0045551D02*
X0300833Y0048020D01*
X0305154Y0049234D02*
X0305154Y0051703D01*
X0304536Y0052917D02*
X0300833Y0052917D01*
X0300833Y0054769D01*
X0301450Y0055386D01*
X0302685Y0055386D01*
X0303302Y0054769D01*
X0303302Y0052917D01*
X0301450Y0056601D02*
X0302685Y0057835D01*
X0304536Y0057835D01*
X0302685Y0057835D02*
X0301450Y0059069D01*
X0300833Y0059069D01*
X0300833Y0060284D02*
X0300833Y0062135D01*
X0301450Y0062752D01*
X0302685Y0062752D01*
X0303302Y0062135D01*
X0303302Y0060284D01*
X0303302Y0061518D02*
X0304536Y0062752D01*
X0303919Y0063967D02*
X0301450Y0063967D01*
X0300833Y0064584D01*
X0300833Y0065818D01*
X0301450Y0066436D01*
X0303919Y0066436D01*
X0304536Y0065818D01*
X0304536Y0064584D01*
X0303919Y0063967D01*
X0304536Y0060284D02*
X0300833Y0060284D01*
X0300833Y0056601D02*
X0301450Y0056601D01*
X0289571Y0068275D02*
X0290805Y0069509D01*
X0290805Y0071978D01*
X0292020Y0070127D02*
X0294488Y0070127D01*
X0289571Y0068275D02*
X0288336Y0069509D01*
X0288336Y0071978D01*
X0279488Y0070127D02*
X0277020Y0070127D01*
X0275805Y0069509D02*
X0275805Y0071978D01*
X0273336Y0071978D02*
X0273336Y0069509D01*
X0274571Y0068275D01*
X0275805Y0069509D01*
X0278254Y0068892D02*
X0278254Y0071361D01*
X0221754Y0118900D02*
X0221754Y0121369D01*
X0220520Y0122603D01*
X0219286Y0121369D01*
X0219286Y0118900D01*
X0219286Y0120752D02*
X0221754Y0120752D01*
X0214378Y0120752D02*
X0213761Y0120752D01*
X0213761Y0121369D01*
X0214378Y0121369D01*
X0214378Y0120752D01*
X0214378Y0119517D02*
X0214378Y0118900D01*
X0213761Y0118900D01*
X0213761Y0119517D01*
X0214378Y0119517D01*
X0212546Y0120134D02*
X0212546Y0122603D01*
X0210078Y0122603D02*
X0210078Y0120134D01*
X0211312Y0118900D01*
X0212546Y0120134D01*
X0208863Y0118900D02*
X0206395Y0118900D01*
X0206395Y0122603D01*
X0208863Y0122603D01*
X0207629Y0120752D02*
X0206395Y0120752D01*
X0205180Y0120752D02*
X0204563Y0120134D01*
X0202711Y0120134D01*
X0202711Y0118900D02*
X0202711Y0122603D01*
X0204563Y0122603D01*
X0205180Y0121986D01*
X0205180Y0120752D01*
X0203946Y0120134D02*
X0205180Y0118900D01*
X0177615Y0126400D02*
X0176998Y0126400D01*
X0176998Y0127017D01*
X0177615Y0127017D01*
X0177615Y0126400D01*
X0175784Y0126400D02*
X0173932Y0126400D01*
X0173315Y0127017D01*
X0173315Y0128869D01*
X0172101Y0128252D02*
X0172101Y0127017D01*
X0171484Y0126400D01*
X0169632Y0126400D01*
X0169632Y0130103D01*
X0169632Y0128869D02*
X0171484Y0128869D01*
X0172101Y0128252D01*
X0175784Y0128869D02*
X0175784Y0125783D01*
X0175167Y0125166D01*
X0174550Y0125166D01*
X0176998Y0128252D02*
X0176998Y0128869D01*
X0177615Y0128869D01*
X0177615Y0128252D01*
X0176998Y0128252D01*
X0164734Y0128869D02*
X0162883Y0128869D01*
X0162266Y0128252D01*
X0162266Y0127017D01*
X0162883Y0126400D01*
X0164734Y0126400D01*
X0164734Y0130103D01*
X0161051Y0128252D02*
X0161051Y0127634D01*
X0158583Y0127634D01*
X0158583Y0127017D02*
X0158583Y0128252D01*
X0159200Y0128869D01*
X0160434Y0128869D01*
X0161051Y0128252D01*
X0160434Y0126400D02*
X0159200Y0126400D01*
X0158583Y0127017D01*
X0157368Y0126400D02*
X0157368Y0128252D01*
X0156751Y0128869D01*
X0154899Y0128869D01*
X0154899Y0126400D01*
X0153685Y0126400D02*
X0151833Y0126400D01*
X0151216Y0127017D01*
X0151216Y0128252D01*
X0151833Y0128869D01*
X0153685Y0128869D01*
X0153685Y0125783D01*
X0153068Y0125166D01*
X0152451Y0125166D01*
X0149995Y0126400D02*
X0148761Y0126400D01*
X0149378Y0126400D02*
X0149378Y0128869D01*
X0148761Y0128869D01*
X0147546Y0128869D02*
X0145695Y0128869D01*
X0145078Y0128252D01*
X0145695Y0127634D01*
X0146929Y0127634D01*
X0147546Y0127017D01*
X0146929Y0126400D01*
X0145078Y0126400D01*
X0143863Y0127634D02*
X0141395Y0127634D01*
X0141395Y0127017D02*
X0141395Y0128252D01*
X0142012Y0128869D01*
X0143246Y0128869D01*
X0143863Y0128252D01*
X0143863Y0127634D01*
X0143246Y0126400D02*
X0142012Y0126400D01*
X0141395Y0127017D01*
X0140180Y0127017D02*
X0140180Y0129486D01*
X0139563Y0130103D01*
X0137711Y0130103D01*
X0137711Y0126400D01*
X0139563Y0126400D01*
X0140180Y0127017D01*
X0140180Y0121353D02*
X0138946Y0120736D01*
X0137711Y0119502D01*
X0139563Y0119502D01*
X0140180Y0118884D01*
X0140180Y0118267D01*
X0139563Y0117650D01*
X0138329Y0117650D01*
X0137711Y0118267D01*
X0137711Y0119502D01*
X0141395Y0117650D02*
X0143863Y0121353D01*
X0145078Y0121353D02*
X0145078Y0119502D01*
X0146312Y0120119D01*
X0146929Y0120119D01*
X0147546Y0119502D01*
X0147546Y0118267D01*
X0146929Y0117650D01*
X0145695Y0117650D01*
X0145078Y0118267D01*
X0148761Y0117650D02*
X0151230Y0121353D01*
X0152444Y0120119D02*
X0153678Y0121353D01*
X0153678Y0117650D01*
X0152444Y0117650D02*
X0154913Y0117650D01*
X0156127Y0118267D02*
X0156744Y0117650D01*
X0157979Y0117650D01*
X0158596Y0118267D01*
X0158596Y0119502D01*
X0157979Y0120119D01*
X0157362Y0120119D01*
X0156127Y0119502D01*
X0156127Y0121353D01*
X0158596Y0121353D01*
X0147546Y0121353D02*
X0145078Y0121353D01*
X0149378Y0130103D02*
X0149378Y0130720D01*
X0149385Y0136400D02*
X0150002Y0137017D01*
X0150002Y0138252D01*
X0149385Y0138869D01*
X0148150Y0138869D01*
X0147533Y0138252D01*
X0147533Y0137017D01*
X0148150Y0136400D01*
X0149385Y0136400D01*
X0151216Y0136400D02*
X0151216Y0138869D01*
X0153068Y0138869D01*
X0153685Y0138252D01*
X0153685Y0136400D01*
X0154899Y0136400D02*
X0156134Y0136400D01*
X0155517Y0136400D02*
X0155517Y0138869D01*
X0154899Y0138869D01*
X0155517Y0140103D02*
X0155517Y0140720D01*
X0157972Y0138869D02*
X0157355Y0138252D01*
X0157355Y0137017D01*
X0157972Y0136400D01*
X0159824Y0136400D01*
X0161038Y0136400D02*
X0162890Y0136400D01*
X0163507Y0137017D01*
X0162890Y0137634D01*
X0161655Y0137634D01*
X0161038Y0138252D01*
X0161655Y0138869D01*
X0163507Y0138869D01*
X0159824Y0138869D02*
X0157972Y0138869D01*
X0168404Y0138252D02*
X0170256Y0138252D01*
X0170873Y0137634D01*
X0170873Y0137017D01*
X0170256Y0136400D01*
X0168404Y0136400D01*
X0168404Y0140103D01*
X0170256Y0140103D01*
X0170873Y0139486D01*
X0170873Y0138869D01*
X0170256Y0138252D01*
X0172087Y0138252D02*
X0172087Y0137017D01*
X0172705Y0136400D01*
X0173939Y0136400D01*
X0174556Y0137017D01*
X0174556Y0138252D01*
X0173939Y0138869D01*
X0172705Y0138869D01*
X0172087Y0138252D01*
X0175771Y0137017D02*
X0176388Y0137634D01*
X0178239Y0137634D01*
X0178239Y0138252D02*
X0178239Y0136400D01*
X0176388Y0136400D01*
X0175771Y0137017D01*
X0176388Y0138869D02*
X0177622Y0138869D01*
X0178239Y0138252D01*
X0179454Y0138869D02*
X0179454Y0136400D01*
X0179454Y0137634D02*
X0180688Y0138869D01*
X0181305Y0138869D01*
X0182523Y0138252D02*
X0183140Y0138869D01*
X0184992Y0138869D01*
X0184992Y0140103D02*
X0184992Y0136400D01*
X0183140Y0136400D01*
X0182523Y0137017D01*
X0182523Y0138252D01*
X0209333Y0142650D02*
X0209333Y0145119D01*
X0209333Y0146333D02*
X0213036Y0148802D01*
X0213036Y0146333D02*
X0209333Y0148802D01*
X0209333Y0143884D02*
X0213036Y0143884D01*
X0220583Y0143877D02*
X0220583Y0142025D01*
X0224286Y0142025D01*
X0223052Y0142025D02*
X0223052Y0143877D01*
X0222435Y0144494D01*
X0221200Y0144494D01*
X0220583Y0143877D01*
X0220583Y0145708D02*
X0224286Y0148177D01*
X0224286Y0145708D02*
X0220583Y0148177D01*
X0224286Y0144494D02*
X0223052Y0143259D01*
X0284333Y0137507D02*
X0287419Y0137507D01*
X0288036Y0136890D01*
X0288036Y0135656D01*
X0287419Y0135039D01*
X0284333Y0135039D01*
X0284333Y0133824D02*
X0288036Y0133824D01*
X0288036Y0131355D02*
X0284333Y0131355D01*
X0285568Y0132590D01*
X0284333Y0133824D01*
X0284333Y0130134D02*
X0284333Y0128900D01*
X0284333Y0129517D02*
X0288036Y0129517D01*
X0288036Y0128900D02*
X0288036Y0130134D01*
X0288044Y0157025D02*
X0285575Y0157025D01*
X0284958Y0157642D01*
X0284958Y0158877D01*
X0285575Y0159494D01*
X0286810Y0159494D02*
X0286810Y0158259D01*
X0286810Y0159494D02*
X0288044Y0159494D01*
X0288661Y0158877D01*
X0288661Y0157642D01*
X0288044Y0157025D01*
X0287427Y0160708D02*
X0287427Y0162560D01*
X0286810Y0163177D01*
X0285575Y0163177D01*
X0284958Y0162560D01*
X0284958Y0160708D01*
X0288661Y0160708D01*
X0288044Y0164391D02*
X0288661Y0165008D01*
X0288661Y0166243D01*
X0288044Y0166860D01*
X0287427Y0166860D01*
X0286810Y0166243D01*
X0286810Y0165008D01*
X0286193Y0164391D01*
X0285575Y0164391D01*
X0284958Y0165008D01*
X0284958Y0166243D01*
X0285575Y0166860D01*
X0223105Y0177650D02*
X0220636Y0177650D01*
X0220636Y0181353D01*
X0223105Y0181353D01*
X0221870Y0179502D02*
X0220636Y0179502D01*
X0219421Y0181353D02*
X0216953Y0181353D01*
X0216953Y0177650D01*
X0219421Y0177650D01*
X0218187Y0179502D02*
X0216953Y0179502D01*
X0215738Y0180119D02*
X0215121Y0179502D01*
X0213270Y0179502D01*
X0215121Y0179502D02*
X0215738Y0178884D01*
X0215738Y0178267D01*
X0215121Y0177650D01*
X0213270Y0177650D01*
X0213270Y0181353D01*
X0215121Y0181353D01*
X0215738Y0180736D01*
X0215738Y0180119D01*
X0212055Y0181353D02*
X0209586Y0177650D01*
X0212055Y0177650D02*
X0209586Y0181353D01*
X0145695Y0140720D02*
X0145695Y0140103D01*
X0145695Y0138869D02*
X0145695Y0136400D01*
X0145078Y0136400D02*
X0146312Y0136400D01*
X0145695Y0138869D02*
X0145078Y0138869D01*
X0143863Y0138869D02*
X0142629Y0136400D01*
X0141395Y0138869D01*
X0140180Y0138869D02*
X0140180Y0136400D01*
X0140180Y0138252D02*
X0137711Y0138252D01*
X0137711Y0138869D02*
X0137711Y0136400D01*
X0137711Y0138869D02*
X0138946Y0140103D01*
X0140180Y0138869D01*
X0093911Y0138519D02*
X0093294Y0139136D01*
X0090825Y0139136D01*
X0090208Y0138519D01*
X0090208Y0137285D01*
X0090825Y0136667D01*
X0093294Y0136667D01*
X0093911Y0137285D01*
X0093911Y0138519D01*
X0093911Y0135453D02*
X0092677Y0134219D01*
X0092677Y0134836D02*
X0092677Y0132984D01*
X0093911Y0132984D02*
X0090208Y0132984D01*
X0090208Y0134836D01*
X0090825Y0135453D01*
X0092060Y0135453D01*
X0092677Y0134836D01*
X0093294Y0131770D02*
X0093911Y0131153D01*
X0093911Y0129918D01*
X0093294Y0129301D01*
X0090825Y0129301D01*
X0090208Y0129918D01*
X0090208Y0131153D01*
X0090825Y0131770D01*
X0090208Y0128080D02*
X0090208Y0126846D01*
X0090208Y0127463D02*
X0093911Y0127463D01*
X0093911Y0126846D02*
X0093911Y0128080D01*
X0093911Y0125631D02*
X0090208Y0125631D01*
X0091443Y0124397D01*
X0090208Y0123163D01*
X0093911Y0123163D01*
X0093294Y0144034D02*
X0093911Y0144651D01*
X0093911Y0145885D01*
X0093294Y0146502D01*
X0092677Y0146502D01*
X0092060Y0145885D01*
X0092060Y0144651D01*
X0091443Y0144034D01*
X0090825Y0144034D01*
X0090208Y0144651D01*
X0090208Y0145885D01*
X0090825Y0146502D01*
X0090208Y0147717D02*
X0090208Y0149568D01*
X0090825Y0150186D01*
X0093294Y0150186D01*
X0093911Y0149568D01*
X0093911Y0147717D01*
X0090208Y0147717D01*
X0162704Y0070728D02*
X0163938Y0070728D01*
X0164555Y0070111D01*
X0164555Y0069494D01*
X0163938Y0068877D01*
X0164555Y0068259D01*
X0164555Y0067642D01*
X0163938Y0067025D01*
X0162704Y0067025D01*
X0162086Y0067642D01*
X0163321Y0068877D02*
X0163938Y0068877D01*
X0165770Y0069494D02*
X0167004Y0067025D01*
X0168238Y0069494D01*
X0169453Y0070111D02*
X0170070Y0070728D01*
X0171304Y0070728D01*
X0171921Y0070111D01*
X0171921Y0069494D01*
X0171304Y0068877D01*
X0171921Y0068259D01*
X0171921Y0067642D01*
X0171304Y0067025D01*
X0170070Y0067025D01*
X0169453Y0067642D01*
X0170687Y0068877D02*
X0171304Y0068877D01*
X0162704Y0070728D02*
X0162086Y0070111D01*
X0154286Y0067917D02*
X0154286Y0066066D01*
X0150583Y0066066D01*
X0150583Y0067917D01*
X0151200Y0068534D01*
X0153669Y0068534D01*
X0154286Y0067917D01*
X0153669Y0064851D02*
X0151200Y0064851D01*
X0150583Y0064234D01*
X0150583Y0063000D01*
X0151200Y0062383D01*
X0153669Y0062383D01*
X0154286Y0063000D01*
X0154286Y0064234D01*
X0153669Y0064851D01*
X0153669Y0061168D02*
X0151200Y0061168D01*
X0150583Y0060551D01*
X0150583Y0059317D01*
X0151200Y0058699D01*
X0153669Y0058699D01*
X0154286Y0059317D01*
X0154286Y0060551D01*
X0153669Y0061168D01*
X0153669Y0057485D02*
X0152435Y0057485D01*
X0152435Y0056251D01*
X0153669Y0057485D02*
X0154286Y0056868D01*
X0154286Y0055633D01*
X0153669Y0055016D01*
X0151200Y0055016D01*
X0150583Y0055633D01*
X0150583Y0056868D01*
X0151200Y0057485D01*
X0154904Y0053802D02*
X0154904Y0051333D01*
X0156707Y0050478D02*
X0156707Y0048009D01*
X0157941Y0046775D01*
X0159175Y0048009D01*
X0159175Y0050478D01*
X0160390Y0050478D02*
X0162241Y0050478D01*
X0162858Y0049861D01*
X0162858Y0049244D01*
X0162241Y0048627D01*
X0160390Y0048627D01*
X0160390Y0050478D02*
X0160390Y0046775D01*
X0162241Y0046775D01*
X0162858Y0047392D01*
X0162858Y0048009D01*
X0162241Y0048627D01*
X0164073Y0047392D02*
X0164690Y0048009D01*
X0166542Y0048009D01*
X0166542Y0048627D02*
X0166542Y0046775D01*
X0164690Y0046775D01*
X0164073Y0047392D01*
X0164690Y0049244D02*
X0165924Y0049244D01*
X0166542Y0048627D01*
X0167756Y0049244D02*
X0168990Y0049244D01*
X0168373Y0049861D02*
X0168373Y0047392D01*
X0168990Y0046775D01*
X0154286Y0048884D02*
X0153052Y0050119D01*
X0150583Y0050119D01*
X0150583Y0047650D02*
X0153052Y0047650D01*
X0154286Y0048884D01*
X0163336Y0057642D02*
X0163954Y0057025D01*
X0165188Y0057025D01*
X0165805Y0057642D01*
X0165805Y0058877D01*
X0165188Y0059494D01*
X0164571Y0059494D01*
X0163336Y0058877D01*
X0163336Y0060728D01*
X0165805Y0060728D01*
X0167020Y0059494D02*
X0168254Y0057025D01*
X0169488Y0059494D01*
X0122122Y0042353D02*
X0119653Y0042353D01*
X0119653Y0038650D01*
X0122122Y0038650D01*
X0120888Y0040502D02*
X0119653Y0040502D01*
X0118439Y0040502D02*
X0117822Y0039884D01*
X0115970Y0039884D01*
X0115970Y0038650D02*
X0115970Y0042353D01*
X0117822Y0042353D01*
X0118439Y0041736D01*
X0118439Y0040502D01*
X0117204Y0039884D02*
X0118439Y0038650D01*
X0114749Y0038650D02*
X0113515Y0038650D01*
X0114132Y0038650D02*
X0114132Y0042353D01*
X0113515Y0042353D02*
X0114749Y0042353D01*
X0112300Y0042353D02*
X0112300Y0038650D01*
X0111066Y0039884D01*
X0109832Y0038650D01*
X0109832Y0042353D01*
X0108617Y0042353D02*
X0106148Y0042353D01*
X0107383Y0042353D02*
X0107383Y0038650D01*
X0104934Y0039267D02*
X0104934Y0041736D01*
X0104317Y0042353D01*
X0103082Y0042353D01*
X0102465Y0041736D01*
X0102465Y0039267D01*
X0103082Y0038650D01*
X0104317Y0038650D01*
X0104934Y0039267D01*
X0101251Y0038650D02*
X0101251Y0042353D01*
X0101251Y0040502D02*
X0098782Y0040502D01*
X0098782Y0042353D02*
X0098782Y0038650D01*
D13*
X0248186Y0124375D02*
X0288186Y0124375D01*
X0290061Y0126250D01*
X0290061Y0141250D01*
X0288811Y0142500D01*
X0282061Y0141250D02*
X0282061Y0135750D01*
X0282061Y0141250D02*
X0278061Y0141250D01*
X0288811Y0153125D02*
X0290686Y0155000D01*
X0290686Y0170625D01*
X0289436Y0171875D01*
X0282061Y0170000D02*
X0282061Y0164500D01*
X0282061Y0170000D02*
X0278061Y0170000D01*
X0275061Y0156000D02*
X0255061Y0156000D01*
X0247561Y0153125D02*
X0288811Y0153125D01*
X0252061Y0141250D02*
X0248061Y0141250D01*
X0248061Y0135750D01*
X0255061Y0127250D02*
X0275061Y0127250D01*
X0228811Y0142500D02*
X0226936Y0140625D01*
X0220061Y0140625D01*
X0218811Y0141875D01*
X0218811Y0144375D01*
X0215061Y0144375D02*
X0215061Y0141875D01*
X0213811Y0140625D01*
X0206936Y0140625D01*
X0205061Y0142500D01*
X0205061Y0161875D01*
X0205061Y0163750D02*
X0205061Y0179375D01*
X0206311Y0180625D01*
X0227561Y0180625D02*
X0228811Y0179375D01*
X0228811Y0163750D01*
X0228811Y0161875D02*
X0228811Y0142500D01*
X0248061Y0164500D02*
X0248061Y0170000D01*
X0252061Y0170000D01*
X0283186Y0074375D02*
X0283186Y0073750D01*
X0283186Y0072500D02*
X0283186Y0071875D01*
X0283186Y0070625D02*
X0283186Y0070000D01*
X0283186Y0068750D02*
X0283186Y0068125D01*
X0283186Y0066875D02*
X0283186Y0066250D01*
D14*
X0292760Y0134475D02*
X0292760Y0135576D01*
X0293127Y0135943D01*
X0294594Y0135943D01*
X0294961Y0135576D01*
X0294961Y0134475D01*
X0292760Y0134475D01*
X0293127Y0136685D02*
X0294594Y0136685D01*
X0294961Y0137052D01*
X0294961Y0137786D01*
X0294594Y0138153D01*
X0293127Y0138153D01*
X0292760Y0137786D01*
X0292760Y0137052D01*
X0293127Y0136685D01*
X0292760Y0141105D02*
X0294961Y0142573D01*
X0292760Y0142573D01*
X0293127Y0143315D02*
X0294594Y0143315D01*
X0294961Y0143681D01*
X0294961Y0144415D01*
X0294594Y0144782D01*
X0293127Y0144782D01*
X0292760Y0144415D01*
X0292760Y0143681D01*
X0293127Y0143315D01*
X0292760Y0145524D02*
X0292760Y0146992D01*
X0292760Y0146258D02*
X0294961Y0146258D01*
X0294594Y0149944D02*
X0294961Y0150311D01*
X0294961Y0151045D01*
X0294594Y0151412D01*
X0294594Y0152154D02*
X0294961Y0152521D01*
X0294961Y0153255D01*
X0294594Y0153622D01*
X0293127Y0153622D01*
X0292760Y0153255D01*
X0292760Y0152521D01*
X0293127Y0152154D01*
X0294594Y0152154D01*
X0293127Y0151412D02*
X0292760Y0151045D01*
X0292760Y0150311D01*
X0293127Y0149944D01*
X0294594Y0149944D01*
X0294961Y0154364D02*
X0292760Y0154364D01*
X0294961Y0155832D01*
X0292760Y0155832D01*
X0292760Y0156574D02*
X0292760Y0158042D01*
X0292760Y0158784D02*
X0294594Y0158784D01*
X0294961Y0159151D01*
X0294961Y0159885D01*
X0294594Y0160252D01*
X0292760Y0160252D01*
X0293127Y0160994D02*
X0293494Y0160994D01*
X0293860Y0161361D01*
X0293860Y0162094D01*
X0294227Y0162461D01*
X0294594Y0162461D01*
X0294961Y0162094D01*
X0294961Y0161361D01*
X0294594Y0160994D01*
X0293127Y0160994D02*
X0292760Y0161361D01*
X0292760Y0162094D01*
X0293127Y0162461D01*
X0292760Y0163203D02*
X0294961Y0163203D01*
X0294961Y0164671D01*
X0293860Y0163937D02*
X0293860Y0163203D01*
X0292760Y0163203D02*
X0292760Y0164671D01*
X0293860Y0157308D02*
X0293860Y0156574D01*
X0292760Y0156574D02*
X0294961Y0156574D01*
X0294961Y0141105D02*
X0292760Y0141105D01*
D15*
X0287859Y0178300D02*
X0287859Y0180569D01*
X0287859Y0179434D02*
X0291261Y0179434D01*
X0297859Y0180001D02*
X0298426Y0180569D01*
X0299560Y0180569D01*
X0300127Y0180001D01*
X0300127Y0178300D01*
X0300127Y0179434D02*
X0301261Y0180569D01*
X0301261Y0181983D02*
X0297859Y0184252D01*
X0298426Y0185666D02*
X0297859Y0186233D01*
X0297859Y0187368D01*
X0298426Y0187935D01*
X0298993Y0187935D01*
X0299560Y0187368D01*
X0300127Y0187935D01*
X0300694Y0187935D01*
X0301261Y0187368D01*
X0301261Y0186233D01*
X0300694Y0185666D01*
X0301261Y0184252D02*
X0297859Y0181983D01*
X0297859Y0180001D02*
X0297859Y0178300D01*
X0301261Y0178300D01*
X0307859Y0178300D02*
X0307859Y0180569D01*
X0307859Y0179434D02*
X0311261Y0179434D01*
X0311261Y0181983D02*
X0307859Y0184252D01*
X0308426Y0185666D02*
X0307859Y0186233D01*
X0307859Y0187368D01*
X0308426Y0187935D01*
X0308993Y0187935D01*
X0311261Y0185666D01*
X0311261Y0187935D01*
X0311261Y0184252D02*
X0307859Y0181983D01*
X0299560Y0186801D02*
X0299560Y0187368D01*
X0298993Y0192300D02*
X0297859Y0193434D01*
X0301261Y0193434D01*
X0301261Y0192300D02*
X0301261Y0194569D01*
X0300694Y0195983D02*
X0301261Y0196550D01*
X0301261Y0197685D01*
X0300694Y0198252D01*
X0299560Y0198252D01*
X0298993Y0197685D01*
X0298993Y0197117D01*
X0299560Y0195983D01*
X0297859Y0195983D01*
X0297859Y0198252D01*
X0291261Y0197685D02*
X0287859Y0197685D01*
X0289560Y0195983D01*
X0289560Y0198252D01*
X0291261Y0194569D02*
X0291261Y0192300D01*
X0291261Y0193434D02*
X0287859Y0193434D01*
X0288993Y0192300D01*
X0288993Y0187935D02*
X0289560Y0187368D01*
X0290127Y0187935D01*
X0290694Y0187935D01*
X0291261Y0187368D01*
X0291261Y0186233D01*
X0290694Y0185666D01*
X0291261Y0184252D02*
X0287859Y0181983D01*
X0287859Y0184252D02*
X0291261Y0181983D01*
X0288426Y0185666D02*
X0287859Y0186233D01*
X0287859Y0187368D01*
X0288426Y0187935D01*
X0288993Y0187935D01*
X0289560Y0187368D02*
X0289560Y0186801D01*
X0271261Y0186983D02*
X0267859Y0189252D01*
X0268426Y0190666D02*
X0267859Y0191233D01*
X0267859Y0192368D01*
X0268426Y0192935D01*
X0270694Y0190666D01*
X0271261Y0191233D01*
X0271261Y0192368D01*
X0270694Y0192935D01*
X0268426Y0192935D01*
X0268426Y0190666D02*
X0270694Y0190666D01*
X0271261Y0189252D02*
X0267859Y0186983D01*
X0268426Y0185569D02*
X0269560Y0185569D01*
X0270127Y0185001D01*
X0270127Y0183300D01*
X0270127Y0184434D02*
X0271261Y0185569D01*
X0271261Y0183300D02*
X0267859Y0183300D01*
X0267859Y0185001D01*
X0268426Y0185569D01*
X0261261Y0184434D02*
X0257859Y0184434D01*
X0257859Y0183300D02*
X0257859Y0185569D01*
X0257859Y0186983D02*
X0261261Y0189252D01*
X0260694Y0190666D02*
X0258426Y0192935D01*
X0260694Y0192935D01*
X0261261Y0192368D01*
X0261261Y0191233D01*
X0260694Y0190666D01*
X0258426Y0190666D01*
X0257859Y0191233D01*
X0257859Y0192368D01*
X0258426Y0192935D01*
X0258993Y0195800D02*
X0257859Y0196934D01*
X0261261Y0196934D01*
X0261261Y0195800D02*
X0261261Y0198069D01*
X0267859Y0197501D02*
X0267859Y0196367D01*
X0268426Y0195800D01*
X0270694Y0195800D01*
X0268426Y0198069D01*
X0270694Y0198069D01*
X0271261Y0197501D01*
X0271261Y0196367D01*
X0270694Y0195800D01*
X0268426Y0198069D02*
X0267859Y0197501D01*
X0261261Y0186983D02*
X0257859Y0189252D01*
X0251261Y0193300D02*
X0248993Y0195569D01*
X0248426Y0195569D01*
X0247859Y0195001D01*
X0247859Y0193867D01*
X0248426Y0193300D01*
X0251261Y0193300D02*
X0251261Y0195569D01*
X0241261Y0195001D02*
X0241261Y0193867D01*
X0240694Y0193300D01*
X0239560Y0194434D02*
X0239560Y0195001D01*
X0240127Y0195569D01*
X0240694Y0195569D01*
X0241261Y0195001D01*
X0239560Y0195001D02*
X0238993Y0195569D01*
X0238426Y0195569D01*
X0237859Y0195001D01*
X0237859Y0193867D01*
X0238426Y0193300D01*
X0231261Y0195001D02*
X0227859Y0195001D01*
X0229560Y0193300D01*
X0229560Y0195569D01*
X0221261Y0195001D02*
X0221261Y0193867D01*
X0220694Y0193300D01*
X0219560Y0193300D02*
X0218993Y0194434D01*
X0218993Y0195001D01*
X0219560Y0195569D01*
X0220694Y0195569D01*
X0221261Y0195001D01*
X0219560Y0193300D02*
X0217859Y0193300D01*
X0217859Y0195569D01*
X0211261Y0195001D02*
X0211261Y0193867D01*
X0210694Y0193300D01*
X0209560Y0193300D01*
X0209560Y0195001D01*
X0210127Y0195569D01*
X0210694Y0195569D01*
X0211261Y0195001D01*
X0209560Y0193300D02*
X0208426Y0194434D01*
X0207859Y0195569D01*
X0201261Y0193300D02*
X0200694Y0193300D01*
X0198426Y0195569D01*
X0197859Y0195569D01*
X0197859Y0193300D01*
X0186261Y0193867D02*
X0185694Y0193300D01*
X0185127Y0193300D01*
X0184560Y0193867D01*
X0184560Y0195001D01*
X0185127Y0195569D01*
X0185694Y0195569D01*
X0186261Y0195001D01*
X0186261Y0193867D01*
X0184560Y0193867D02*
X0183993Y0193300D01*
X0183426Y0193300D01*
X0182859Y0193867D01*
X0182859Y0195001D01*
X0183426Y0195569D01*
X0183993Y0195569D01*
X0184560Y0195001D01*
X0176261Y0195001D02*
X0176261Y0193867D01*
X0175694Y0193300D01*
X0174560Y0193867D02*
X0174560Y0195569D01*
X0175694Y0195569D02*
X0173426Y0195569D01*
X0172859Y0195001D01*
X0172859Y0193867D01*
X0173426Y0193300D01*
X0173993Y0193300D01*
X0174560Y0193867D01*
X0176261Y0195001D02*
X0175694Y0195569D01*
X0166261Y0195050D02*
X0165694Y0194483D01*
X0163426Y0196752D01*
X0165694Y0196752D01*
X0166261Y0196185D01*
X0166261Y0195050D01*
X0165694Y0194483D02*
X0163426Y0194483D01*
X0162859Y0195050D01*
X0162859Y0196185D01*
X0163426Y0196752D01*
X0166261Y0193069D02*
X0166261Y0190800D01*
X0166261Y0191934D02*
X0162859Y0191934D01*
X0163993Y0190800D01*
X0156261Y0190800D02*
X0156261Y0193069D01*
X0156261Y0191934D02*
X0152859Y0191934D01*
X0153993Y0190800D01*
X0153993Y0194483D02*
X0152859Y0195617D01*
X0156261Y0195617D01*
X0156261Y0194483D02*
X0156261Y0196752D01*
X0146261Y0196752D02*
X0146261Y0194483D01*
X0143993Y0196752D01*
X0143426Y0196752D01*
X0142859Y0196185D01*
X0142859Y0195050D01*
X0143426Y0194483D01*
X0142859Y0191934D02*
X0146261Y0191934D01*
X0146261Y0190800D02*
X0146261Y0193069D01*
X0143993Y0190800D02*
X0142859Y0191934D01*
X0136261Y0191934D02*
X0132859Y0191934D01*
X0133993Y0190800D01*
X0136261Y0190800D02*
X0136261Y0193069D01*
X0135694Y0194483D02*
X0136261Y0195050D01*
X0136261Y0196185D01*
X0135694Y0196752D01*
X0135127Y0196752D01*
X0134560Y0196185D01*
X0134560Y0195617D01*
X0134560Y0196185D02*
X0133993Y0196752D01*
X0133426Y0196752D01*
X0132859Y0196185D01*
X0132859Y0195050D01*
X0133426Y0194483D01*
X0124761Y0194617D02*
X0124761Y0196318D01*
X0124194Y0196885D01*
X0121926Y0196885D01*
X0121359Y0196318D01*
X0121359Y0194617D01*
X0124761Y0194617D01*
X0124761Y0193202D02*
X0121359Y0193202D01*
X0121359Y0190934D02*
X0124761Y0193202D01*
X0124761Y0190934D02*
X0121359Y0190934D01*
X0121926Y0189519D02*
X0121359Y0188952D01*
X0121359Y0187818D01*
X0121926Y0187251D01*
X0124194Y0187251D01*
X0124761Y0187818D01*
X0124761Y0188952D01*
X0124194Y0189519D01*
X0123060Y0189519D01*
X0123060Y0188385D01*
X0115261Y0189519D02*
X0114127Y0188385D01*
X0114127Y0188952D02*
X0114127Y0187251D01*
X0115261Y0187251D02*
X0111859Y0187251D01*
X0111859Y0188952D01*
X0112426Y0189519D01*
X0113560Y0189519D01*
X0114127Y0188952D01*
X0113560Y0190934D02*
X0113560Y0192068D01*
X0111859Y0190934D02*
X0115261Y0190934D01*
X0115261Y0193202D01*
X0115261Y0194617D02*
X0111859Y0194617D01*
X0111859Y0196885D01*
X0113560Y0195751D02*
X0113560Y0194617D01*
X0111859Y0193202D02*
X0111859Y0190934D01*
X0112993Y0185836D02*
X0115261Y0185836D01*
X0113560Y0185836D02*
X0113560Y0183567D01*
X0112993Y0183567D02*
X0111859Y0184702D01*
X0112993Y0185836D01*
X0112993Y0183567D02*
X0115261Y0183567D01*
X0148949Y0174931D02*
X0148949Y0172569D01*
X0153674Y0172569D02*
X0153674Y0174931D01*
X0153674Y0157431D02*
X0153674Y0155069D01*
X0148949Y0155069D02*
X0148949Y0157431D01*
X0139924Y0098681D02*
X0139924Y0096319D01*
X0135199Y0096319D02*
X0135199Y0098681D01*
X0123743Y0084862D02*
X0121380Y0084862D01*
X0121380Y0080138D02*
X0123743Y0080138D01*
X0111243Y0080138D02*
X0108880Y0080138D01*
X0108880Y0084862D02*
X0111243Y0084862D01*
X0098743Y0084862D02*
X0096380Y0084862D01*
X0096380Y0080138D02*
X0098743Y0080138D01*
X0059993Y0082638D02*
X0057630Y0082638D01*
X0057630Y0087362D02*
X0059993Y0087362D01*
X0046174Y0093819D02*
X0046174Y0096181D01*
X0041449Y0096181D02*
X0041449Y0093819D01*
X0039924Y0093819D02*
X0039924Y0096181D01*
X0035199Y0096181D02*
X0035199Y0093819D01*
X0033674Y0093819D02*
X0033674Y0096181D01*
X0028949Y0096181D02*
X0028949Y0093819D01*
X0148359Y0033035D02*
X0148359Y0030766D01*
X0148359Y0031901D02*
X0151761Y0031901D01*
X0151194Y0029352D02*
X0151761Y0028785D01*
X0151761Y0027650D01*
X0151194Y0027083D01*
X0150060Y0027650D02*
X0150060Y0028785D01*
X0150627Y0029352D01*
X0151194Y0029352D01*
X0150060Y0027650D02*
X0149493Y0027083D01*
X0148926Y0027083D01*
X0148359Y0027650D01*
X0148359Y0028785D01*
X0148926Y0029352D01*
X0148926Y0025669D02*
X0150060Y0025669D01*
X0150627Y0025101D01*
X0150627Y0023400D01*
X0150627Y0024534D02*
X0151761Y0025669D01*
X0151761Y0023400D02*
X0148359Y0023400D01*
X0148359Y0025101D01*
X0148926Y0025669D01*
X0158359Y0025101D02*
X0158926Y0025669D01*
X0159493Y0025669D01*
X0160060Y0025101D01*
X0160627Y0025669D01*
X0161194Y0025669D01*
X0161761Y0025101D01*
X0161761Y0023967D01*
X0161194Y0023400D01*
X0160060Y0024534D02*
X0160060Y0025101D01*
X0158359Y0025101D02*
X0158359Y0023967D01*
X0158926Y0023400D01*
X0159493Y0027083D02*
X0161761Y0028217D01*
X0159493Y0029352D01*
X0158926Y0030766D02*
X0158359Y0031333D01*
X0158359Y0032468D01*
X0158926Y0033035D01*
X0159493Y0033035D01*
X0160060Y0032468D01*
X0160627Y0033035D01*
X0161194Y0033035D01*
X0161761Y0032468D01*
X0161761Y0031333D01*
X0161194Y0030766D01*
X0160060Y0031901D02*
X0160060Y0032468D01*
X0168359Y0029352D02*
X0170627Y0029352D01*
X0171761Y0028217D01*
X0170627Y0027083D01*
X0168359Y0027083D01*
X0168359Y0025669D02*
X0168359Y0023400D01*
X0170060Y0023400D01*
X0169493Y0024534D01*
X0169493Y0025101D01*
X0170060Y0025669D01*
X0171194Y0025669D01*
X0171761Y0025101D01*
X0171761Y0023967D01*
X0171194Y0023400D01*
X0178359Y0022852D02*
X0178359Y0021718D01*
X0178926Y0021151D01*
X0181194Y0021151D01*
X0181761Y0021718D01*
X0181761Y0022852D01*
X0181194Y0023419D01*
X0180060Y0023419D01*
X0180060Y0022285D01*
X0178926Y0023419D02*
X0178359Y0022852D01*
X0178359Y0024834D02*
X0181761Y0027102D01*
X0178359Y0027102D01*
X0178359Y0028517D02*
X0178359Y0030218D01*
X0178926Y0030785D01*
X0181194Y0030785D01*
X0181761Y0030218D01*
X0181761Y0028517D01*
X0178359Y0028517D01*
X0178359Y0024834D02*
X0181761Y0024834D01*
X0188359Y0024834D02*
X0191761Y0027102D01*
X0188359Y0027102D01*
X0188359Y0028517D02*
X0188359Y0030218D01*
X0188926Y0030785D01*
X0191194Y0030785D01*
X0191761Y0030218D01*
X0191761Y0028517D01*
X0188359Y0028517D01*
X0188359Y0024834D02*
X0191761Y0024834D01*
X0191194Y0023419D02*
X0190060Y0023419D01*
X0190060Y0022285D01*
X0191194Y0023419D02*
X0191761Y0022852D01*
X0191761Y0021718D01*
X0191194Y0021151D01*
X0188926Y0021151D01*
X0188359Y0021718D01*
X0188359Y0022852D01*
X0188926Y0023419D01*
X0197791Y0027650D02*
X0198359Y0027650D01*
X0199493Y0027650D02*
X0201761Y0027650D01*
X0201761Y0027083D02*
X0201761Y0028217D01*
X0201761Y0029539D02*
X0199493Y0029539D01*
X0199493Y0031240D01*
X0200060Y0031807D01*
X0201761Y0031807D01*
X0199493Y0027650D02*
X0199493Y0027083D01*
X0200627Y0025669D02*
X0198359Y0025669D01*
X0200627Y0025669D02*
X0201761Y0024534D01*
X0200627Y0023400D01*
X0198359Y0023400D01*
X0219359Y0024534D02*
X0220493Y0023400D01*
X0222761Y0023400D01*
X0221060Y0023400D02*
X0221060Y0025669D01*
X0220493Y0025669D02*
X0222761Y0025669D01*
X0222194Y0027083D02*
X0219926Y0029352D01*
X0222194Y0029352D01*
X0222761Y0028785D01*
X0222761Y0027650D01*
X0222194Y0027083D01*
X0219926Y0027083D01*
X0219359Y0027650D01*
X0219359Y0028785D01*
X0219926Y0029352D01*
X0220493Y0025669D02*
X0219359Y0024534D01*
X0228359Y0024534D02*
X0229493Y0023400D01*
X0231761Y0023400D01*
X0230060Y0023400D02*
X0230060Y0025669D01*
X0229493Y0025669D02*
X0231761Y0025669D01*
X0231761Y0027083D02*
X0231761Y0029352D01*
X0231761Y0028217D02*
X0228359Y0028217D01*
X0229493Y0027083D01*
X0229493Y0025669D02*
X0228359Y0024534D01*
X0239359Y0024534D02*
X0240493Y0025669D01*
X0242761Y0025669D01*
X0242761Y0027083D02*
X0240493Y0029352D01*
X0239926Y0029352D01*
X0239359Y0028785D01*
X0239359Y0027650D01*
X0239926Y0027083D01*
X0241060Y0025669D02*
X0241060Y0023400D01*
X0240493Y0023400D02*
X0239359Y0024534D01*
X0240493Y0023400D02*
X0242761Y0023400D01*
X0242761Y0027083D02*
X0242761Y0029352D01*
X0249359Y0028785D02*
X0249359Y0027650D01*
X0249926Y0027083D01*
X0250493Y0025669D02*
X0252761Y0025669D01*
X0252194Y0027083D02*
X0252761Y0027650D01*
X0252761Y0028785D01*
X0252194Y0029352D01*
X0251627Y0029352D01*
X0251060Y0028785D01*
X0251060Y0028217D01*
X0251060Y0028785D02*
X0250493Y0029352D01*
X0249926Y0029352D01*
X0249359Y0028785D01*
X0250493Y0025669D02*
X0249359Y0024534D01*
X0250493Y0023400D01*
X0252761Y0023400D01*
X0251060Y0023400D02*
X0251060Y0025669D01*
X0259359Y0024534D02*
X0260493Y0023400D01*
X0262761Y0023400D01*
X0261060Y0023400D02*
X0261060Y0025669D01*
X0260493Y0025669D02*
X0262761Y0025669D01*
X0261060Y0027083D02*
X0261060Y0029352D01*
X0262761Y0028785D02*
X0259359Y0028785D01*
X0261060Y0027083D01*
X0260493Y0025669D02*
X0259359Y0024534D01*
X0268859Y0024534D02*
X0269993Y0025669D01*
X0272261Y0025669D01*
X0271694Y0027083D02*
X0272261Y0027650D01*
X0272261Y0028785D01*
X0271694Y0029352D01*
X0270560Y0029352D01*
X0269993Y0028785D01*
X0269993Y0028217D01*
X0270560Y0027083D01*
X0268859Y0027083D01*
X0268859Y0029352D01*
X0270560Y0025669D02*
X0270560Y0023400D01*
X0269993Y0023400D02*
X0268859Y0024534D01*
X0269993Y0023400D02*
X0272261Y0023400D01*
X0278859Y0025669D02*
X0279426Y0024534D01*
X0280560Y0023400D01*
X0280560Y0025101D01*
X0281127Y0025669D01*
X0281694Y0025669D01*
X0282261Y0025101D01*
X0282261Y0023967D01*
X0281694Y0023400D01*
X0280560Y0023400D01*
X0289359Y0024534D02*
X0290493Y0023400D01*
X0292761Y0023400D01*
X0291060Y0023400D02*
X0291060Y0025669D01*
X0290493Y0025669D02*
X0292761Y0025669D01*
X0292761Y0027083D02*
X0292194Y0027083D01*
X0289926Y0029352D01*
X0289359Y0029352D01*
X0289359Y0027083D01*
X0290493Y0025669D02*
X0289359Y0024534D01*
X0309359Y0024534D02*
X0310493Y0023400D01*
X0312761Y0023400D01*
X0311060Y0023400D02*
X0311060Y0025669D01*
X0310493Y0025669D02*
X0312761Y0025669D01*
X0312194Y0027083D02*
X0311627Y0027083D01*
X0311060Y0027650D01*
X0311060Y0028785D01*
X0311627Y0029352D01*
X0312194Y0029352D01*
X0312761Y0028785D01*
X0312761Y0027650D01*
X0312194Y0027083D01*
X0311060Y0027650D02*
X0310493Y0027083D01*
X0309926Y0027083D01*
X0309359Y0027650D01*
X0309359Y0028785D01*
X0309926Y0029352D01*
X0310493Y0029352D01*
X0311060Y0028785D01*
X0310493Y0025669D02*
X0309359Y0024534D01*
X0319359Y0024534D02*
X0320493Y0025669D01*
X0322761Y0025669D01*
X0322194Y0027083D02*
X0322761Y0027650D01*
X0322761Y0028785D01*
X0322194Y0029352D01*
X0319926Y0029352D01*
X0319359Y0028785D01*
X0319359Y0027650D01*
X0319926Y0027083D01*
X0320493Y0027083D01*
X0321060Y0027650D01*
X0321060Y0029352D01*
X0321060Y0025669D02*
X0321060Y0023400D01*
X0320493Y0023400D02*
X0319359Y0024534D01*
X0320493Y0023400D02*
X0322761Y0023400D01*
X0329359Y0024534D02*
X0330493Y0023400D01*
X0332761Y0023400D01*
X0331060Y0023400D02*
X0331060Y0025669D01*
X0330493Y0025669D02*
X0332761Y0025669D01*
X0332761Y0027083D02*
X0332761Y0029352D01*
X0332761Y0028217D02*
X0329359Y0028217D01*
X0330493Y0027083D01*
X0330493Y0025669D02*
X0329359Y0024534D01*
X0339359Y0024534D02*
X0340493Y0023400D01*
X0342761Y0023400D01*
X0341060Y0023400D02*
X0341060Y0025669D01*
X0340493Y0025669D02*
X0342761Y0025669D01*
X0342761Y0027083D02*
X0342761Y0029352D01*
X0342761Y0028217D02*
X0339359Y0028217D01*
X0340493Y0027083D01*
X0340493Y0025669D02*
X0339359Y0024534D01*
X0349359Y0024534D02*
X0350493Y0025669D01*
X0352761Y0025669D01*
X0352761Y0027083D02*
X0352761Y0029352D01*
X0352761Y0028217D02*
X0349359Y0028217D01*
X0350493Y0027083D01*
X0351060Y0025669D02*
X0351060Y0023400D01*
X0350493Y0023400D02*
X0349359Y0024534D01*
X0350493Y0023400D02*
X0352761Y0023400D01*
X0359359Y0024534D02*
X0360493Y0023400D01*
X0362761Y0023400D01*
X0361060Y0023400D02*
X0361060Y0025669D01*
X0360493Y0025669D02*
X0362761Y0025669D01*
X0362761Y0027083D02*
X0362761Y0029352D01*
X0362761Y0028217D02*
X0359359Y0028217D01*
X0360493Y0027083D01*
X0360493Y0025669D02*
X0359359Y0024534D01*
X0369359Y0024534D02*
X0370493Y0023400D01*
X0372761Y0023400D01*
X0371060Y0023400D02*
X0371060Y0025669D01*
X0370493Y0025669D02*
X0372761Y0025669D01*
X0372761Y0027083D02*
X0372761Y0029352D01*
X0372761Y0028217D02*
X0369359Y0028217D01*
X0370493Y0027083D01*
X0370493Y0025669D02*
X0369359Y0024534D01*
X0378859Y0024534D02*
X0379993Y0025669D01*
X0382261Y0025669D01*
X0382261Y0027083D02*
X0382261Y0029352D01*
X0382261Y0028217D02*
X0378859Y0028217D01*
X0379993Y0027083D01*
X0380560Y0025669D02*
X0380560Y0023400D01*
X0379993Y0023400D02*
X0378859Y0024534D01*
X0379993Y0023400D02*
X0382261Y0023400D01*
X0381694Y0030766D02*
X0382261Y0031333D01*
X0382261Y0032468D01*
X0381694Y0033035D01*
X0380560Y0033035D01*
X0379993Y0032468D01*
X0379993Y0031901D01*
X0380560Y0030766D01*
X0378859Y0030766D01*
X0378859Y0033035D01*
X0372761Y0032468D02*
X0369359Y0032468D01*
X0371060Y0030766D01*
X0371060Y0033035D01*
X0362761Y0032468D02*
X0362761Y0031333D01*
X0362194Y0030766D01*
X0361060Y0031901D02*
X0361060Y0032468D01*
X0361627Y0033035D01*
X0362194Y0033035D01*
X0362761Y0032468D01*
X0361060Y0032468D02*
X0360493Y0033035D01*
X0359926Y0033035D01*
X0359359Y0032468D01*
X0359359Y0031333D01*
X0359926Y0030766D01*
X0352761Y0030766D02*
X0350493Y0033035D01*
X0349926Y0033035D01*
X0349359Y0032468D01*
X0349359Y0031333D01*
X0349926Y0030766D01*
X0352761Y0030766D02*
X0352761Y0033035D01*
X0342761Y0033035D02*
X0342761Y0030766D01*
X0342761Y0031901D02*
X0339359Y0031901D01*
X0340493Y0030766D01*
X0332761Y0031333D02*
X0332194Y0030766D01*
X0329926Y0033035D01*
X0332194Y0033035D01*
X0332761Y0032468D01*
X0332761Y0031333D01*
X0332194Y0030766D02*
X0329926Y0030766D01*
X0329359Y0031333D01*
X0329359Y0032468D01*
X0329926Y0033035D01*
X0375961Y0042867D02*
X0376529Y0042300D01*
X0377663Y0042300D01*
X0378230Y0042867D01*
X0378230Y0044001D01*
X0377663Y0044569D01*
X0377096Y0044569D01*
X0375961Y0044001D01*
X0375961Y0045703D01*
X0378230Y0045703D01*
X0379645Y0045136D02*
X0380212Y0045703D01*
X0381346Y0045703D01*
X0381913Y0045136D01*
X0381913Y0044569D01*
X0379645Y0042300D01*
X0381913Y0042300D01*
X0385061Y0042500D02*
X0387561Y0040000D01*
X0385061Y0042500D02*
X0385061Y0047500D01*
X0387561Y0050000D01*
X0402561Y0050000D01*
X0405061Y0052500D01*
X0405061Y0057500D01*
X0402561Y0060000D01*
X0387561Y0060000D01*
X0385061Y0062500D01*
X0385061Y0067500D01*
X0387561Y0070000D01*
X0402561Y0070000D01*
X0405061Y0072500D01*
X0405061Y0077500D01*
X0402561Y0080000D01*
X0387561Y0080000D01*
X0385061Y0082500D01*
X0385061Y0087500D01*
X0387561Y0090000D01*
X0402561Y0090000D01*
X0405061Y0092500D01*
X0405061Y0097500D01*
X0402561Y0100000D01*
X0387561Y0100000D01*
X0385061Y0102500D01*
X0385061Y0107500D01*
X0387561Y0110000D01*
X0402561Y0110000D01*
X0405061Y0107500D01*
X0405061Y0102500D01*
X0402561Y0100000D01*
X0407861Y0104101D02*
X0410130Y0104101D01*
X0411545Y0104669D02*
X0412679Y0105803D01*
X0412679Y0102400D01*
X0411545Y0102400D02*
X0413813Y0102400D01*
X0409563Y0102400D02*
X0409563Y0105803D01*
X0407861Y0104101D01*
X0402561Y0110000D02*
X0405061Y0112500D01*
X0405061Y0117500D01*
X0402561Y0120000D01*
X0387561Y0120000D01*
X0385061Y0117500D01*
X0385061Y0112500D01*
X0387561Y0110000D01*
X0381913Y0112867D02*
X0381346Y0112300D01*
X0380212Y0112300D01*
X0379645Y0112867D01*
X0379645Y0113434D01*
X0380212Y0114001D01*
X0381346Y0114001D01*
X0381913Y0113434D01*
X0381913Y0112867D01*
X0381346Y0114001D02*
X0381913Y0114569D01*
X0381913Y0115136D01*
X0381346Y0115703D01*
X0380212Y0115703D01*
X0379645Y0115136D01*
X0379645Y0114569D01*
X0380212Y0114001D01*
X0378230Y0113434D02*
X0378230Y0112867D01*
X0377663Y0112300D01*
X0376529Y0112300D01*
X0375961Y0112867D01*
X0377096Y0114001D02*
X0377663Y0114001D01*
X0378230Y0113434D01*
X0377663Y0114001D02*
X0378230Y0114569D01*
X0378230Y0115136D01*
X0377663Y0115703D01*
X0376529Y0115703D01*
X0375961Y0115136D01*
X0385061Y0122500D02*
X0387561Y0120000D01*
X0385061Y0122500D02*
X0385061Y0127500D01*
X0387561Y0130000D01*
X0402561Y0130000D01*
X0405061Y0132500D01*
X0405061Y0137500D01*
X0402561Y0140000D01*
X0387561Y0140000D01*
X0385061Y0142500D01*
X0385061Y0147500D01*
X0387561Y0150000D01*
X0402561Y0150000D01*
X0405061Y0152500D01*
X0405061Y0157500D01*
X0402561Y0160000D01*
X0387561Y0160000D01*
X0385061Y0162500D01*
X0385061Y0167500D01*
X0387561Y0170000D01*
X0402561Y0170000D01*
X0405061Y0172500D01*
X0405061Y0177500D01*
X0402561Y0180000D01*
X0387561Y0180000D01*
X0385061Y0182500D01*
X0385061Y0187500D01*
X0387561Y0190000D01*
X0402561Y0190000D01*
X0405061Y0187500D01*
X0405061Y0182500D01*
X0402561Y0180000D01*
X0402561Y0190000D02*
X0405061Y0192500D01*
X0405061Y0197500D01*
X0402561Y0200000D01*
X0387561Y0200000D02*
X0385061Y0197500D01*
X0385061Y0192500D01*
X0387561Y0190000D01*
X0381913Y0192300D02*
X0379645Y0192300D01*
X0381913Y0194569D01*
X0381913Y0195136D01*
X0381346Y0195703D01*
X0380212Y0195703D01*
X0379645Y0195136D01*
X0378230Y0195136D02*
X0378230Y0194569D01*
X0375961Y0192300D01*
X0378230Y0192300D01*
X0378230Y0195136D02*
X0377663Y0195703D01*
X0376529Y0195703D01*
X0375961Y0195136D01*
X0361261Y0194569D02*
X0361261Y0192300D01*
X0358993Y0194569D01*
X0358426Y0194569D01*
X0357859Y0194001D01*
X0357859Y0192867D01*
X0358426Y0192300D01*
X0358993Y0195983D02*
X0357859Y0197117D01*
X0361261Y0197117D01*
X0361261Y0195983D02*
X0361261Y0198252D01*
X0351261Y0197685D02*
X0351261Y0196550D01*
X0350694Y0195983D01*
X0348426Y0198252D01*
X0350694Y0198252D01*
X0351261Y0197685D01*
X0350694Y0195983D02*
X0348426Y0195983D01*
X0347859Y0196550D01*
X0347859Y0197685D01*
X0348426Y0198252D01*
X0348426Y0194569D02*
X0347859Y0194001D01*
X0347859Y0192867D01*
X0348426Y0192300D01*
X0348426Y0194569D02*
X0348993Y0194569D01*
X0351261Y0192300D01*
X0351261Y0194569D01*
X0351261Y0187935D02*
X0348993Y0187935D01*
X0347859Y0186801D01*
X0348993Y0185666D01*
X0351261Y0185666D01*
X0350694Y0184252D02*
X0348426Y0184252D01*
X0347859Y0183685D01*
X0347859Y0181983D01*
X0351261Y0181983D01*
X0351261Y0183685D01*
X0350694Y0184252D01*
X0349560Y0185666D02*
X0349560Y0187935D01*
X0341261Y0187935D02*
X0341261Y0185666D01*
X0341261Y0186801D02*
X0337859Y0186801D01*
X0338993Y0185666D01*
X0337859Y0184252D02*
X0341261Y0181983D01*
X0341261Y0180569D02*
X0340127Y0179434D01*
X0340127Y0180001D02*
X0340127Y0178300D01*
X0341261Y0178300D02*
X0337859Y0178300D01*
X0337859Y0180001D01*
X0338426Y0180569D01*
X0339560Y0180569D01*
X0340127Y0180001D01*
X0337859Y0181983D02*
X0341261Y0184252D01*
X0347859Y0180001D02*
X0347859Y0178867D01*
X0348426Y0178300D01*
X0348993Y0178300D01*
X0349560Y0178867D01*
X0349560Y0180001D01*
X0350127Y0180569D01*
X0350694Y0180569D01*
X0351261Y0180001D01*
X0351261Y0178867D01*
X0350694Y0178300D01*
X0348426Y0180569D02*
X0347859Y0180001D01*
X0357859Y0180001D02*
X0357859Y0178867D01*
X0358426Y0178300D01*
X0358993Y0178300D01*
X0359560Y0178867D01*
X0359560Y0180001D01*
X0360127Y0180569D01*
X0360694Y0180569D01*
X0361261Y0180001D01*
X0361261Y0178867D01*
X0360694Y0178300D01*
X0358426Y0180569D02*
X0357859Y0180001D01*
X0358426Y0181983D02*
X0357859Y0182550D01*
X0357859Y0183685D01*
X0358426Y0184252D01*
X0357859Y0185666D02*
X0361261Y0185666D01*
X0361261Y0187935D01*
X0360694Y0184252D02*
X0361261Y0183685D01*
X0361261Y0182550D01*
X0360694Y0181983D01*
X0358426Y0181983D01*
X0375961Y0182300D02*
X0378230Y0184569D01*
X0378230Y0185136D01*
X0377663Y0185703D01*
X0376529Y0185703D01*
X0375961Y0185136D01*
X0375961Y0182300D02*
X0378230Y0182300D01*
X0379645Y0184001D02*
X0381346Y0185703D01*
X0381346Y0182300D01*
X0381913Y0184001D02*
X0379645Y0184001D01*
X0385061Y0177500D02*
X0387561Y0180000D01*
X0385061Y0177500D02*
X0385061Y0172500D01*
X0387561Y0170000D01*
X0381913Y0172867D02*
X0381913Y0173434D01*
X0381346Y0174001D01*
X0379645Y0174001D01*
X0379645Y0172867D01*
X0380212Y0172300D01*
X0381346Y0172300D01*
X0381913Y0172867D01*
X0379645Y0174001D02*
X0380779Y0175136D01*
X0381913Y0175703D01*
X0378230Y0175136D02*
X0377663Y0175703D01*
X0376529Y0175703D01*
X0375961Y0175136D01*
X0378230Y0175136D02*
X0378230Y0174569D01*
X0375961Y0172300D01*
X0378230Y0172300D01*
X0377663Y0165703D02*
X0376529Y0165703D01*
X0375961Y0165136D01*
X0377663Y0165703D02*
X0378230Y0165136D01*
X0378230Y0164569D01*
X0375961Y0162300D01*
X0378230Y0162300D01*
X0379645Y0162867D02*
X0379645Y0163434D01*
X0380212Y0164001D01*
X0381346Y0164001D01*
X0381913Y0163434D01*
X0381913Y0162867D01*
X0381346Y0162300D01*
X0380212Y0162300D01*
X0379645Y0162867D01*
X0380212Y0164001D02*
X0379645Y0164569D01*
X0379645Y0165136D01*
X0380212Y0165703D01*
X0381346Y0165703D01*
X0381913Y0165136D01*
X0381913Y0164569D01*
X0381346Y0164001D01*
X0387561Y0160000D02*
X0385061Y0157500D01*
X0385061Y0152500D01*
X0387561Y0150000D01*
X0381913Y0152867D02*
X0381346Y0152300D01*
X0380212Y0152300D01*
X0379645Y0152867D01*
X0381913Y0155136D01*
X0381913Y0152867D01*
X0379645Y0152867D02*
X0379645Y0155136D01*
X0380212Y0155703D01*
X0381346Y0155703D01*
X0381913Y0155136D01*
X0378230Y0155136D02*
X0378230Y0154569D01*
X0377663Y0154001D01*
X0378230Y0153434D01*
X0378230Y0152867D01*
X0377663Y0152300D01*
X0376529Y0152300D01*
X0375961Y0152867D01*
X0377096Y0154001D02*
X0377663Y0154001D01*
X0378230Y0155136D02*
X0377663Y0155703D01*
X0376529Y0155703D01*
X0375961Y0155136D01*
X0376529Y0145703D02*
X0377663Y0145703D01*
X0378230Y0145136D01*
X0378230Y0144569D01*
X0377663Y0144001D01*
X0378230Y0143434D01*
X0378230Y0142867D01*
X0377663Y0142300D01*
X0376529Y0142300D01*
X0375961Y0142867D01*
X0377096Y0144001D02*
X0377663Y0144001D01*
X0375961Y0145136D02*
X0376529Y0145703D01*
X0379645Y0145136D02*
X0380212Y0145703D01*
X0381346Y0145703D01*
X0381913Y0145136D01*
X0381913Y0144569D01*
X0379645Y0142300D01*
X0381913Y0142300D01*
X0385061Y0137500D02*
X0387561Y0140000D01*
X0385061Y0137500D02*
X0385061Y0132500D01*
X0387561Y0130000D01*
X0381346Y0132300D02*
X0381346Y0135703D01*
X0379645Y0134001D01*
X0381913Y0134001D01*
X0378230Y0133434D02*
X0378230Y0132867D01*
X0377663Y0132300D01*
X0376529Y0132300D01*
X0375961Y0132867D01*
X0377096Y0134001D02*
X0377663Y0134001D01*
X0378230Y0133434D01*
X0377663Y0134001D02*
X0378230Y0134569D01*
X0378230Y0135136D01*
X0377663Y0135703D01*
X0376529Y0135703D01*
X0375961Y0135136D01*
X0376529Y0125703D02*
X0377663Y0125703D01*
X0378230Y0125136D01*
X0378230Y0124569D01*
X0377663Y0124001D01*
X0378230Y0123434D01*
X0378230Y0122867D01*
X0377663Y0122300D01*
X0376529Y0122300D01*
X0375961Y0122867D01*
X0377096Y0124001D02*
X0377663Y0124001D01*
X0379645Y0124001D02*
X0379645Y0122867D01*
X0380212Y0122300D01*
X0381346Y0122300D01*
X0381913Y0122867D01*
X0381913Y0123434D01*
X0381346Y0124001D01*
X0379645Y0124001D01*
X0380779Y0125136D01*
X0381913Y0125703D01*
X0376529Y0125703D02*
X0375961Y0125136D01*
X0402561Y0130000D02*
X0405061Y0127500D01*
X0405061Y0122500D01*
X0402561Y0120000D01*
X0407861Y0122967D02*
X0408429Y0122400D01*
X0409563Y0122400D01*
X0410130Y0122967D01*
X0410130Y0123534D01*
X0409563Y0124101D01*
X0408996Y0124101D01*
X0409563Y0124101D02*
X0410130Y0124669D01*
X0410130Y0125236D01*
X0409563Y0125803D01*
X0408429Y0125803D01*
X0407861Y0125236D01*
X0411545Y0125803D02*
X0413813Y0125803D01*
X0413813Y0125236D01*
X0411545Y0122967D01*
X0411545Y0122400D01*
X0412112Y0115803D02*
X0411545Y0115236D01*
X0411545Y0114669D01*
X0412112Y0114101D01*
X0413813Y0114101D01*
X0413813Y0112967D02*
X0413813Y0115236D01*
X0413246Y0115803D01*
X0412112Y0115803D01*
X0410130Y0115236D02*
X0410130Y0114669D01*
X0409563Y0114101D01*
X0410130Y0113534D01*
X0410130Y0112967D01*
X0409563Y0112400D01*
X0408429Y0112400D01*
X0407861Y0112967D01*
X0408996Y0114101D02*
X0409563Y0114101D01*
X0410130Y0115236D02*
X0409563Y0115803D01*
X0408429Y0115803D01*
X0407861Y0115236D01*
X0411545Y0112967D02*
X0412112Y0112400D01*
X0413246Y0112400D01*
X0413813Y0112967D01*
X0387561Y0100000D02*
X0385061Y0097500D01*
X0385061Y0092500D01*
X0387561Y0090000D01*
X0381913Y0092300D02*
X0379645Y0092300D01*
X0381913Y0094569D01*
X0381913Y0095136D01*
X0381346Y0095703D01*
X0380212Y0095703D01*
X0379645Y0095136D01*
X0378230Y0094001D02*
X0375961Y0094001D01*
X0377663Y0095703D01*
X0377663Y0092300D01*
X0377663Y0085703D02*
X0375961Y0084001D01*
X0378230Y0084001D01*
X0379645Y0084001D02*
X0381346Y0085703D01*
X0381346Y0082300D01*
X0381913Y0084001D02*
X0379645Y0084001D01*
X0377663Y0082300D02*
X0377663Y0085703D01*
X0385061Y0077500D02*
X0387561Y0080000D01*
X0385061Y0077500D02*
X0385061Y0072500D01*
X0387561Y0070000D01*
X0381913Y0072867D02*
X0381913Y0073434D01*
X0381346Y0074001D01*
X0379645Y0074001D01*
X0379645Y0072867D01*
X0380212Y0072300D01*
X0381346Y0072300D01*
X0381913Y0072867D01*
X0379645Y0074001D02*
X0380779Y0075136D01*
X0381913Y0075703D01*
X0378230Y0074001D02*
X0375961Y0074001D01*
X0377663Y0075703D01*
X0377663Y0072300D01*
X0377663Y0065703D02*
X0375961Y0064001D01*
X0378230Y0064001D01*
X0379645Y0063434D02*
X0380212Y0064001D01*
X0381346Y0064001D01*
X0381913Y0063434D01*
X0381913Y0062867D01*
X0381346Y0062300D01*
X0380212Y0062300D01*
X0379645Y0062867D01*
X0379645Y0063434D01*
X0380212Y0064001D02*
X0379645Y0064569D01*
X0379645Y0065136D01*
X0380212Y0065703D01*
X0381346Y0065703D01*
X0381913Y0065136D01*
X0381913Y0064569D01*
X0381346Y0064001D01*
X0377663Y0062300D02*
X0377663Y0065703D01*
X0385061Y0057500D02*
X0387561Y0060000D01*
X0385061Y0057500D02*
X0385061Y0052500D01*
X0387561Y0050000D01*
X0381913Y0052867D02*
X0381346Y0052300D01*
X0380212Y0052300D01*
X0379645Y0052867D01*
X0381913Y0055136D01*
X0381913Y0052867D01*
X0379645Y0052867D02*
X0379645Y0055136D01*
X0380212Y0055703D01*
X0381346Y0055703D01*
X0381913Y0055136D01*
X0378230Y0055703D02*
X0375961Y0055703D01*
X0375961Y0054001D01*
X0377096Y0054569D01*
X0377663Y0054569D01*
X0378230Y0054001D01*
X0378230Y0052867D01*
X0377663Y0052300D01*
X0376529Y0052300D01*
X0375961Y0052867D01*
X0402561Y0050000D02*
X0405061Y0047500D01*
X0405061Y0042500D01*
X0402561Y0040000D01*
X0407861Y0042967D02*
X0408429Y0042400D01*
X0409563Y0042400D01*
X0410130Y0042967D01*
X0410130Y0044101D01*
X0409563Y0044669D01*
X0408996Y0044669D01*
X0407861Y0044101D01*
X0407861Y0045803D01*
X0410130Y0045803D01*
X0411545Y0045236D02*
X0412112Y0045803D01*
X0413246Y0045803D01*
X0413813Y0045236D01*
X0413813Y0044669D01*
X0413246Y0044101D01*
X0413813Y0043534D01*
X0413813Y0042967D01*
X0413246Y0042400D01*
X0412112Y0042400D01*
X0411545Y0042967D01*
X0412679Y0044101D02*
X0413246Y0044101D01*
X0413813Y0035803D02*
X0413813Y0032400D01*
X0411545Y0035803D01*
X0411545Y0032400D01*
X0410130Y0032967D02*
X0409563Y0032400D01*
X0408429Y0032400D01*
X0407861Y0032967D01*
X0407861Y0035236D01*
X0408429Y0035803D01*
X0409563Y0035803D01*
X0410130Y0035236D01*
X0410130Y0034101D02*
X0408996Y0034101D01*
X0410130Y0034101D02*
X0410130Y0032967D01*
X0415228Y0032400D02*
X0416929Y0032400D01*
X0417496Y0032967D01*
X0417496Y0035236D01*
X0416929Y0035803D01*
X0415228Y0035803D01*
X0415228Y0032400D01*
X0413813Y0052400D02*
X0411545Y0052400D01*
X0412679Y0052400D02*
X0412679Y0055803D01*
X0411545Y0054669D01*
X0410130Y0054101D02*
X0409563Y0054669D01*
X0408996Y0054669D01*
X0407861Y0054101D01*
X0407861Y0055803D01*
X0410130Y0055803D01*
X0410130Y0054101D02*
X0410130Y0052967D01*
X0409563Y0052400D01*
X0408429Y0052400D01*
X0407861Y0052967D01*
X0402561Y0060000D02*
X0405061Y0062500D01*
X0405061Y0067500D01*
X0402561Y0070000D01*
X0407861Y0074101D02*
X0410130Y0074101D01*
X0409563Y0072400D02*
X0409563Y0075803D01*
X0407861Y0074101D01*
X0411545Y0072967D02*
X0411545Y0072400D01*
X0411545Y0072967D02*
X0413813Y0075236D01*
X0413813Y0075803D01*
X0411545Y0075803D01*
X0405061Y0082500D02*
X0402561Y0080000D01*
X0405061Y0082500D02*
X0405061Y0087500D01*
X0402561Y0090000D01*
X0407861Y0094101D02*
X0410130Y0094101D01*
X0409563Y0092400D02*
X0409563Y0095803D01*
X0407861Y0094101D01*
X0411545Y0092967D02*
X0412112Y0092400D01*
X0413246Y0092400D01*
X0413813Y0092967D01*
X0413813Y0093534D01*
X0413246Y0094101D01*
X0412679Y0094101D01*
X0413246Y0094101D02*
X0413813Y0094669D01*
X0413813Y0095236D01*
X0413246Y0095803D01*
X0412112Y0095803D01*
X0411545Y0095236D01*
X0411545Y0085803D02*
X0411545Y0084101D01*
X0412679Y0084669D01*
X0413246Y0084669D01*
X0413813Y0084101D01*
X0413813Y0082967D01*
X0413246Y0082400D01*
X0412112Y0082400D01*
X0411545Y0082967D01*
X0410130Y0084101D02*
X0407861Y0084101D01*
X0409563Y0085803D01*
X0409563Y0082400D01*
X0411545Y0085803D02*
X0413813Y0085803D01*
X0381913Y0102867D02*
X0381346Y0102300D01*
X0380212Y0102300D01*
X0379645Y0102867D01*
X0381913Y0105136D01*
X0381913Y0102867D01*
X0379645Y0102867D02*
X0379645Y0105136D01*
X0380212Y0105703D01*
X0381346Y0105703D01*
X0381913Y0105136D01*
X0378230Y0104001D02*
X0375961Y0104001D01*
X0377663Y0105703D01*
X0377663Y0102300D01*
X0357424Y0089931D02*
X0357424Y0087569D01*
X0352699Y0087569D02*
X0352699Y0089931D01*
X0319924Y0089931D02*
X0319924Y0087569D01*
X0315199Y0087569D02*
X0315199Y0089931D01*
X0267424Y0061181D02*
X0267424Y0058819D01*
X0262699Y0058819D02*
X0262699Y0061181D01*
X0259924Y0061319D02*
X0259924Y0063681D01*
X0255199Y0063681D02*
X0255199Y0061319D01*
X0241243Y0060138D02*
X0238880Y0060138D01*
X0238880Y0064862D02*
X0241243Y0064862D01*
X0241243Y0067638D02*
X0238880Y0067638D01*
X0238880Y0072362D02*
X0241243Y0072362D01*
X0219924Y0078819D02*
X0219924Y0081181D01*
X0215199Y0081181D02*
X0215199Y0078819D01*
X0212424Y0078819D02*
X0212424Y0081181D01*
X0207699Y0081181D02*
X0207699Y0078819D01*
X0202424Y0078819D02*
X0202424Y0081181D01*
X0197699Y0081181D02*
X0197699Y0078819D01*
X0194924Y0078819D02*
X0194924Y0081181D01*
X0190199Y0081181D02*
X0190199Y0078819D01*
X0187424Y0078819D02*
X0187424Y0081181D01*
X0182699Y0081181D02*
X0182699Y0078819D01*
X0202699Y0093819D02*
X0202699Y0096181D01*
X0207424Y0096181D02*
X0207424Y0093819D01*
X0212699Y0093819D02*
X0212699Y0096181D01*
X0217424Y0096181D02*
X0217424Y0093819D01*
X0235199Y0051181D02*
X0235199Y0048819D01*
X0239924Y0048819D02*
X0239924Y0051181D01*
X0245199Y0051181D02*
X0245199Y0048819D01*
X0249924Y0048819D02*
X0249924Y0051181D01*
X0229827Y0041003D02*
X0225557Y0041003D01*
X0223382Y0039935D02*
X0221247Y0037800D01*
X0219111Y0039935D01*
X0219111Y0044205D01*
X0223382Y0044205D02*
X0223382Y0039935D01*
X0227692Y0038868D02*
X0227692Y0043138D01*
X0213186Y0040878D02*
X0208916Y0040878D01*
X0206741Y0039810D02*
X0206741Y0044080D01*
X0202470Y0044080D02*
X0202470Y0039810D01*
X0204606Y0037675D01*
X0206741Y0039810D01*
X0402561Y0140000D02*
X0405061Y0142500D01*
X0405061Y0147500D01*
X0402561Y0150000D01*
X0407861Y0152967D02*
X0408429Y0152400D01*
X0409563Y0152400D01*
X0410130Y0152967D01*
X0410130Y0153534D01*
X0409563Y0154101D01*
X0408996Y0154101D01*
X0409563Y0154101D02*
X0410130Y0154669D01*
X0410130Y0155236D01*
X0409563Y0155803D01*
X0408429Y0155803D01*
X0407861Y0155236D01*
X0411545Y0154669D02*
X0412679Y0155803D01*
X0412679Y0152400D01*
X0411545Y0152400D02*
X0413813Y0152400D01*
X0413246Y0145803D02*
X0412112Y0145803D01*
X0411545Y0145236D01*
X0410130Y0145236D02*
X0410130Y0144669D01*
X0409563Y0144101D01*
X0410130Y0143534D01*
X0410130Y0142967D01*
X0409563Y0142400D01*
X0408429Y0142400D01*
X0407861Y0142967D01*
X0408996Y0144101D02*
X0409563Y0144101D01*
X0410130Y0145236D02*
X0409563Y0145803D01*
X0408429Y0145803D01*
X0407861Y0145236D01*
X0411545Y0142967D02*
X0412112Y0142400D01*
X0413246Y0142400D01*
X0413813Y0142967D01*
X0413813Y0143534D01*
X0413246Y0144101D01*
X0412679Y0144101D01*
X0413246Y0144101D02*
X0413813Y0144669D01*
X0413813Y0145236D01*
X0413246Y0145803D01*
X0413813Y0135803D02*
X0411545Y0135803D01*
X0411545Y0134101D01*
X0412679Y0134669D01*
X0413246Y0134669D01*
X0413813Y0134101D01*
X0413813Y0132967D01*
X0413246Y0132400D01*
X0412112Y0132400D01*
X0411545Y0132967D01*
X0410130Y0132967D02*
X0409563Y0132400D01*
X0408429Y0132400D01*
X0407861Y0132967D01*
X0408996Y0134101D02*
X0409563Y0134101D01*
X0410130Y0133534D01*
X0410130Y0132967D01*
X0409563Y0134101D02*
X0410130Y0134669D01*
X0410130Y0135236D01*
X0409563Y0135803D01*
X0408429Y0135803D01*
X0407861Y0135236D01*
X0402561Y0160000D02*
X0405061Y0162500D01*
X0405061Y0167500D01*
X0402561Y0170000D01*
X0341261Y0192300D02*
X0341261Y0194569D01*
X0341261Y0193434D02*
X0337859Y0193434D01*
X0338993Y0192300D01*
X0338993Y0195983D02*
X0339560Y0196550D01*
X0339560Y0198252D01*
X0340694Y0198252D02*
X0338426Y0198252D01*
X0337859Y0197685D01*
X0337859Y0196550D01*
X0338426Y0195983D01*
X0338993Y0195983D01*
X0340694Y0195983D02*
X0341261Y0196550D01*
X0341261Y0197685D01*
X0340694Y0198252D01*
X0331261Y0197685D02*
X0331261Y0196550D01*
X0330694Y0195983D01*
X0330127Y0195983D01*
X0329560Y0196550D01*
X0329560Y0197685D01*
X0330127Y0198252D01*
X0330694Y0198252D01*
X0331261Y0197685D01*
X0329560Y0197685D02*
X0328993Y0198252D01*
X0328426Y0198252D01*
X0327859Y0197685D01*
X0327859Y0196550D01*
X0328426Y0195983D01*
X0328993Y0195983D01*
X0329560Y0196550D01*
X0331261Y0194569D02*
X0331261Y0192300D01*
X0331261Y0193434D02*
X0327859Y0193434D01*
X0328993Y0192300D01*
X0331261Y0187935D02*
X0331261Y0185666D01*
X0331261Y0186801D02*
X0327859Y0186801D01*
X0328993Y0185666D01*
X0327859Y0184252D02*
X0331261Y0181983D01*
X0331261Y0184252D02*
X0327859Y0181983D01*
X0327859Y0180569D02*
X0327859Y0178300D01*
X0327859Y0179434D02*
X0331261Y0179434D01*
X0321261Y0178300D02*
X0317859Y0178300D01*
X0317859Y0180001D01*
X0318426Y0180569D01*
X0319560Y0180569D01*
X0320127Y0180001D01*
X0320127Y0178300D01*
X0320127Y0179434D02*
X0321261Y0180569D01*
X0321261Y0181983D02*
X0317859Y0184252D01*
X0318426Y0185666D02*
X0317859Y0186233D01*
X0317859Y0187368D01*
X0318426Y0187935D01*
X0318993Y0187935D01*
X0321261Y0185666D01*
X0321261Y0187935D01*
X0321261Y0184252D02*
X0317859Y0181983D01*
X0318993Y0192300D02*
X0317859Y0193434D01*
X0321261Y0193434D01*
X0321261Y0192300D02*
X0321261Y0194569D01*
X0321261Y0195983D02*
X0320694Y0195983D01*
X0318426Y0198252D01*
X0317859Y0198252D01*
X0317859Y0195983D01*
X0311261Y0196550D02*
X0311261Y0197685D01*
X0310694Y0198252D01*
X0310127Y0198252D01*
X0309560Y0197685D01*
X0309560Y0195983D01*
X0310694Y0195983D01*
X0311261Y0196550D01*
X0309560Y0195983D02*
X0308426Y0197117D01*
X0307859Y0198252D01*
X0307859Y0193434D02*
X0311261Y0193434D01*
X0311261Y0192300D02*
X0311261Y0194569D01*
X0308993Y0192300D02*
X0307859Y0193434D01*
X0409563Y0065803D02*
X0407861Y0064101D01*
X0410130Y0064101D01*
X0411545Y0064669D02*
X0412112Y0064101D01*
X0413813Y0064101D01*
X0413813Y0062967D02*
X0413813Y0065236D01*
X0413246Y0065803D01*
X0412112Y0065803D01*
X0411545Y0065236D01*
X0411545Y0064669D01*
X0411545Y0062967D02*
X0412112Y0062400D01*
X0413246Y0062400D01*
X0413813Y0062967D01*
X0409563Y0062400D02*
X0409563Y0065803D01*
D16*
X0025061Y0012500D02*
X0022561Y0015000D01*
X0022561Y0020000D01*
X0025061Y0022500D01*
X0022561Y0025000D01*
X0022561Y0030000D01*
X0025061Y0032500D01*
X0022561Y0035000D01*
X0022561Y0040000D01*
X0025061Y0042500D01*
X0030061Y0042500D01*
X0032561Y0040000D01*
X0032561Y0035000D01*
X0030061Y0032500D01*
X0032561Y0030000D01*
X0032561Y0025000D01*
X0030061Y0022500D01*
X0032561Y0020000D01*
X0032561Y0015000D01*
X0030061Y0012500D01*
X0025061Y0012500D01*
X0032561Y0015000D02*
X0035061Y0012500D01*
X0040061Y0012500D01*
X0042561Y0015000D01*
X0042561Y0020000D01*
X0040061Y0022500D01*
X0042561Y0025000D01*
X0042561Y0030000D01*
X0040061Y0032500D01*
X0042561Y0035000D01*
X0042561Y0040000D01*
X0040061Y0042500D01*
X0035061Y0042500D01*
X0032561Y0040000D01*
X0032561Y0035000D01*
X0035061Y0032500D01*
X0032561Y0030000D01*
X0032561Y0025000D01*
X0035061Y0022500D01*
X0032561Y0020000D01*
X0032561Y0015000D01*
X0042561Y0015000D02*
X0042561Y0020000D01*
X0045061Y0022500D01*
X0042561Y0025000D01*
X0042561Y0030000D01*
X0045061Y0032500D01*
X0042561Y0035000D01*
X0042561Y0040000D01*
X0045061Y0042500D01*
X0050061Y0042500D01*
X0052561Y0040000D01*
X0052561Y0035000D01*
X0050061Y0032500D01*
X0052561Y0030000D01*
X0052561Y0025000D01*
X0050061Y0022500D01*
X0052561Y0020000D01*
X0052561Y0015000D01*
X0050061Y0012500D01*
X0045061Y0012500D01*
X0042561Y0015000D01*
X0096297Y0012101D02*
X0096297Y0008952D01*
X0123856Y0008952D01*
X0123856Y0012101D01*
X0096297Y0012101D01*
X0096297Y0036511D01*
X0123856Y0036511D01*
X0123856Y0012101D01*
X0125061Y0012500D02*
X0125061Y0017500D01*
X0127561Y0020000D01*
X0132561Y0020000D01*
X0135061Y0017500D01*
X0137561Y0020000D01*
X0142561Y0020000D01*
X0145061Y0017500D01*
X0145061Y0012500D01*
X0142561Y0010000D01*
X0137561Y0010000D01*
X0135061Y0012500D01*
X0132561Y0010000D01*
X0127561Y0010000D01*
X0125061Y0012500D01*
X0145061Y0012500D02*
X0147561Y0010000D01*
X0152561Y0010000D01*
X0155061Y0012500D01*
X0157561Y0010000D01*
X0162561Y0010000D01*
X0165061Y0012500D01*
X0167561Y0010000D01*
X0172561Y0010000D01*
X0175061Y0012500D01*
X0177561Y0010000D01*
X0182561Y0010000D01*
X0185061Y0012500D01*
X0187561Y0010000D01*
X0192561Y0010000D01*
X0195061Y0012500D01*
X0197561Y0010000D01*
X0202561Y0010000D01*
X0205061Y0012500D01*
X0205061Y0017500D01*
X0202561Y0020000D01*
X0197561Y0020000D01*
X0195061Y0017500D01*
X0192561Y0020000D01*
X0187561Y0020000D01*
X0185061Y0017500D01*
X0182561Y0020000D01*
X0177561Y0020000D01*
X0175061Y0017500D01*
X0172561Y0020000D01*
X0167561Y0020000D01*
X0165061Y0017500D01*
X0162561Y0020000D01*
X0157561Y0020000D01*
X0155061Y0017500D01*
X0152561Y0020000D01*
X0147561Y0020000D01*
X0145061Y0017500D01*
X0145061Y0012500D01*
X0171863Y0044813D02*
X0171863Y0052687D01*
X0177374Y0052687D01*
X0177374Y0054813D02*
X0171863Y0054813D01*
X0171863Y0062687D01*
X0177374Y0062687D01*
X0177374Y0064813D02*
X0171863Y0064813D01*
X0171863Y0072687D01*
X0177374Y0072687D01*
X0180130Y0071506D02*
X0180130Y0068750D01*
X0182493Y0071112D01*
X0182493Y0066388D01*
X0180130Y0068750D01*
X0180130Y0065994D01*
X0185248Y0064813D02*
X0190760Y0064813D01*
X0190760Y0072687D01*
X0185248Y0072687D01*
X0185248Y0062687D02*
X0190760Y0062687D01*
X0190760Y0054813D01*
X0185248Y0054813D01*
X0185248Y0052687D02*
X0190760Y0052687D01*
X0190760Y0044813D01*
X0185248Y0044813D01*
X0182493Y0046388D02*
X0182493Y0051112D01*
X0180130Y0048750D01*
X0182493Y0046388D01*
X0180130Y0045994D02*
X0180130Y0048750D01*
X0180130Y0051506D01*
X0180130Y0055994D02*
X0180130Y0058750D01*
X0182493Y0061112D01*
X0182493Y0056388D01*
X0180130Y0058750D01*
X0180130Y0061506D01*
X0203172Y0073386D02*
X0203172Y0048976D01*
X0230731Y0048976D01*
X0230731Y0045827D01*
X0203172Y0045827D01*
X0203172Y0048976D01*
X0177374Y0044813D02*
X0171863Y0044813D01*
X0215061Y0017500D02*
X0217561Y0020000D01*
X0222561Y0020000D01*
X0225061Y0017500D01*
X0227561Y0020000D01*
X0232561Y0020000D01*
X0235061Y0017500D01*
X0237561Y0020000D01*
X0242561Y0020000D01*
X0245061Y0017500D01*
X0247561Y0020000D01*
X0252561Y0020000D01*
X0255061Y0017500D01*
X0257561Y0020000D01*
X0262561Y0020000D01*
X0265061Y0017500D01*
X0267561Y0020000D01*
X0272561Y0020000D01*
X0275061Y0017500D01*
X0277561Y0020000D01*
X0282561Y0020000D01*
X0285061Y0017500D01*
X0287561Y0020000D01*
X0292561Y0020000D01*
X0295061Y0017500D01*
X0295061Y0012500D01*
X0292561Y0010000D01*
X0287561Y0010000D01*
X0285061Y0012500D01*
X0282561Y0010000D01*
X0277561Y0010000D01*
X0275061Y0012500D01*
X0272561Y0010000D01*
X0267561Y0010000D01*
X0265061Y0012500D01*
X0262561Y0010000D01*
X0257561Y0010000D01*
X0255061Y0012500D01*
X0252561Y0010000D01*
X0247561Y0010000D01*
X0245061Y0012500D01*
X0242561Y0010000D01*
X0237561Y0010000D01*
X0235061Y0012500D01*
X0232561Y0010000D01*
X0227561Y0010000D01*
X0225061Y0012500D01*
X0222561Y0010000D01*
X0217561Y0010000D01*
X0215061Y0012500D01*
X0215061Y0017500D01*
X0269422Y0038327D02*
X0269422Y0041476D01*
X0296981Y0041476D01*
X0296981Y0038327D01*
X0269422Y0038327D01*
X0269422Y0041476D02*
X0269422Y0065886D01*
X0296981Y0065886D01*
X0296981Y0041476D01*
X0327399Y0052906D02*
X0327399Y0086700D01*
X0327390Y0086770D01*
X0327385Y0086842D01*
X0327384Y0086913D01*
X0327387Y0086984D01*
X0327394Y0087055D01*
X0327404Y0087126D01*
X0327418Y0087196D01*
X0327436Y0087265D01*
X0327458Y0087333D01*
X0327484Y0087400D01*
X0327513Y0087465D01*
X0327545Y0087528D01*
X0327581Y0087590D01*
X0327620Y0087650D01*
X0327663Y0087707D01*
X0327708Y0087762D01*
X0327756Y0087815D01*
X0327808Y0087865D01*
X0327861Y0087912D01*
X0327917Y0087956D01*
X0327976Y0087996D01*
X0328037Y0088034D01*
X0328099Y0088068D01*
X0328163Y0088099D01*
X0328229Y0088127D01*
X0328297Y0088150D01*
X0328365Y0088170D01*
X0328435Y0088187D01*
X0328505Y0088199D01*
X0328505Y0088200D02*
X0332461Y0088200D01*
X0332461Y0088000D02*
X0332463Y0087902D01*
X0332469Y0087804D01*
X0332478Y0087706D01*
X0332492Y0087609D01*
X0332509Y0087512D01*
X0332530Y0087416D01*
X0332555Y0087321D01*
X0332583Y0087227D01*
X0332616Y0087135D01*
X0332651Y0087043D01*
X0332691Y0086953D01*
X0332733Y0086865D01*
X0332780Y0086778D01*
X0332829Y0086694D01*
X0332882Y0086611D01*
X0332938Y0086531D01*
X0332998Y0086452D01*
X0333060Y0086376D01*
X0333125Y0086303D01*
X0333193Y0086232D01*
X0333264Y0086164D01*
X0333337Y0086099D01*
X0333413Y0086037D01*
X0333492Y0085977D01*
X0333572Y0085921D01*
X0333655Y0085868D01*
X0333739Y0085819D01*
X0333826Y0085772D01*
X0333914Y0085730D01*
X0334004Y0085690D01*
X0334096Y0085655D01*
X0334188Y0085622D01*
X0334282Y0085594D01*
X0334377Y0085569D01*
X0334473Y0085548D01*
X0334570Y0085531D01*
X0334667Y0085517D01*
X0334765Y0085508D01*
X0334863Y0085502D01*
X0334961Y0085500D01*
X0335059Y0085502D01*
X0335157Y0085508D01*
X0335255Y0085517D01*
X0335352Y0085531D01*
X0335449Y0085548D01*
X0335545Y0085569D01*
X0335640Y0085594D01*
X0335734Y0085622D01*
X0335826Y0085655D01*
X0335918Y0085690D01*
X0336008Y0085730D01*
X0336096Y0085772D01*
X0336183Y0085819D01*
X0336267Y0085868D01*
X0336350Y0085921D01*
X0336430Y0085977D01*
X0336509Y0086037D01*
X0336585Y0086099D01*
X0336658Y0086164D01*
X0336729Y0086232D01*
X0336797Y0086303D01*
X0336862Y0086376D01*
X0336924Y0086452D01*
X0336984Y0086531D01*
X0337040Y0086611D01*
X0337093Y0086694D01*
X0337142Y0086778D01*
X0337189Y0086865D01*
X0337231Y0086953D01*
X0337271Y0087043D01*
X0337306Y0087135D01*
X0337339Y0087227D01*
X0337367Y0087321D01*
X0337392Y0087416D01*
X0337413Y0087512D01*
X0337430Y0087609D01*
X0337444Y0087706D01*
X0337453Y0087804D01*
X0337459Y0087902D01*
X0337461Y0088000D01*
X0337461Y0088200D02*
X0340780Y0088200D01*
X0340830Y0088201D02*
X0340911Y0088208D01*
X0340992Y0088212D01*
X0341073Y0088211D01*
X0341155Y0088207D01*
X0341235Y0088199D01*
X0341316Y0088187D01*
X0341396Y0088172D01*
X0341475Y0088152D01*
X0341553Y0088129D01*
X0341629Y0088102D01*
X0341705Y0088072D01*
X0341779Y0088038D01*
X0341851Y0088000D01*
X0341921Y0087959D01*
X0341989Y0087915D01*
X0342055Y0087868D01*
X0342119Y0087817D01*
X0342180Y0087764D01*
X0342239Y0087707D01*
X0342295Y0087648D01*
X0342348Y0087587D01*
X0342398Y0087523D01*
X0342445Y0087456D01*
X0342489Y0087388D01*
X0342529Y0087317D01*
X0342566Y0087245D01*
X0342600Y0087171D01*
X0342629Y0087095D01*
X0342656Y0087018D01*
X0342678Y0086940D01*
X0342697Y0086861D01*
X0342712Y0086781D01*
X0342724Y0086700D01*
X0342724Y0053300D01*
X0342722Y0053224D01*
X0342716Y0053149D01*
X0342707Y0053073D01*
X0342693Y0052998D01*
X0342676Y0052924D01*
X0342655Y0052851D01*
X0342631Y0052779D01*
X0342603Y0052709D01*
X0342571Y0052640D01*
X0342536Y0052572D01*
X0342497Y0052507D01*
X0342455Y0052443D01*
X0342410Y0052382D01*
X0342362Y0052323D01*
X0342311Y0052267D01*
X0342257Y0052213D01*
X0342201Y0052162D01*
X0342142Y0052114D01*
X0342081Y0052069D01*
X0342017Y0052027D01*
X0341952Y0051988D01*
X0341884Y0051953D01*
X0341815Y0051921D01*
X0341745Y0051893D01*
X0341673Y0051869D01*
X0341600Y0051848D01*
X0341526Y0051831D01*
X0341451Y0051817D01*
X0341375Y0051808D01*
X0341300Y0051802D01*
X0341224Y0051800D01*
X0328899Y0051800D01*
X0328828Y0051791D01*
X0328757Y0051786D01*
X0328685Y0051785D01*
X0328614Y0051788D01*
X0328543Y0051795D01*
X0328472Y0051805D01*
X0328403Y0051819D01*
X0328333Y0051838D01*
X0328265Y0051859D01*
X0328199Y0051885D01*
X0328134Y0051914D01*
X0328070Y0051946D01*
X0328008Y0051982D01*
X0327949Y0052021D01*
X0327891Y0052064D01*
X0327836Y0052109D01*
X0327784Y0052158D01*
X0327734Y0052209D01*
X0327687Y0052262D01*
X0327643Y0052319D01*
X0327602Y0052377D01*
X0327564Y0052438D01*
X0327530Y0052500D01*
X0327499Y0052565D01*
X0327472Y0052631D01*
X0327448Y0052698D01*
X0327428Y0052766D01*
X0327411Y0052836D01*
X0327399Y0052906D01*
X0331811Y0049000D02*
X0338311Y0049000D01*
X0338371Y0048998D01*
X0338432Y0048993D01*
X0338491Y0048984D01*
X0338550Y0048971D01*
X0338609Y0048955D01*
X0338666Y0048935D01*
X0338721Y0048912D01*
X0338776Y0048885D01*
X0338828Y0048856D01*
X0338879Y0048823D01*
X0338928Y0048787D01*
X0338974Y0048749D01*
X0339018Y0048707D01*
X0339060Y0048663D01*
X0339098Y0048617D01*
X0339134Y0048568D01*
X0339167Y0048517D01*
X0339196Y0048465D01*
X0339223Y0048410D01*
X0339246Y0048355D01*
X0339266Y0048298D01*
X0339282Y0048239D01*
X0339295Y0048180D01*
X0339304Y0048121D01*
X0339309Y0048060D01*
X0339311Y0048000D01*
X0331811Y0049000D02*
X0331751Y0048998D01*
X0331690Y0048993D01*
X0331631Y0048984D01*
X0331572Y0048971D01*
X0331513Y0048955D01*
X0331456Y0048935D01*
X0331401Y0048912D01*
X0331346Y0048885D01*
X0331294Y0048856D01*
X0331243Y0048823D01*
X0331194Y0048787D01*
X0331148Y0048749D01*
X0331104Y0048707D01*
X0331062Y0048663D01*
X0331024Y0048617D01*
X0330988Y0048568D01*
X0330955Y0048517D01*
X0330926Y0048465D01*
X0330899Y0048410D01*
X0330876Y0048355D01*
X0330856Y0048298D01*
X0330840Y0048239D01*
X0330827Y0048180D01*
X0330818Y0048121D01*
X0330813Y0048060D01*
X0330811Y0048000D01*
X0330811Y0042000D02*
X0330813Y0041940D01*
X0330818Y0041879D01*
X0330827Y0041820D01*
X0330840Y0041761D01*
X0330856Y0041702D01*
X0330876Y0041645D01*
X0330899Y0041590D01*
X0330926Y0041535D01*
X0330955Y0041483D01*
X0330988Y0041432D01*
X0331024Y0041383D01*
X0331062Y0041337D01*
X0331104Y0041293D01*
X0331148Y0041251D01*
X0331194Y0041213D01*
X0331243Y0041177D01*
X0331294Y0041144D01*
X0331346Y0041115D01*
X0331401Y0041088D01*
X0331456Y0041065D01*
X0331513Y0041045D01*
X0331572Y0041029D01*
X0331631Y0041016D01*
X0331690Y0041007D01*
X0331751Y0041002D01*
X0331811Y0041000D01*
X0338311Y0041000D01*
X0338371Y0041002D01*
X0338432Y0041007D01*
X0338491Y0041016D01*
X0338550Y0041029D01*
X0338609Y0041045D01*
X0338666Y0041065D01*
X0338721Y0041088D01*
X0338776Y0041115D01*
X0338828Y0041144D01*
X0338879Y0041177D01*
X0338928Y0041213D01*
X0338974Y0041251D01*
X0339018Y0041293D01*
X0339060Y0041337D01*
X0339098Y0041383D01*
X0339134Y0041432D01*
X0339167Y0041483D01*
X0339196Y0041535D01*
X0339223Y0041590D01*
X0339246Y0041645D01*
X0339266Y0041702D01*
X0339282Y0041761D01*
X0339295Y0041820D01*
X0339304Y0041879D01*
X0339309Y0041940D01*
X0339311Y0042000D01*
X0340363Y0041604D02*
X0341764Y0040202D01*
X0341764Y0037400D01*
X0341764Y0039502D02*
X0338961Y0039502D01*
X0338961Y0040202D02*
X0340363Y0041604D01*
X0338961Y0040202D02*
X0338961Y0037400D01*
X0343565Y0039502D02*
X0346368Y0039502D01*
X0348169Y0041604D02*
X0349570Y0041604D01*
X0348870Y0041604D02*
X0348870Y0037400D01*
X0349570Y0037400D02*
X0348169Y0037400D01*
X0351239Y0037400D02*
X0351239Y0041604D01*
X0354041Y0037400D01*
X0354041Y0041604D01*
X0366458Y0041400D02*
X0366458Y0043502D01*
X0367158Y0044202D01*
X0369961Y0044202D01*
X0370661Y0043502D01*
X0370661Y0041400D01*
X0366458Y0041400D01*
X0368560Y0046004D02*
X0368560Y0048806D01*
X0370661Y0050608D02*
X0370661Y0052009D01*
X0370661Y0051308D02*
X0366458Y0051308D01*
X0366458Y0050608D02*
X0366458Y0052009D01*
X0367158Y0053677D02*
X0366458Y0054378D01*
X0366458Y0055779D01*
X0367158Y0056480D01*
X0369961Y0056480D01*
X0370661Y0055779D01*
X0370661Y0054378D01*
X0369961Y0053677D01*
X0367158Y0053677D01*
X0385061Y0037500D02*
X0387561Y0040000D01*
X0402561Y0040000D01*
X0405061Y0037500D01*
X0405061Y0032500D01*
X0402561Y0030000D01*
X0387561Y0030000D01*
X0385061Y0032500D01*
X0385061Y0037500D01*
X0382561Y0020000D02*
X0377561Y0020000D01*
X0375061Y0017500D01*
X0372561Y0020000D01*
X0367561Y0020000D01*
X0365061Y0017500D01*
X0362561Y0020000D01*
X0357561Y0020000D01*
X0355061Y0017500D01*
X0352561Y0020000D01*
X0347561Y0020000D01*
X0345061Y0017500D01*
X0342561Y0020000D01*
X0337561Y0020000D01*
X0335061Y0017500D01*
X0332561Y0020000D01*
X0327561Y0020000D01*
X0325061Y0017500D01*
X0322561Y0020000D01*
X0317561Y0020000D01*
X0315061Y0017500D01*
X0312561Y0020000D01*
X0307561Y0020000D01*
X0305061Y0017500D01*
X0305061Y0012500D01*
X0307561Y0010000D01*
X0312561Y0010000D01*
X0315061Y0012500D01*
X0317561Y0010000D01*
X0322561Y0010000D01*
X0325061Y0012500D01*
X0327561Y0010000D01*
X0332561Y0010000D01*
X0335061Y0012500D01*
X0337561Y0010000D01*
X0342561Y0010000D01*
X0345061Y0012500D01*
X0347561Y0010000D01*
X0352561Y0010000D01*
X0355061Y0012500D01*
X0357561Y0010000D01*
X0362561Y0010000D01*
X0365061Y0012500D01*
X0367561Y0010000D01*
X0372561Y0010000D01*
X0375061Y0012500D01*
X0377561Y0010000D01*
X0382561Y0010000D01*
X0385061Y0012500D01*
X0385061Y0017500D01*
X0382561Y0020000D01*
X0260161Y0077100D02*
X0236561Y0077098D01*
X0236561Y0102902D01*
X0260161Y0102900D01*
X0230731Y0073386D02*
X0203172Y0073386D01*
X0177811Y0083350D02*
X0177811Y0109150D01*
X0164811Y0109150D01*
X0164811Y0083350D01*
X0177811Y0083350D01*
X0230731Y0073386D02*
X0230731Y0048976D01*
X0120161Y0049600D02*
X0096561Y0049598D01*
X0096561Y0075402D01*
X0120161Y0075400D01*
X0065760Y0077687D02*
X0065760Y0069813D01*
X0060248Y0069813D01*
X0057493Y0070994D02*
X0057493Y0073750D01*
X0055130Y0071388D01*
X0055130Y0076112D01*
X0057493Y0073750D01*
X0057493Y0076506D01*
X0060248Y0077687D02*
X0065760Y0077687D01*
X0052374Y0077687D02*
X0046863Y0077687D01*
X0046863Y0069813D01*
X0052374Y0069813D01*
X0028959Y0106772D02*
X0026400Y0106772D01*
X0026400Y0116614D01*
X0028959Y0116614D01*
X0033093Y0124882D02*
X0085061Y0124882D01*
X0085061Y0144173D01*
X0085061Y0154803D02*
X0085061Y0166614D01*
X0085061Y0177244D02*
X0085061Y0180000D01*
X0037424Y0180000D01*
X0031518Y0173701D02*
X0031518Y0140630D01*
X0031519Y0140630D02*
X0031514Y0140504D01*
X0031505Y0140379D01*
X0031492Y0140254D01*
X0031475Y0140130D01*
X0031455Y0140006D01*
X0031431Y0139883D01*
X0031403Y0139761D01*
X0031371Y0139640D01*
X0031335Y0139520D01*
X0031296Y0139401D01*
X0031253Y0139283D01*
X0031206Y0139167D01*
X0031156Y0139052D01*
X0031102Y0138938D01*
X0031044Y0138827D01*
X0030984Y0138717D01*
X0030919Y0138610D01*
X0030852Y0138504D01*
X0030781Y0138400D01*
X0030707Y0138299D01*
X0030630Y0138200D01*
X0030550Y0138103D01*
X0030467Y0138009D01*
X0030382Y0137918D01*
X0030293Y0137829D01*
X0030202Y0137744D01*
X0030108Y0137661D01*
X0030011Y0137581D01*
X0029912Y0137504D01*
X0029811Y0137430D01*
X0029707Y0137359D01*
X0029601Y0137292D01*
X0029494Y0137227D01*
X0029384Y0137167D01*
X0029273Y0137109D01*
X0029159Y0137055D01*
X0029044Y0137005D01*
X0028928Y0136958D01*
X0028810Y0136915D01*
X0028691Y0136876D01*
X0028571Y0136840D01*
X0028450Y0136808D01*
X0028328Y0136780D01*
X0028205Y0136756D01*
X0028081Y0136736D01*
X0027957Y0136719D01*
X0027832Y0136706D01*
X0027707Y0136697D01*
X0027581Y0136692D01*
X0027581Y0136693D02*
X0027480Y0136699D01*
X0027380Y0136701D01*
X0027279Y0136699D01*
X0027179Y0136693D01*
X0027079Y0136683D01*
X0026979Y0136669D01*
X0026880Y0136651D01*
X0026782Y0136629D01*
X0026685Y0136604D01*
X0026588Y0136575D01*
X0026493Y0136542D01*
X0026400Y0136505D01*
X0026308Y0136464D01*
X0026217Y0136420D01*
X0026128Y0136373D01*
X0026042Y0136322D01*
X0025957Y0136268D01*
X0025874Y0136210D01*
X0025794Y0136150D01*
X0025717Y0136086D01*
X0025641Y0136019D01*
X0025569Y0135949D01*
X0025499Y0135877D01*
X0025432Y0135801D01*
X0025368Y0135724D01*
X0025308Y0135644D01*
X0025250Y0135561D01*
X0025196Y0135476D01*
X0025145Y0135390D01*
X0025098Y0135301D01*
X0025054Y0135210D01*
X0025013Y0135118D01*
X0024976Y0135025D01*
X0024943Y0134930D01*
X0024914Y0134833D01*
X0024889Y0134736D01*
X0024867Y0134638D01*
X0024849Y0134539D01*
X0024835Y0134439D01*
X0024825Y0134339D01*
X0024819Y0134239D01*
X0024817Y0134138D01*
X0024819Y0134038D01*
X0024825Y0133937D01*
X0024825Y0130787D01*
X0001400Y0135315D02*
X0026400Y0106772D01*
X0001400Y0135315D02*
X0001400Y0174685D01*
X0026400Y0203228D01*
X0026400Y0193386D01*
X0028959Y0193386D01*
X0028959Y0203228D02*
X0026400Y0203228D01*
X0104943Y0203228D02*
X0107109Y0203228D01*
X0107109Y0193386D01*
X0104943Y0193386D01*
X0111561Y0200000D02*
X0116561Y0200000D01*
X0119061Y0202500D01*
X0121561Y0200000D01*
X0126561Y0200000D01*
X0129061Y0202500D01*
X0131561Y0200000D01*
X0136561Y0200000D01*
X0139061Y0202500D01*
X0141561Y0200000D01*
X0146561Y0200000D01*
X0149061Y0202500D01*
X0151561Y0200000D01*
X0156561Y0200000D01*
X0159061Y0202500D01*
X0161561Y0200000D01*
X0166561Y0200000D01*
X0169061Y0202500D01*
X0171561Y0200000D01*
X0176561Y0200000D01*
X0179061Y0202500D01*
X0181561Y0200000D01*
X0186561Y0200000D01*
X0189061Y0202500D01*
X0189061Y0207500D01*
X0186561Y0210000D01*
X0181561Y0210000D01*
X0179061Y0207500D01*
X0176561Y0210000D01*
X0171561Y0210000D01*
X0169061Y0207500D01*
X0166561Y0210000D01*
X0161561Y0210000D01*
X0159061Y0207500D01*
X0156561Y0210000D01*
X0151561Y0210000D01*
X0149061Y0207500D01*
X0146561Y0210000D01*
X0141561Y0210000D01*
X0139061Y0207500D01*
X0136561Y0210000D01*
X0131561Y0210000D01*
X0129061Y0207500D01*
X0126561Y0210000D01*
X0121561Y0210000D01*
X0119061Y0207500D01*
X0116561Y0210000D01*
X0111561Y0210000D01*
X0109061Y0207500D01*
X0109061Y0202500D01*
X0111561Y0200000D01*
X0110061Y0203228D02*
X0107109Y0203228D01*
X0110061Y0203228D02*
X0110061Y0106772D01*
X0107109Y0106772D01*
X0107109Y0116614D01*
X0104943Y0116614D01*
X0104943Y0106772D02*
X0107109Y0106772D01*
X0157111Y0157337D02*
X0190905Y0157337D01*
X0190905Y0157338D02*
X0190975Y0157350D01*
X0191045Y0157367D01*
X0191113Y0157387D01*
X0191180Y0157411D01*
X0191246Y0157438D01*
X0191311Y0157469D01*
X0191373Y0157503D01*
X0191434Y0157541D01*
X0191492Y0157582D01*
X0191549Y0157626D01*
X0191602Y0157673D01*
X0191653Y0157723D01*
X0191702Y0157775D01*
X0191747Y0157830D01*
X0191790Y0157888D01*
X0191829Y0157947D01*
X0191865Y0158009D01*
X0191897Y0158073D01*
X0191926Y0158138D01*
X0191952Y0158204D01*
X0191973Y0158272D01*
X0191992Y0158342D01*
X0192006Y0158411D01*
X0192016Y0158482D01*
X0192023Y0158553D01*
X0192026Y0158624D01*
X0192025Y0158696D01*
X0192020Y0158767D01*
X0192011Y0158838D01*
X0192011Y0158837D02*
X0192011Y0171163D01*
X0192012Y0171163D02*
X0192010Y0171239D01*
X0192004Y0171314D01*
X0191995Y0171390D01*
X0191981Y0171465D01*
X0191964Y0171539D01*
X0191943Y0171612D01*
X0191919Y0171684D01*
X0191891Y0171754D01*
X0191859Y0171823D01*
X0191824Y0171891D01*
X0191785Y0171956D01*
X0191743Y0172020D01*
X0191698Y0172081D01*
X0191650Y0172140D01*
X0191599Y0172196D01*
X0191545Y0172250D01*
X0191489Y0172301D01*
X0191430Y0172349D01*
X0191369Y0172394D01*
X0191305Y0172436D01*
X0191240Y0172475D01*
X0191172Y0172510D01*
X0191103Y0172542D01*
X0191033Y0172570D01*
X0190961Y0172594D01*
X0190888Y0172615D01*
X0190814Y0172632D01*
X0190739Y0172646D01*
X0190663Y0172655D01*
X0190588Y0172661D01*
X0190512Y0172663D01*
X0190511Y0172663D02*
X0157111Y0172663D01*
X0157112Y0172663D02*
X0157031Y0172651D01*
X0156951Y0172636D01*
X0156872Y0172617D01*
X0156794Y0172595D01*
X0156717Y0172568D01*
X0156641Y0172539D01*
X0156567Y0172505D01*
X0156495Y0172468D01*
X0156424Y0172428D01*
X0156356Y0172384D01*
X0156289Y0172337D01*
X0156225Y0172287D01*
X0156164Y0172234D01*
X0156105Y0172178D01*
X0156048Y0172119D01*
X0155995Y0172058D01*
X0155944Y0171994D01*
X0155897Y0171928D01*
X0155853Y0171860D01*
X0155812Y0171790D01*
X0155774Y0171718D01*
X0155740Y0171644D01*
X0155710Y0171568D01*
X0155683Y0171492D01*
X0155660Y0171414D01*
X0155640Y0171335D01*
X0155625Y0171255D01*
X0155613Y0171174D01*
X0155605Y0171094D01*
X0155601Y0171012D01*
X0155600Y0170931D01*
X0155604Y0170850D01*
X0155611Y0170769D01*
X0155611Y0170719D02*
X0155611Y0167400D01*
X0155811Y0167400D02*
X0155909Y0167398D01*
X0156007Y0167392D01*
X0156105Y0167383D01*
X0156202Y0167369D01*
X0156299Y0167352D01*
X0156395Y0167331D01*
X0156490Y0167306D01*
X0156584Y0167278D01*
X0156676Y0167245D01*
X0156768Y0167210D01*
X0156858Y0167170D01*
X0156946Y0167128D01*
X0157033Y0167081D01*
X0157117Y0167032D01*
X0157200Y0166979D01*
X0157280Y0166923D01*
X0157359Y0166863D01*
X0157435Y0166801D01*
X0157508Y0166736D01*
X0157579Y0166668D01*
X0157647Y0166597D01*
X0157712Y0166524D01*
X0157774Y0166448D01*
X0157834Y0166369D01*
X0157890Y0166289D01*
X0157943Y0166206D01*
X0157992Y0166122D01*
X0158039Y0166035D01*
X0158081Y0165947D01*
X0158121Y0165857D01*
X0158156Y0165765D01*
X0158189Y0165673D01*
X0158217Y0165579D01*
X0158242Y0165484D01*
X0158263Y0165388D01*
X0158280Y0165291D01*
X0158294Y0165194D01*
X0158303Y0165096D01*
X0158309Y0164998D01*
X0158311Y0164900D01*
X0158309Y0164802D01*
X0158303Y0164704D01*
X0158294Y0164606D01*
X0158280Y0164509D01*
X0158263Y0164412D01*
X0158242Y0164316D01*
X0158217Y0164221D01*
X0158189Y0164127D01*
X0158156Y0164035D01*
X0158121Y0163943D01*
X0158081Y0163853D01*
X0158039Y0163765D01*
X0157992Y0163678D01*
X0157943Y0163594D01*
X0157890Y0163511D01*
X0157834Y0163431D01*
X0157774Y0163352D01*
X0157712Y0163276D01*
X0157647Y0163203D01*
X0157579Y0163132D01*
X0157508Y0163064D01*
X0157435Y0162999D01*
X0157359Y0162937D01*
X0157280Y0162877D01*
X0157200Y0162821D01*
X0157117Y0162768D01*
X0157033Y0162719D01*
X0156946Y0162672D01*
X0156858Y0162630D01*
X0156768Y0162590D01*
X0156676Y0162555D01*
X0156584Y0162522D01*
X0156490Y0162494D01*
X0156395Y0162469D01*
X0156299Y0162448D01*
X0156202Y0162431D01*
X0156105Y0162417D01*
X0156007Y0162408D01*
X0155909Y0162402D01*
X0155811Y0162400D01*
X0155611Y0162400D02*
X0155611Y0158444D01*
X0155612Y0158444D02*
X0155624Y0158374D01*
X0155641Y0158304D01*
X0155661Y0158236D01*
X0155684Y0158168D01*
X0155712Y0158102D01*
X0155743Y0158038D01*
X0155777Y0157976D01*
X0155815Y0157915D01*
X0155855Y0157856D01*
X0155899Y0157800D01*
X0155946Y0157747D01*
X0155996Y0157695D01*
X0156049Y0157647D01*
X0156104Y0157602D01*
X0156161Y0157559D01*
X0156221Y0157520D01*
X0156283Y0157484D01*
X0156346Y0157452D01*
X0156411Y0157423D01*
X0156478Y0157397D01*
X0156546Y0157375D01*
X0156615Y0157357D01*
X0156685Y0157343D01*
X0156756Y0157333D01*
X0156827Y0157326D01*
X0156898Y0157323D01*
X0156969Y0157324D01*
X0157041Y0157329D01*
X0157111Y0157338D01*
X0130811Y0168500D02*
X0124311Y0168500D01*
X0124251Y0168502D01*
X0124190Y0168507D01*
X0124131Y0168516D01*
X0124072Y0168529D01*
X0124013Y0168545D01*
X0123956Y0168565D01*
X0123901Y0168588D01*
X0123846Y0168615D01*
X0123794Y0168644D01*
X0123743Y0168677D01*
X0123694Y0168713D01*
X0123648Y0168751D01*
X0123604Y0168793D01*
X0123562Y0168837D01*
X0123524Y0168883D01*
X0123488Y0168932D01*
X0123455Y0168983D01*
X0123426Y0169035D01*
X0123399Y0169090D01*
X0123376Y0169145D01*
X0123356Y0169202D01*
X0123340Y0169261D01*
X0123327Y0169320D01*
X0123318Y0169379D01*
X0123313Y0169440D01*
X0123311Y0169500D01*
X0121561Y0169250D02*
X0121561Y0175750D01*
X0121559Y0175810D01*
X0121554Y0175871D01*
X0121545Y0175930D01*
X0121532Y0175989D01*
X0121516Y0176048D01*
X0121496Y0176105D01*
X0121473Y0176160D01*
X0121446Y0176215D01*
X0121417Y0176267D01*
X0121384Y0176318D01*
X0121348Y0176367D01*
X0121310Y0176413D01*
X0121268Y0176457D01*
X0121224Y0176499D01*
X0121178Y0176537D01*
X0121129Y0176573D01*
X0121078Y0176606D01*
X0121026Y0176635D01*
X0120971Y0176662D01*
X0120916Y0176685D01*
X0120859Y0176705D01*
X0120800Y0176721D01*
X0120741Y0176734D01*
X0120682Y0176743D01*
X0120621Y0176748D01*
X0120561Y0176750D01*
X0124311Y0176500D02*
X0130811Y0176500D01*
X0130871Y0176498D01*
X0130932Y0176493D01*
X0130991Y0176484D01*
X0131050Y0176471D01*
X0131109Y0176455D01*
X0131166Y0176435D01*
X0131221Y0176412D01*
X0131276Y0176385D01*
X0131328Y0176356D01*
X0131379Y0176323D01*
X0131428Y0176287D01*
X0131474Y0176249D01*
X0131518Y0176207D01*
X0131560Y0176163D01*
X0131598Y0176117D01*
X0131634Y0176068D01*
X0131667Y0176017D01*
X0131696Y0175965D01*
X0131723Y0175910D01*
X0131746Y0175855D01*
X0131766Y0175798D01*
X0131782Y0175739D01*
X0131795Y0175680D01*
X0131804Y0175621D01*
X0131809Y0175560D01*
X0131811Y0175500D01*
X0124311Y0176500D02*
X0124251Y0176498D01*
X0124190Y0176493D01*
X0124131Y0176484D01*
X0124072Y0176471D01*
X0124013Y0176455D01*
X0123956Y0176435D01*
X0123901Y0176412D01*
X0123846Y0176385D01*
X0123794Y0176356D01*
X0123743Y0176323D01*
X0123694Y0176287D01*
X0123648Y0176249D01*
X0123604Y0176207D01*
X0123562Y0176163D01*
X0123524Y0176117D01*
X0123488Y0176068D01*
X0123455Y0176017D01*
X0123426Y0175965D01*
X0123399Y0175910D01*
X0123376Y0175855D01*
X0123356Y0175798D01*
X0123340Y0175739D01*
X0123327Y0175680D01*
X0123318Y0175621D01*
X0123313Y0175560D01*
X0123311Y0175500D01*
X0114561Y0176750D02*
X0114501Y0176748D01*
X0114440Y0176743D01*
X0114381Y0176734D01*
X0114322Y0176721D01*
X0114263Y0176705D01*
X0114206Y0176685D01*
X0114151Y0176662D01*
X0114096Y0176635D01*
X0114044Y0176606D01*
X0113993Y0176573D01*
X0113944Y0176537D01*
X0113898Y0176499D01*
X0113854Y0176457D01*
X0113812Y0176413D01*
X0113774Y0176367D01*
X0113738Y0176318D01*
X0113705Y0176267D01*
X0113676Y0176215D01*
X0113649Y0176160D01*
X0113626Y0176105D01*
X0113606Y0176048D01*
X0113590Y0175989D01*
X0113577Y0175930D01*
X0113568Y0175871D01*
X0113563Y0175810D01*
X0113561Y0175750D01*
X0113561Y0169250D01*
X0113563Y0169190D01*
X0113568Y0169129D01*
X0113577Y0169070D01*
X0113590Y0169011D01*
X0113606Y0168952D01*
X0113626Y0168895D01*
X0113649Y0168840D01*
X0113676Y0168785D01*
X0113705Y0168733D01*
X0113738Y0168682D01*
X0113774Y0168633D01*
X0113812Y0168587D01*
X0113854Y0168543D01*
X0113898Y0168501D01*
X0113944Y0168463D01*
X0113993Y0168427D01*
X0114044Y0168394D01*
X0114096Y0168365D01*
X0114151Y0168338D01*
X0114206Y0168315D01*
X0114263Y0168295D01*
X0114322Y0168279D01*
X0114381Y0168266D01*
X0114440Y0168257D01*
X0114501Y0168252D01*
X0114561Y0168250D01*
X0120561Y0168250D02*
X0120621Y0168252D01*
X0120682Y0168257D01*
X0120741Y0168266D01*
X0120800Y0168279D01*
X0120859Y0168295D01*
X0120916Y0168315D01*
X0120971Y0168338D01*
X0121026Y0168365D01*
X0121078Y0168394D01*
X0121129Y0168427D01*
X0121178Y0168463D01*
X0121224Y0168501D01*
X0121268Y0168543D01*
X0121310Y0168587D01*
X0121348Y0168633D01*
X0121384Y0168682D01*
X0121417Y0168733D01*
X0121446Y0168785D01*
X0121473Y0168840D01*
X0121496Y0168895D01*
X0121516Y0168952D01*
X0121532Y0169011D01*
X0121545Y0169070D01*
X0121554Y0169129D01*
X0121559Y0169190D01*
X0121561Y0169250D01*
X0130811Y0168500D02*
X0130871Y0168502D01*
X0130932Y0168507D01*
X0130991Y0168516D01*
X0131050Y0168529D01*
X0131109Y0168545D01*
X0131166Y0168565D01*
X0131221Y0168588D01*
X0131276Y0168615D01*
X0131328Y0168644D01*
X0131379Y0168677D01*
X0131428Y0168713D01*
X0131474Y0168751D01*
X0131518Y0168793D01*
X0131560Y0168837D01*
X0131598Y0168883D01*
X0131634Y0168932D01*
X0131667Y0168983D01*
X0131696Y0169035D01*
X0131723Y0169090D01*
X0131746Y0169145D01*
X0131766Y0169202D01*
X0131782Y0169261D01*
X0131795Y0169320D01*
X0131804Y0169379D01*
X0131809Y0169440D01*
X0131811Y0169500D01*
X0194811Y0170750D02*
X0194811Y0164250D01*
X0194813Y0164190D01*
X0194818Y0164129D01*
X0194827Y0164070D01*
X0194840Y0164011D01*
X0194856Y0163952D01*
X0194876Y0163895D01*
X0194899Y0163840D01*
X0194926Y0163785D01*
X0194955Y0163733D01*
X0194988Y0163682D01*
X0195024Y0163633D01*
X0195062Y0163587D01*
X0195104Y0163543D01*
X0195148Y0163501D01*
X0195194Y0163463D01*
X0195243Y0163427D01*
X0195294Y0163394D01*
X0195346Y0163365D01*
X0195401Y0163338D01*
X0195456Y0163315D01*
X0195513Y0163295D01*
X0195572Y0163279D01*
X0195631Y0163266D01*
X0195690Y0163257D01*
X0195751Y0163252D01*
X0195811Y0163250D01*
X0201811Y0163250D02*
X0201871Y0163252D01*
X0201932Y0163257D01*
X0201991Y0163266D01*
X0202050Y0163279D01*
X0202109Y0163295D01*
X0202166Y0163315D01*
X0202221Y0163338D01*
X0202276Y0163365D01*
X0202328Y0163394D01*
X0202379Y0163427D01*
X0202428Y0163463D01*
X0202474Y0163501D01*
X0202518Y0163543D01*
X0202560Y0163587D01*
X0202598Y0163633D01*
X0202634Y0163682D01*
X0202667Y0163733D01*
X0202696Y0163785D01*
X0202723Y0163840D01*
X0202746Y0163895D01*
X0202766Y0163952D01*
X0202782Y0164011D01*
X0202795Y0164070D01*
X0202804Y0164129D01*
X0202809Y0164190D01*
X0202811Y0164250D01*
X0202811Y0170750D01*
X0202809Y0170810D01*
X0202804Y0170871D01*
X0202795Y0170930D01*
X0202782Y0170989D01*
X0202766Y0171048D01*
X0202746Y0171105D01*
X0202723Y0171160D01*
X0202696Y0171215D01*
X0202667Y0171267D01*
X0202634Y0171318D01*
X0202598Y0171367D01*
X0202560Y0171413D01*
X0202518Y0171457D01*
X0202474Y0171499D01*
X0202428Y0171537D01*
X0202379Y0171573D01*
X0202328Y0171606D01*
X0202276Y0171635D01*
X0202221Y0171662D01*
X0202166Y0171685D01*
X0202109Y0171705D01*
X0202050Y0171721D01*
X0201991Y0171734D01*
X0201932Y0171743D01*
X0201871Y0171748D01*
X0201811Y0171750D01*
X0195811Y0171750D02*
X0195751Y0171748D01*
X0195690Y0171743D01*
X0195631Y0171734D01*
X0195572Y0171721D01*
X0195513Y0171705D01*
X0195456Y0171685D01*
X0195401Y0171662D01*
X0195346Y0171635D01*
X0195294Y0171606D01*
X0195243Y0171573D01*
X0195194Y0171537D01*
X0195148Y0171499D01*
X0195104Y0171457D01*
X0195062Y0171413D01*
X0195024Y0171367D01*
X0194988Y0171318D01*
X0194955Y0171267D01*
X0194926Y0171215D01*
X0194899Y0171160D01*
X0194876Y0171105D01*
X0194856Y0171048D01*
X0194840Y0170989D01*
X0194827Y0170930D01*
X0194818Y0170871D01*
X0194813Y0170810D01*
X0194811Y0170750D01*
X0207374Y0170187D02*
X0207374Y0175699D01*
X0215248Y0175699D01*
X0215248Y0170187D01*
X0213674Y0167431D02*
X0208949Y0167431D01*
X0211311Y0165069D01*
X0213674Y0167431D01*
X0214067Y0165069D02*
X0211311Y0165069D01*
X0208556Y0165069D01*
X0207374Y0162313D02*
X0207374Y0156801D01*
X0215248Y0156801D01*
X0215248Y0162313D01*
X0218624Y0162313D02*
X0218624Y0156801D01*
X0226498Y0156801D01*
X0226498Y0162313D01*
X0225317Y0165069D02*
X0222561Y0165069D01*
X0220199Y0167431D01*
X0224924Y0167431D01*
X0222561Y0165069D01*
X0219806Y0165069D01*
X0218624Y0170187D02*
X0218624Y0175699D01*
X0226498Y0175699D01*
X0226498Y0170187D01*
X0234150Y0182900D02*
X0234150Y0187104D01*
X0236251Y0187104D01*
X0236952Y0186403D01*
X0236952Y0185002D01*
X0236251Y0184301D01*
X0234150Y0184301D01*
X0238754Y0182900D02*
X0240155Y0184301D01*
X0241556Y0182900D01*
X0241556Y0187104D01*
X0243357Y0187104D02*
X0244759Y0185702D01*
X0246160Y0187104D01*
X0246160Y0182900D01*
X0243357Y0182900D02*
X0243357Y0187104D01*
X0238754Y0187104D02*
X0238754Y0182900D01*
X0237561Y0200000D02*
X0235061Y0202500D01*
X0232561Y0200000D01*
X0227561Y0200000D01*
X0225061Y0202500D01*
X0222561Y0200000D01*
X0217561Y0200000D01*
X0215061Y0202500D01*
X0212561Y0200000D01*
X0207561Y0200000D01*
X0205061Y0202500D01*
X0202561Y0200000D01*
X0197561Y0200000D01*
X0195061Y0202500D01*
X0195061Y0207500D01*
X0197561Y0210000D01*
X0202561Y0210000D01*
X0205061Y0207500D01*
X0207561Y0210000D01*
X0212561Y0210000D01*
X0215061Y0207500D01*
X0217561Y0210000D01*
X0222561Y0210000D01*
X0225061Y0207500D01*
X0227561Y0210000D01*
X0232561Y0210000D01*
X0235061Y0207500D01*
X0237561Y0210000D01*
X0242561Y0210000D01*
X0245061Y0207500D01*
X0247561Y0210000D01*
X0252561Y0210000D01*
X0255061Y0207500D01*
X0257561Y0210000D01*
X0262561Y0210000D01*
X0265061Y0207500D01*
X0267561Y0210000D01*
X0272561Y0210000D01*
X0275061Y0207500D01*
X0275061Y0202500D01*
X0272561Y0200000D01*
X0267561Y0200000D01*
X0265061Y0202500D01*
X0262561Y0200000D01*
X0257561Y0200000D01*
X0255061Y0202500D01*
X0252561Y0200000D01*
X0247561Y0200000D01*
X0245061Y0202500D01*
X0242561Y0200000D01*
X0237561Y0200000D01*
X0285061Y0202500D02*
X0287561Y0200000D01*
X0292561Y0200000D01*
X0295061Y0202500D01*
X0297561Y0200000D01*
X0302561Y0200000D01*
X0305061Y0202500D01*
X0307561Y0200000D01*
X0312561Y0200000D01*
X0315061Y0202500D01*
X0317561Y0200000D01*
X0322561Y0200000D01*
X0325061Y0202500D01*
X0327561Y0200000D01*
X0332561Y0200000D01*
X0335061Y0202500D01*
X0337561Y0200000D01*
X0342561Y0200000D01*
X0345061Y0202500D01*
X0347561Y0200000D01*
X0352561Y0200000D01*
X0355061Y0202500D01*
X0357561Y0200000D01*
X0362561Y0200000D01*
X0365061Y0202500D01*
X0365061Y0207500D01*
X0362561Y0210000D01*
X0357561Y0210000D01*
X0355061Y0207500D01*
X0352561Y0210000D01*
X0347561Y0210000D01*
X0345061Y0207500D01*
X0342561Y0210000D01*
X0337561Y0210000D01*
X0335061Y0207500D01*
X0332561Y0210000D01*
X0327561Y0210000D01*
X0325061Y0207500D01*
X0322561Y0210000D01*
X0317561Y0210000D01*
X0315061Y0207500D01*
X0312561Y0210000D01*
X0307561Y0210000D01*
X0305061Y0207500D01*
X0302561Y0210000D01*
X0297561Y0210000D01*
X0295061Y0207500D01*
X0292561Y0210000D01*
X0287561Y0210000D01*
X0285061Y0207500D01*
X0285061Y0202500D01*
X0336942Y0171653D02*
X0336942Y0168851D01*
X0337642Y0168150D01*
X0339044Y0168150D01*
X0339744Y0168851D01*
X0341546Y0168851D02*
X0342246Y0168150D01*
X0343647Y0168150D01*
X0344348Y0168851D01*
X0344348Y0171653D01*
X0343647Y0172354D01*
X0342246Y0172354D01*
X0341546Y0171653D01*
X0341546Y0168851D01*
X0346150Y0168150D02*
X0346150Y0172354D01*
X0347551Y0170952D01*
X0348952Y0172354D01*
X0348952Y0168150D01*
X0350754Y0168150D02*
X0350754Y0172354D01*
X0352155Y0170952D01*
X0353556Y0172354D01*
X0353556Y0168150D01*
X0355357Y0168851D02*
X0356058Y0168150D01*
X0357459Y0168150D01*
X0358160Y0168851D01*
X0358160Y0169551D01*
X0357459Y0170252D01*
X0356058Y0170252D01*
X0355357Y0170952D01*
X0355357Y0171653D01*
X0356058Y0172354D01*
X0357459Y0172354D01*
X0358160Y0171653D01*
X0339744Y0171653D02*
X0339044Y0172354D01*
X0337642Y0172354D01*
X0336942Y0171653D01*
X0385061Y0202500D02*
X0387561Y0200000D01*
X0402561Y0200000D01*
X0405061Y0202500D01*
X0405061Y0207500D01*
X0402561Y0210000D01*
X0387561Y0210000D01*
X0385061Y0207500D01*
X0385061Y0202500D01*
D17*
X0384535Y0210250D02*
X0383534Y0211251D01*
X0383534Y0213253D01*
X0382313Y0213253D02*
X0380311Y0213253D01*
X0380311Y0211751D01*
X0381312Y0212252D01*
X0381813Y0212252D01*
X0382313Y0211751D01*
X0382313Y0210750D01*
X0381813Y0210250D01*
X0380812Y0210250D01*
X0380311Y0210750D01*
X0384535Y0210250D02*
X0385536Y0211251D01*
X0385536Y0213253D01*
X0333311Y0169750D02*
X0324311Y0169750D01*
X0324311Y0157750D01*
X0333311Y0157750D01*
X0333311Y0169750D01*
X0333811Y0160000D02*
X0333811Y0158750D01*
X0333811Y0157500D01*
X0333811Y0156250D01*
X0332561Y0157500D01*
X0333811Y0158750D01*
X0335061Y0157500D01*
X0333811Y0157500D01*
X0332561Y0157500D01*
X0331311Y0157500D01*
X0333811Y0156250D02*
X0335061Y0157500D01*
D18*
X0234661Y0090000D03*
X0094661Y0062500D03*
D19*
X0254649Y0172500D02*
X0254651Y0172540D01*
X0254657Y0172580D01*
X0254667Y0172620D01*
X0254680Y0172658D01*
X0254698Y0172694D01*
X0254718Y0172729D01*
X0254743Y0172761D01*
X0254770Y0172791D01*
X0254800Y0172818D01*
X0254832Y0172843D01*
X0254867Y0172863D01*
X0254903Y0172881D01*
X0254941Y0172894D01*
X0254981Y0172904D01*
X0255021Y0172910D01*
X0255061Y0172912D01*
X0255101Y0172910D01*
X0255141Y0172904D01*
X0255181Y0172894D01*
X0255219Y0172881D01*
X0255255Y0172863D01*
X0255290Y0172843D01*
X0255322Y0172818D01*
X0255352Y0172791D01*
X0255379Y0172761D01*
X0255404Y0172729D01*
X0255424Y0172694D01*
X0255442Y0172658D01*
X0255455Y0172620D01*
X0255465Y0172580D01*
X0255471Y0172540D01*
X0255473Y0172500D01*
X0255471Y0172460D01*
X0255465Y0172420D01*
X0255455Y0172380D01*
X0255442Y0172342D01*
X0255424Y0172306D01*
X0255404Y0172271D01*
X0255379Y0172239D01*
X0255352Y0172209D01*
X0255322Y0172182D01*
X0255290Y0172157D01*
X0255255Y0172137D01*
X0255219Y0172119D01*
X0255181Y0172106D01*
X0255141Y0172096D01*
X0255101Y0172090D01*
X0255061Y0172088D01*
X0255021Y0172090D01*
X0254981Y0172096D01*
X0254941Y0172106D01*
X0254903Y0172119D01*
X0254867Y0172137D01*
X0254832Y0172157D01*
X0254800Y0172182D01*
X0254770Y0172209D01*
X0254743Y0172239D01*
X0254718Y0172271D01*
X0254698Y0172306D01*
X0254680Y0172342D01*
X0254667Y0172380D01*
X0254657Y0172420D01*
X0254651Y0172460D01*
X0254649Y0172500D01*
M02*
