%
M48
M72
T01C0.01969
T02C0.02000
T03C0.02362
T04C0.03150
T05C0.04000
T06C0.04724
%
T01
X222561Y152500
X211311Y153750
X237561Y172500
X246311Y166250
X201311Y173750
X192561Y181250
X182561Y186250
X173811Y196250
X135061Y171250
X142561Y166250
X116311Y157500
X97561Y157500
X175061Y160000
X315061Y160000
T02
X252561Y185000
X197561Y155000
X197561Y147500
X150061Y108750
X150061Y103750
X150061Y98750
X150061Y93750
X150061Y81250
X145061Y81250
X140061Y81250
X87561Y78750
X87561Y83750
X87561Y88750
X85061Y65000
X82561Y60000
X77561Y60000
X77561Y55000
X77561Y50000
X77561Y45000
X82561Y45000
X87561Y45000
X85061Y40000
X90061Y40000
X87561Y35000
X82561Y35000
X77561Y35000
X72561Y35000
X67561Y35000
X62561Y35000
X60061Y40000
X65061Y40000
X70061Y40000
X75061Y40000
X80061Y40000
X77561Y20000
X72561Y20000
X67561Y20000
X62561Y20000
X57561Y20000
X60061Y15000
X65061Y15000
X70061Y15000
X75061Y15000
X80061Y15000
X85061Y15000
X82561Y20000
X87561Y20000
X130061Y25625
X87561Y60000
X45061Y82500
X45061Y135000
X55061Y157500
X75061Y170000
X70061Y172500
X75061Y175000
X92561Y175000
X92561Y170000
X97561Y172500
X222561Y105000
X227561Y105000
X217561Y70000
X212561Y70000
X207561Y70000
X327561Y117500
X332561Y117500
X337561Y117500
X342561Y117500
X360061Y110000
X365061Y110000
T03
X345061Y102500
X282561Y117500
X256311Y130000
X240061Y127500
X232561Y127500
X238811Y110000
X233811Y103750
X260061Y95000
X257561Y52500
X265061Y45000
X196936Y40000
X162561Y54000
X135061Y32500
X116311Y56250
X118811Y77500
X68811Y85000
X53811Y107500
X70061Y110000
X45061Y117500
X51311Y142500
X51311Y152500
X72561Y162500
X78811Y157500
X258811Y146250
X265061Y147500
X271311Y147500
X277561Y145000
X326311Y173750
X336311Y166250
X335061Y153750
X58186Y55000
T04
X299707Y124892
X323920Y149104
T05
X27561Y17500
X37561Y17500
X47561Y17500
X47561Y27500
X37561Y27500
X27561Y27500
X27561Y37500
X37561Y37500
X47561Y37500
X130061Y15000
X140061Y15000
X150061Y15000
X160061Y15000
X170061Y15000
X180061Y15000
X190061Y15000
X200061Y15000
X220061Y15000
X230061Y15000
X240061Y15000
X250061Y15000
X260061Y15000
X270061Y15000
X280061Y15000
X290061Y15000
X310061Y15000
X320061Y15000
X330061Y15000
X340061Y15000
X350061Y15000
X360061Y15000
X370061Y15000
X380061Y15000
X390061Y35000
X400061Y35000
X400061Y45000
X390061Y45000
X390061Y55000
X400061Y55000
X400061Y65000
X390061Y65000
X390061Y75000
X400061Y75000
X400061Y85000
X390061Y85000
X390061Y95000
X400061Y95000
X400061Y105000
X390061Y105000
X390061Y115000
X400061Y115000
X400061Y125000
X390061Y125000
X390061Y135000
X400061Y135000
X400061Y145000
X390061Y145000
X390061Y155000
X400061Y155000
X400061Y165000
X390061Y165000
X390061Y175000
X400061Y175000
X400061Y185000
X390061Y185000
X390061Y195000
X400061Y195000
X400061Y205000
X390061Y205000
X360061Y205000
X350061Y205000
X340061Y205000
X330061Y205000
X320061Y205000
X310061Y205000
X300061Y205000
X290061Y205000
X270061Y205000
X260061Y205000
X250061Y205000
X240061Y205000
X230061Y205000
X220061Y205000
X210061Y205000
X200061Y205000
X184061Y205000
X174061Y205000
X164061Y205000
X154061Y205000
X144061Y205000
X134061Y205000
X124061Y205000
X114061Y205000
T06
X210061Y60000
X223841Y60000
X276311Y52500
X290091Y52500
X116966Y23125
X103186Y23125
M30
